<svg width="346" height="134" viewBox="0 0 346 134" fill="none" xmlns="http://www.w3.org/2000/svg">
<g clip-path="url(#clip0_5165_984)">
<rect width="346" height="134" fill="white"/>
<path d="M17.4091 31V19.3636H21.4773C22.2879 19.3636 22.9564 19.5038 23.483 19.7841C24.0095 20.0606 24.4015 20.4337 24.6591 20.9034C24.9167 21.3693 25.0455 21.8864 25.0455 22.4545C25.0455 22.9545 24.9564 23.3674 24.7784 23.6932C24.6042 24.0189 24.3731 24.2765 24.0852 24.4659C23.8011 24.6553 23.4924 24.7955 23.1591 24.8864V25C23.5152 25.0227 23.8731 25.1477 24.233 25.375C24.5928 25.6023 24.8939 25.928 25.1364 26.3523C25.3788 26.7765 25.5 27.2955 25.5 27.9091C25.5 28.4924 25.3674 29.017 25.1023 29.483C24.8371 29.9489 24.4186 30.3182 23.8466 30.5909C23.2746 30.8636 22.5303 31 21.6136 31H17.4091ZM18.8182 29.75H21.6136C22.5341 29.75 23.1875 29.572 23.5739 29.2159C23.964 28.8561 24.1591 28.4205 24.1591 27.9091C24.1591 27.5152 24.0587 27.1515 23.858 26.8182C23.6572 26.4811 23.3712 26.2121 23 26.0114C22.6288 25.8068 22.1894 25.7045 21.6818 25.7045H18.8182V29.75ZM18.8182 24.4773H21.4318C21.8561 24.4773 22.2386 24.3939 22.5795 24.2273C22.9242 24.0606 23.197 23.8258 23.3977 23.5227C23.6023 23.2197 23.7045 22.8636 23.7045 22.4545C23.7045 21.9432 23.5265 21.5095 23.1705 21.1534C22.8144 20.7936 22.25 20.6136 21.4773 20.6136H18.8182V24.4773ZM31.2926 31.1818C30.4517 31.1818 29.7263 30.9962 29.1165 30.625C28.5104 30.25 28.0426 29.7273 27.7131 29.0568C27.3873 28.3826 27.2244 27.5985 27.2244 26.7045C27.2244 25.8106 27.3873 25.0227 27.7131 24.3409C28.0426 23.6553 28.5009 23.1212 29.0881 22.7386C29.679 22.3523 30.3684 22.1591 31.1562 22.1591C31.6108 22.1591 32.0597 22.2348 32.5028 22.3864C32.946 22.5379 33.3494 22.7841 33.7131 23.125C34.0767 23.4621 34.3665 23.9091 34.5824 24.4659C34.7983 25.0227 34.9062 25.7083 34.9062 26.5227V27.0909H28.179V25.9318H33.5426C33.5426 25.4394 33.4441 25 33.2472 24.6136C33.054 24.2273 32.7775 23.9223 32.4176 23.6989C32.0616 23.4754 31.6411 23.3636 31.1562 23.3636C30.6222 23.3636 30.16 23.4962 29.7699 23.7614C29.3835 24.0227 29.0862 24.3636 28.8778 24.7841C28.6695 25.2045 28.5653 25.6553 28.5653 26.1364V26.9091C28.5653 27.5682 28.679 28.1269 28.9062 28.5852C29.1373 29.0398 29.4574 29.3864 29.8665 29.625C30.2756 29.8598 30.7509 29.9773 31.2926 29.9773C31.6449 29.9773 31.9631 29.928 32.2472 29.8295C32.535 29.7273 32.7831 29.5758 32.9915 29.375C33.1998 29.1705 33.3608 28.9167 33.4744 28.6136L34.7699 28.9773C34.6335 29.4167 34.4044 29.803 34.0824 30.1364C33.7604 30.4659 33.3627 30.7235 32.8892 30.9091C32.4157 31.0909 31.8835 31.1818 31.2926 31.1818ZM38.2869 25.75V31H36.946V19.3636H38.2869V23.6364H38.4006C38.6051 23.1856 38.9119 22.8277 39.321 22.5625C39.7339 22.2936 40.2831 22.1591 40.9688 22.1591C41.5634 22.1591 42.0843 22.2784 42.5312 22.517C42.9782 22.7519 43.3248 23.1136 43.571 23.6023C43.821 24.0871 43.946 24.7045 43.946 25.4545V31H42.6051V25.5455C42.6051 24.8523 42.4252 24.3163 42.0653 23.9375C41.7093 23.5549 41.215 23.3636 40.5824 23.3636C40.143 23.3636 39.7491 23.4564 39.4006 23.642C39.0559 23.8277 38.7831 24.0985 38.5824 24.4545C38.3854 24.8106 38.2869 25.2424 38.2869 25.75ZM48.9673 31.2045C48.4143 31.2045 47.9124 31.1004 47.4616 30.892C47.0109 30.6799 46.6529 30.375 46.3878 29.9773C46.1226 29.5758 45.9901 29.0909 45.9901 28.5227C45.9901 28.0227 46.0885 27.6174 46.2855 27.3068C46.4825 26.9924 46.7457 26.7462 47.0753 26.5682C47.4048 26.3902 47.7685 26.2576 48.1662 26.1705C48.5677 26.0795 48.9711 26.0076 49.3764 25.9545C49.9067 25.8864 50.3366 25.8352 50.6662 25.8011C50.9995 25.7633 51.242 25.7008 51.3935 25.6136C51.5488 25.5265 51.6264 25.375 51.6264 25.1591V25.1136C51.6264 24.553 51.473 24.1174 51.1662 23.8068C50.8632 23.4962 50.4029 23.3409 49.7855 23.3409C49.1454 23.3409 48.6435 23.4811 48.2798 23.7614C47.9162 24.0417 47.6605 24.3409 47.5128 24.6591L46.2401 24.2045C46.4673 23.6742 46.7704 23.2614 47.1491 22.9659C47.5317 22.6667 47.9484 22.4583 48.3991 22.3409C48.8537 22.2197 49.3007 22.1591 49.7401 22.1591C50.0204 22.1591 50.3423 22.1932 50.706 22.2614C51.0734 22.3258 51.4276 22.4602 51.7685 22.6648C52.1132 22.8693 52.3991 23.178 52.6264 23.5909C52.8537 24.0038 52.9673 24.5568 52.9673 25.25V31H51.6264V29.8182H51.5582C51.4673 30.0076 51.3158 30.2102 51.1037 30.4261C50.8916 30.642 50.6094 30.8258 50.2571 30.9773C49.9048 31.1288 49.4749 31.2045 48.9673 31.2045ZM49.1719 30C49.7022 30 50.1491 29.8958 50.5128 29.6875C50.8802 29.4792 51.1567 29.2102 51.3423 28.8807C51.5317 28.5511 51.6264 28.2045 51.6264 27.8409V26.6136C51.5696 26.6818 51.4446 26.7443 51.2514 26.8011C51.062 26.8542 50.8423 26.9015 50.5923 26.9432C50.3461 26.9811 50.1056 27.0152 49.8707 27.0455C49.6397 27.072 49.4522 27.0947 49.3082 27.1136C48.9598 27.1591 48.634 27.233 48.331 27.3352C48.0317 27.4337 47.7893 27.5833 47.6037 27.7841C47.4219 27.9811 47.331 28.25 47.331 28.5909C47.331 29.0568 47.5033 29.4091 47.848 29.6477C48.1965 29.8826 48.6378 30 49.1719 30ZM55.4148 31V22.2727H56.7557V31H55.4148ZM56.0966 20.8182C55.8352 20.8182 55.6098 20.7292 55.4205 20.5511C55.2348 20.3731 55.142 20.1591 55.142 19.9091C55.142 19.6591 55.2348 19.4451 55.4205 19.267C55.6098 19.089 55.8352 19 56.0966 19C56.358 19 56.5814 19.089 56.767 19.267C56.9564 19.4451 57.0511 19.6591 57.0511 19.9091C57.0511 20.1591 56.9564 20.3731 56.767 20.5511C56.5814 20.7292 56.358 20.8182 56.0966 20.8182ZM66.348 22.2727L63.1207 31H61.7571L58.5298 22.2727H59.9844L62.3935 29.2273H62.4844L64.8935 22.2727H66.348ZM71.3509 31.1818C70.563 31.1818 69.8717 30.9943 69.277 30.6193C68.6861 30.2443 68.224 29.7197 67.8906 29.0455C67.5611 28.3712 67.3963 27.5833 67.3963 26.6818C67.3963 25.7727 67.5611 24.9792 67.8906 24.3011C68.224 23.6231 68.6861 23.0966 69.277 22.7216C69.8717 22.3466 70.563 22.1591 71.3509 22.1591C72.1387 22.1591 72.8281 22.3466 73.419 22.7216C74.0137 23.0966 74.4759 23.6231 74.8054 24.3011C75.1387 24.9792 75.3054 25.7727 75.3054 26.6818C75.3054 27.5833 75.1387 28.3712 74.8054 29.0455C74.4759 29.7197 74.0137 30.2443 73.419 30.6193C72.8281 30.9943 72.1387 31.1818 71.3509 31.1818ZM71.3509 29.9773C71.9493 29.9773 72.4418 29.8239 72.8281 29.517C73.2145 29.2102 73.5005 28.8068 73.6861 28.3068C73.8717 27.8068 73.9645 27.2652 73.9645 26.6818C73.9645 26.0985 73.8717 25.5549 73.6861 25.0511C73.5005 24.5473 73.2145 24.1402 72.8281 23.8295C72.4418 23.5189 71.9493 23.3636 71.3509 23.3636C70.7524 23.3636 70.2599 23.5189 69.8736 23.8295C69.4872 24.1402 69.2012 24.5473 69.0156 25.0511C68.83 25.5549 68.7372 26.0985 68.7372 26.6818C68.7372 27.2652 68.83 27.8068 69.0156 28.3068C69.2012 28.8068 69.4872 29.2102 69.8736 29.517C70.2599 29.8239 70.7524 29.9773 71.3509 29.9773ZM82.8523 27.4318V22.2727H84.1932V31H82.8523V29.5227H82.7614C82.5568 29.9659 82.2386 30.3428 81.8068 30.6534C81.375 30.9602 80.8295 31.1136 80.1705 31.1136C79.625 31.1136 79.1402 30.9943 78.7159 30.7557C78.2917 30.5133 77.9583 30.1496 77.7159 29.6648C77.4735 29.1761 77.3523 28.5606 77.3523 27.8182V22.2727H78.6932V27.7273C78.6932 28.3636 78.8712 28.8712 79.2273 29.25C79.5871 29.6288 80.0455 29.8182 80.6023 29.8182C80.9356 29.8182 81.2746 29.733 81.6193 29.5625C81.9678 29.392 82.2595 29.1307 82.4943 28.7784C82.733 28.4261 82.8523 27.9773 82.8523 27.4318ZM86.6491 31V22.2727H87.9446V23.5909H88.0355C88.1946 23.1591 88.4825 22.8087 88.8991 22.5398C89.3158 22.2708 89.7855 22.1364 90.3082 22.1364C90.4067 22.1364 90.5298 22.1383 90.6776 22.142C90.8253 22.1458 90.937 22.1515 91.0128 22.1591V23.5227C90.9673 23.5114 90.8632 23.4943 90.7003 23.4716C90.5412 23.4451 90.3726 23.4318 90.1946 23.4318C89.7704 23.4318 89.3916 23.5208 89.0582 23.6989C88.7287 23.8731 88.4673 24.1155 88.2741 24.4261C88.0848 24.733 87.9901 25.0833 87.9901 25.4773V31H86.6491ZM95.1705 31.2045C94.6174 31.2045 94.1155 31.1004 93.6648 30.892C93.214 30.6799 92.8561 30.375 92.5909 29.9773C92.3258 29.5758 92.1932 29.0909 92.1932 28.5227C92.1932 28.0227 92.2917 27.6174 92.4886 27.3068C92.6856 26.9924 92.9489 26.7462 93.2784 26.5682C93.608 26.3902 93.9716 26.2576 94.3693 26.1705C94.7708 26.0795 95.1742 26.0076 95.5795 25.9545C96.1098 25.8864 96.5398 25.8352 96.8693 25.8011C97.2027 25.7633 97.4451 25.7008 97.5966 25.6136C97.7519 25.5265 97.8295 25.375 97.8295 25.1591V25.1136C97.8295 24.553 97.6761 24.1174 97.3693 23.8068C97.0663 23.4962 96.6061 23.3409 95.9886 23.3409C95.3485 23.3409 94.8466 23.4811 94.483 23.7614C94.1193 24.0417 93.8636 24.3409 93.7159 24.6591L92.4432 24.2045C92.6705 23.6742 92.9735 23.2614 93.3523 22.9659C93.7348 22.6667 94.1515 22.4583 94.6023 22.3409C95.0568 22.2197 95.5038 22.1591 95.9432 22.1591C96.2235 22.1591 96.5455 22.1932 96.9091 22.2614C97.2765 22.3258 97.6307 22.4602 97.9716 22.6648C98.3163 22.8693 98.6023 23.178 98.8295 23.5909C99.0568 24.0038 99.1705 24.5568 99.1705 25.25V31H97.8295V29.8182H97.7614C97.6705 30.0076 97.5189 30.2102 97.3068 30.4261C97.0947 30.642 96.8125 30.8258 96.4602 30.9773C96.108 31.1288 95.678 31.2045 95.1705 31.2045ZM95.375 30C95.9053 30 96.3523 29.8958 96.7159 29.6875C97.0833 29.4792 97.3598 29.2102 97.5455 28.8807C97.7348 28.5511 97.8295 28.2045 97.8295 27.8409V26.6136C97.7727 26.6818 97.6477 26.7443 97.4545 26.8011C97.2652 26.8542 97.0455 26.9015 96.7955 26.9432C96.5492 26.9811 96.3087 27.0152 96.0739 27.0455C95.8428 27.072 95.6553 27.0947 95.5114 27.1136C95.1629 27.1591 94.8371 27.233 94.5341 27.3352C94.2348 27.4337 93.9924 27.5833 93.8068 27.7841C93.625 27.9811 93.5341 28.25 93.5341 28.5909C93.5341 29.0568 93.7064 29.4091 94.0511 29.6477C94.3996 29.8826 94.8409 30 95.375 30ZM102.959 19.3636V31H101.618V19.3636H102.959ZM109.46 20.6136V19.3636H118.188V20.6136H114.528V31H113.119V20.6136H109.46ZM120.18 31V22.2727H121.521V31H120.18ZM120.862 20.8182C120.601 20.8182 120.375 20.7292 120.186 20.5511C120 20.3731 119.908 20.1591 119.908 19.9091C119.908 19.6591 120 19.4451 120.186 19.267C120.375 19.089 120.601 19 120.862 19C121.124 19 121.347 19.089 121.533 19.267C121.722 19.4451 121.817 19.6591 121.817 19.9091C121.817 20.1591 121.722 20.3731 121.533 20.5511C121.347 20.7292 121.124 20.8182 120.862 20.8182ZM127.636 31.1818C126.795 31.1818 126.07 30.9962 125.46 30.625C124.854 30.25 124.386 29.7273 124.057 29.0568C123.731 28.3826 123.568 27.5985 123.568 26.7045C123.568 25.8106 123.731 25.0227 124.057 24.3409C124.386 23.6553 124.845 23.1212 125.432 22.7386C126.023 22.3523 126.712 22.1591 127.5 22.1591C127.955 22.1591 128.403 22.2348 128.847 22.3864C129.29 22.5379 129.693 22.7841 130.057 23.125C130.42 23.4621 130.71 23.9091 130.926 24.4659C131.142 25.0227 131.25 25.7083 131.25 26.5227V27.0909H124.523V25.9318H129.886C129.886 25.4394 129.788 25 129.591 24.6136C129.398 24.2273 129.121 23.9223 128.761 23.6989C128.405 23.4754 127.985 23.3636 127.5 23.3636C126.966 23.3636 126.504 23.4962 126.114 23.7614C125.727 24.0227 125.43 24.3636 125.222 24.7841C125.013 25.2045 124.909 25.6553 124.909 26.1364V26.9091C124.909 27.5682 125.023 28.1269 125.25 28.5852C125.481 29.0398 125.801 29.3864 126.21 29.625C126.619 29.8598 127.095 29.9773 127.636 29.9773C127.989 29.9773 128.307 29.928 128.591 29.8295C128.879 29.7273 129.127 29.5758 129.335 29.375C129.544 29.1705 129.705 28.9167 129.818 28.6136L131.114 28.9773C130.977 29.4167 130.748 29.803 130.426 30.1364C130.104 30.4659 129.706 30.7235 129.233 30.9091C128.759 31.0909 128.227 31.1818 127.636 31.1818ZM133.29 31V22.2727H134.585V23.5909H134.676C134.835 23.1591 135.123 22.8087 135.54 22.5398C135.956 22.2708 136.426 22.1364 136.949 22.1364C137.047 22.1364 137.17 22.1383 137.318 22.142C137.466 22.1458 137.578 22.1515 137.653 22.1591V23.5227C137.608 23.5114 137.504 23.4943 137.341 23.4716C137.182 23.4451 137.013 23.4318 136.835 23.4318C136.411 23.4318 136.032 23.5208 135.699 23.6989C135.369 23.8731 135.108 24.1155 134.915 24.4261C134.725 24.733 134.631 25.0833 134.631 25.4773V31H133.29ZM150.288 22.2727C150.22 21.697 149.944 21.25 149.459 20.9318C148.974 20.6136 148.379 20.4545 147.675 20.4545C147.16 20.4545 146.709 20.5379 146.322 20.7045C145.94 20.8712 145.641 21.1004 145.425 21.392C145.213 21.6837 145.107 22.0152 145.107 22.3864C145.107 22.697 145.18 22.964 145.328 23.1875C145.48 23.4072 145.673 23.5909 145.908 23.7386C146.143 23.8826 146.389 24.0019 146.646 24.0966C146.904 24.1875 147.141 24.2614 147.357 24.3182L148.538 24.6364C148.841 24.7159 149.179 24.8258 149.55 24.9659C149.925 25.1061 150.283 25.2973 150.624 25.5398C150.968 25.7784 151.252 26.0852 151.476 26.4602C151.699 26.8352 151.811 27.2955 151.811 27.8409C151.811 28.4697 151.646 29.0379 151.317 29.5455C150.991 30.053 150.514 30.4564 149.885 30.7557C149.26 31.0549 148.5 31.2045 147.607 31.2045C146.773 31.2045 146.052 31.0701 145.442 30.8011C144.836 30.5322 144.358 30.1572 144.01 29.6761C143.665 29.1951 143.47 28.6364 143.425 28H144.879C144.917 28.4394 145.065 28.803 145.322 29.0909C145.584 29.375 145.913 29.5871 146.311 29.7273C146.713 29.8636 147.144 29.9318 147.607 29.9318C148.144 29.9318 148.627 29.8447 149.055 29.6705C149.483 29.4924 149.822 29.2462 150.072 28.9318C150.322 28.6136 150.447 28.2424 150.447 27.8182C150.447 27.4318 150.339 27.1174 150.124 26.875C149.908 26.6326 149.624 26.4356 149.271 26.2841C148.919 26.1326 148.538 26 148.129 25.8864L146.697 25.4773C145.788 25.2159 145.069 24.8428 144.538 24.358C144.008 23.8731 143.743 23.2386 143.743 22.4545C143.743 21.803 143.919 21.2348 144.271 20.75C144.627 20.2614 145.105 19.8826 145.703 19.6136C146.305 19.3409 146.978 19.2045 147.72 19.2045C148.47 19.2045 149.137 19.339 149.72 19.608C150.304 19.8731 150.766 20.2367 151.107 20.6989C151.451 21.161 151.633 21.6856 151.652 22.2727H150.288ZM154.81 34.2727C154.582 34.2727 154.38 34.2538 154.202 34.2159C154.024 34.1818 153.901 34.1477 153.832 34.1136L154.173 32.9318C154.499 33.0152 154.787 33.0455 155.037 33.0227C155.287 33 155.509 32.8883 155.702 32.6875C155.899 32.4905 156.079 32.1705 156.241 31.7273L156.491 31.0455L153.264 22.2727H154.719L157.128 29.2273H157.219L159.628 22.2727H161.082L157.378 32.2727C157.211 32.7235 157.005 33.0966 156.759 33.392C156.512 33.6913 156.226 33.9129 155.901 34.0568C155.579 34.2008 155.215 34.2727 154.81 34.2727ZM169.034 24.2273L167.83 24.5682C167.754 24.3674 167.642 24.1723 167.494 23.983C167.35 23.7898 167.153 23.6307 166.903 23.5057C166.653 23.3807 166.333 23.3182 165.943 23.3182C165.409 23.3182 164.964 23.4413 164.608 23.6875C164.256 23.9299 164.08 24.2386 164.08 24.6136C164.08 24.947 164.201 25.2102 164.443 25.4034C164.686 25.5966 165.064 25.7576 165.58 25.8864L166.875 26.2045C167.655 26.3939 168.237 26.6837 168.619 27.0739C169.002 27.4602 169.193 27.9583 169.193 28.5682C169.193 29.0682 169.049 29.5152 168.761 29.9091C168.477 30.303 168.08 30.6136 167.568 30.8409C167.057 31.0682 166.462 31.1818 165.784 31.1818C164.894 31.1818 164.157 30.9886 163.574 30.6023C162.991 30.2159 162.621 29.6515 162.466 28.9091L163.739 28.5909C163.86 29.0606 164.089 29.4129 164.426 29.6477C164.767 29.8826 165.212 30 165.761 30C166.386 30 166.883 29.8674 167.25 29.6023C167.621 29.3333 167.807 29.0114 167.807 28.6364C167.807 28.3333 167.701 28.0795 167.489 27.875C167.277 27.6667 166.951 27.5114 166.511 27.4091L165.057 27.0682C164.258 26.8788 163.67 26.5852 163.295 26.1875C162.924 25.786 162.739 25.2841 162.739 24.6818C162.739 24.1894 162.877 23.7538 163.153 23.375C163.434 22.9962 163.814 22.6989 164.295 22.483C164.78 22.267 165.33 22.1591 165.943 22.1591C166.807 22.1591 167.485 22.3485 167.977 22.7273C168.473 23.1061 168.826 23.6061 169.034 24.2273ZM175.007 22.2727V23.4091H170.484V22.2727H175.007ZM171.803 20.1818H173.143V28.5C173.143 28.8788 173.198 29.1629 173.308 29.3523C173.422 29.5379 173.566 29.6629 173.74 29.7273C173.918 29.7879 174.106 29.8182 174.303 29.8182C174.45 29.8182 174.571 29.8106 174.666 29.7955C174.761 29.7765 174.837 29.7614 174.893 29.75L175.166 30.9545C175.075 30.9886 174.948 31.0227 174.786 31.0568C174.623 31.0947 174.416 31.1136 174.166 31.1136C173.787 31.1136 173.416 31.0322 173.053 30.8693C172.693 30.7064 172.393 30.4583 172.155 30.125C171.92 29.7917 171.803 29.3712 171.803 28.8636V20.1818ZM180.589 31.1818C179.749 31.1818 179.023 30.9962 178.413 30.625C177.807 30.25 177.339 29.7273 177.01 29.0568C176.684 28.3826 176.521 27.5985 176.521 26.7045C176.521 25.8106 176.684 25.0227 177.01 24.3409C177.339 23.6553 177.798 23.1212 178.385 22.7386C178.976 22.3523 179.665 22.1591 180.453 22.1591C180.908 22.1591 181.357 22.2348 181.8 22.3864C182.243 22.5379 182.646 22.7841 183.01 23.125C183.374 23.4621 183.663 23.9091 183.879 24.4659C184.095 25.0227 184.203 25.7083 184.203 26.5227V27.0909H177.476V25.9318H182.839C182.839 25.4394 182.741 25 182.544 24.6136C182.351 24.2273 182.074 23.9223 181.714 23.6989C181.358 23.4754 180.938 23.3636 180.453 23.3636C179.919 23.3636 179.457 23.4962 179.067 23.7614C178.68 24.0227 178.383 24.3636 178.175 24.7841C177.966 25.2045 177.862 25.6553 177.862 26.1364V26.9091C177.862 27.5682 177.976 28.1269 178.203 28.5852C178.434 29.0398 178.754 29.3864 179.163 29.625C179.572 29.8598 180.048 29.9773 180.589 29.9773C180.942 29.9773 181.26 29.928 181.544 29.8295C181.832 29.7273 182.08 29.5758 182.288 29.375C182.497 29.1705 182.658 28.9167 182.771 28.6136L184.067 28.9773C183.93 29.4167 183.701 29.803 183.379 30.1364C183.057 30.4659 182.66 30.7235 182.186 30.9091C181.713 31.0909 181.18 31.1818 180.589 31.1818ZM186.243 31V22.2727H187.538V23.6364H187.652C187.834 23.1705 188.127 22.8087 188.533 22.5511C188.938 22.2898 189.425 22.1591 189.993 22.1591C190.569 22.1591 191.048 22.2898 191.43 22.5511C191.817 22.8087 192.118 23.1705 192.334 23.6364H192.425C192.648 23.1856 192.983 22.8277 193.43 22.5625C193.877 22.2936 194.413 22.1591 195.038 22.1591C195.819 22.1591 196.457 22.4034 196.953 22.892C197.449 23.3769 197.697 24.1326 197.697 25.1591V31H196.357V25.1591C196.357 24.5152 196.18 24.0549 195.828 23.7784C195.476 23.5019 195.061 23.3636 194.584 23.3636C193.97 23.3636 193.495 23.5492 193.158 23.9205C192.821 24.2879 192.652 24.7538 192.652 25.3182V31H191.288V25.0227C191.288 24.5265 191.127 24.1269 190.805 23.8239C190.483 23.517 190.069 23.3636 189.561 23.3636C189.213 23.3636 188.887 23.4564 188.584 23.642C188.285 23.8277 188.042 24.0852 187.857 24.4148C187.675 24.7405 187.584 25.1174 187.584 25.5455V31H186.243Z" fill="black"/>
<rect x="12.25" y="51" width="44" height="44" rx="22" fill="#EF74E0"/>
<path d="M36.25 70.536V68C36.25 66.9391 36.6714 65.9217 37.4216 65.1716C38.1717 64.4214 39.1891 64 40.25 64H41.75C41.8826 64 42.0098 64.0527 42.1036 64.1464C42.1973 64.2402 42.25 64.3674 42.25 64.5V66C42.25 67.0609 41.8286 68.0783 41.0784 68.8284C40.3283 69.5786 39.3109 70 38.25 70C37.1891 70 36.1717 70.4214 35.4216 71.1716C34.6714 71.9217 34.25 72.9391 34.25 74M34.25 74C34.25 76 35.25 77 35.25 79C35.25 80.0819 34.8991 81.1345 34.25 82M34.25 74C34.25 73.0714 33.9914 72.1612 33.5033 71.3713C33.0151 70.5815 32.3166 69.9431 31.4861 69.5279C30.6555 69.1126 29.7258 68.9368 28.801 69.0202C27.8762 69.1036 26.9928 69.4429 26.25 70C26.25 70.9286 26.5086 71.8388 26.9967 72.6287C27.4849 73.4185 28.1834 74.0569 29.0139 74.4721C29.8445 74.8874 30.7742 75.0632 31.699 74.9798C32.6238 74.8964 33.5072 74.5571 34.25 74ZM27.25 82H41.25" stroke="black" stroke-width="2" stroke-linecap="round" stroke-linejoin="round"/>
<path d="M15.8068 115V106.273H18.7557C19.4375 106.273 19.9972 106.389 20.4347 106.622C20.8722 106.852 21.196 107.169 21.4062 107.572C21.6165 107.976 21.7216 108.435 21.7216 108.949C21.7216 109.463 21.6165 109.919 21.4062 110.317C21.196 110.714 20.8736 111.027 20.4389 111.254C20.0043 111.479 19.4489 111.591 18.7727 111.591H16.3864V110.636H18.7386C19.2045 110.636 19.5795 110.568 19.8636 110.432C20.1506 110.295 20.358 110.102 20.4858 109.852C20.6165 109.599 20.6818 109.298 20.6818 108.949C20.6818 108.599 20.6165 108.294 20.4858 108.033C20.3551 107.771 20.1463 107.57 19.8594 107.428C19.5724 107.283 19.1932 107.21 18.7216 107.21H16.8636V115H15.8068ZM19.9148 111.08L22.0625 115H20.8352L18.7216 111.08H19.9148ZM25.935 115.136C25.3441 115.136 24.8256 114.996 24.3796 114.714C23.9364 114.433 23.5898 114.04 23.3398 113.534C23.0927 113.028 22.9691 112.437 22.9691 111.761C22.9691 111.08 23.0927 110.484 23.3398 109.976C23.5898 109.467 23.9364 109.072 24.3796 108.791C24.8256 108.51 25.3441 108.369 25.935 108.369C26.5259 108.369 27.043 108.51 27.4862 108.791C27.9322 109.072 28.2788 109.467 28.5259 109.976C28.7759 110.484 28.9009 111.08 28.9009 111.761C28.9009 112.437 28.7759 113.028 28.5259 113.534C28.2788 114.04 27.9322 114.433 27.4862 114.714C27.043 114.996 26.5259 115.136 25.935 115.136ZM25.935 114.233C26.3839 114.233 26.7532 114.118 27.043 113.888C27.3327 113.658 27.5472 113.355 27.6864 112.98C27.8256 112.605 27.8952 112.199 27.8952 111.761C27.8952 111.324 27.8256 110.916 27.6864 110.538C27.5472 110.161 27.3327 109.855 27.043 109.622C26.7532 109.389 26.3839 109.273 25.935 109.273C25.4862 109.273 25.1168 109.389 24.8271 109.622C24.5373 109.855 24.3228 110.161 24.1836 110.538C24.0444 110.916 23.9748 111.324 23.9748 111.761C23.9748 112.199 24.0444 112.605 24.1836 112.98C24.3228 113.355 24.5373 113.658 24.8271 113.888C25.1168 114.118 25.4862 114.233 25.935 114.233ZM33.0952 115.136C32.5043 115.136 31.9858 114.996 31.5398 114.714C31.0966 114.433 30.75 114.04 30.5 113.534C30.2528 113.028 30.1293 112.437 30.1293 111.761C30.1293 111.08 30.2528 110.484 30.5 109.976C30.75 109.467 31.0966 109.072 31.5398 108.791C31.9858 108.51 32.5043 108.369 33.0952 108.369C33.6861 108.369 34.2031 108.51 34.6463 108.791C35.0923 109.072 35.4389 109.467 35.6861 109.976C35.9361 110.484 36.0611 111.08 36.0611 111.761C36.0611 112.437 35.9361 113.028 35.6861 113.534C35.4389 114.04 35.0923 114.433 34.6463 114.714C34.2031 114.996 33.6861 115.136 33.0952 115.136ZM33.0952 114.233C33.544 114.233 33.9134 114.118 34.2031 113.888C34.4929 113.658 34.7074 113.355 34.8466 112.98C34.9858 112.605 35.0554 112.199 35.0554 111.761C35.0554 111.324 34.9858 110.916 34.8466 110.538C34.7074 110.161 34.4929 109.855 34.2031 109.622C33.9134 109.389 33.544 109.273 33.0952 109.273C32.6463 109.273 32.277 109.389 31.9872 109.622C31.6974 109.855 31.483 110.161 31.3438 110.538C31.2045 110.916 31.1349 111.324 31.1349 111.761C31.1349 112.199 31.2045 112.605 31.3438 112.98C31.483 113.355 31.6974 113.658 31.9872 113.888C32.277 114.118 32.6463 114.233 33.0952 114.233ZM38.5337 112.614L38.5167 111.369H38.7212L41.5849 108.455H42.8292L39.7781 111.54H39.6928L38.5337 112.614ZM37.5962 115V106.273H38.6019V115H37.5962ZM41.7553 115L39.1985 111.761L39.9144 111.062L43.0337 115H41.7553ZM44.1236 115V108.455H45.1293V115H44.1236ZM44.6349 107.364C44.4389 107.364 44.2699 107.297 44.1278 107.163C43.9886 107.03 43.919 106.869 43.919 106.682C43.919 106.494 43.9886 106.334 44.1278 106.2C44.2699 106.067 44.4389 106 44.6349 106C44.831 106 44.9986 106.067 45.1378 106.2C45.2798 106.334 45.3509 106.494 45.3509 106.682C45.3509 106.869 45.2798 107.03 45.1378 107.163C44.9986 107.297 44.831 107.364 44.6349 107.364ZM49.7156 115.136C49.0849 115.136 48.5408 114.997 48.0835 114.719C47.6289 114.438 47.2781 114.045 47.0309 113.543C46.7866 113.037 46.6644 112.449 46.6644 111.778C46.6644 111.108 46.7866 110.517 47.0309 110.006C47.2781 109.491 47.6218 109.091 48.0621 108.804C48.5053 108.514 49.0224 108.369 49.6133 108.369C49.9542 108.369 50.2908 108.426 50.6232 108.54C50.9556 108.653 51.2582 108.838 51.5309 109.094C51.8036 109.347 52.021 109.682 52.1829 110.099C52.3448 110.517 52.4258 111.031 52.4258 111.642V112.068H47.3803V111.199H51.4031C51.4031 110.83 51.3292 110.5 51.1815 110.21C51.0366 109.92 50.8292 109.692 50.5593 109.524C50.2923 109.357 49.9769 109.273 49.6133 109.273C49.2127 109.273 48.8661 109.372 48.5735 109.571C48.2837 109.767 48.0607 110.023 47.9045 110.338C47.7482 110.653 47.6701 110.991 47.6701 111.352V111.932C47.6701 112.426 47.7553 112.845 47.9258 113.189C48.0991 113.53 48.3391 113.79 48.646 113.969C48.9528 114.145 49.3093 114.233 49.7156 114.233C49.9798 114.233 50.2184 114.196 50.4315 114.122C50.6474 114.045 50.8335 113.932 50.9897 113.781C51.146 113.628 51.2667 113.437 51.3519 113.21L52.3235 113.483C52.2212 113.812 52.0494 114.102 51.8079 114.352C51.5664 114.599 51.2681 114.793 50.913 114.932C50.5579 115.068 50.1587 115.136 49.7156 115.136Z" fill="black"/>
<path d="M73.5 73H87.5M87.5 73L80.5 66M87.5 73L80.5 80" stroke="black" stroke-width="2" stroke-linecap="round" stroke-linejoin="round"/>
<rect x="104.75" y="51" width="44" height="44" rx="22" fill="#EF74E0"/>
<path d="M130.141 65.3901C130.267 65.5159 130.424 65.6059 130.596 65.6509C130.768 65.6958 130.949 65.6941 131.12 65.6458C131.291 65.5975 131.446 65.5044 131.569 65.3761C131.693 65.2479 131.779 65.0891 131.821 64.9161C131.925 64.484 132.142 64.0874 132.45 63.7671C132.758 63.4468 133.146 63.2144 133.573 63.0938C134.001 62.9733 134.453 62.9689 134.883 63.0812C135.313 63.1934 135.706 63.4183 136.02 63.7326C136.334 64.0469 136.559 64.4392 136.671 64.8692C136.783 65.2993 136.778 65.7514 136.658 66.1791C136.537 66.6068 136.304 66.9946 135.984 67.3025C135.664 67.6104 135.267 67.8274 134.835 67.9311C134.662 67.9725 134.503 68.0593 134.375 68.1825C134.247 68.3057 134.153 68.4609 134.105 68.6321C134.057 68.8033 134.055 68.9842 134.1 69.1563C134.145 69.3284 134.235 69.4854 134.361 69.6111L136.044 71.2931C136.268 71.5173 136.446 71.7834 136.567 72.0763C136.688 72.3691 136.751 72.6831 136.751 73.0001C136.751 73.3171 136.688 73.631 136.567 73.9239C136.446 74.2168 136.268 74.4829 136.044 74.7071L134.361 76.3901C134.235 76.5159 134.078 76.6059 133.906 76.6509C133.734 76.6958 133.553 76.6941 133.382 76.6458C133.211 76.5975 133.055 76.5044 132.932 76.3761C132.809 76.2479 132.722 76.0891 132.681 75.9161C132.577 75.484 132.36 75.0874 132.052 74.7671C131.744 74.4468 131.356 74.2144 130.928 74.0938C130.5 73.9733 130.048 73.9689 129.618 74.0812C129.188 74.1934 128.796 74.4183 128.482 74.7326C128.168 75.0469 127.943 75.4392 127.831 75.8692C127.719 76.2993 127.723 76.7514 127.844 77.1791C127.965 77.6068 128.197 77.9946 128.518 78.3025C128.838 78.6104 129.235 78.8274 129.667 78.9311C129.84 78.9725 129.999 79.0593 130.127 79.1825C130.255 79.3057 130.348 79.4609 130.397 79.6321C130.445 79.8033 130.447 79.9842 130.402 80.1563C130.357 80.3284 130.267 80.4854 130.141 80.6111L128.458 82.2931C128.234 82.5173 127.968 82.6951 127.675 82.8164C127.382 82.9377 127.068 83.0002 126.751 83.0002C126.434 83.0002 126.12 82.9377 125.827 82.8164C125.534 82.6951 125.268 82.5173 125.044 82.2931L123.361 80.6101C123.235 80.4843 123.078 80.3942 122.906 80.3493C122.734 80.3043 122.553 80.3061 122.382 80.3544C122.211 80.4027 122.055 80.4958 121.932 80.624C121.809 80.7523 121.722 80.9111 121.681 81.0841C121.577 81.5162 121.36 81.9128 121.052 82.2331C120.744 82.5534 120.356 82.7858 119.928 82.9064C119.5 83.0269 119.048 83.0313 118.618 82.919C118.188 82.8067 117.796 82.5819 117.482 82.2676C117.168 81.9533 116.943 81.561 116.831 81.1309C116.719 80.7009 116.723 80.2488 116.844 79.8211C116.965 79.3934 117.197 79.0056 117.518 78.6977C117.838 78.3897 118.235 78.1728 118.667 78.0691C118.84 78.0277 118.999 77.9409 119.127 77.8177C119.255 77.6945 119.348 77.5393 119.397 77.3681C119.445 77.1969 119.447 77.016 119.402 76.8439C119.357 76.6718 119.267 76.5148 119.141 76.3891L117.458 74.7071C117.234 74.4829 117.056 74.2168 116.935 73.9239C116.813 73.631 116.751 73.3171 116.751 73.0001C116.751 72.6831 116.813 72.3691 116.935 72.0763C117.056 71.7834 117.234 71.5173 117.458 71.2931L119.141 69.6101C119.267 69.4843 119.424 69.3942 119.596 69.3493C119.768 69.3043 119.949 69.3061 120.12 69.3544C120.291 69.4027 120.446 69.4958 120.569 69.624C120.693 69.7523 120.779 69.9111 120.821 70.0841C120.925 70.5162 121.142 70.9128 121.45 71.2331C121.758 71.5534 122.146 71.7858 122.573 71.9064C123.001 72.0269 123.453 72.0313 123.883 71.919C124.313 71.8067 124.706 71.5819 125.02 71.2676C125.334 70.9533 125.559 70.561 125.671 70.1309C125.783 69.7009 125.778 69.2488 125.658 68.8211C125.537 68.3934 125.304 68.0056 124.984 67.6977C124.664 67.3897 124.267 67.1727 123.835 67.0691C123.662 67.0277 123.503 66.9409 123.375 66.8177C123.247 66.6945 123.153 66.5393 123.105 66.3681C123.057 66.1969 123.055 66.016 123.1 65.8439C123.145 65.6718 123.235 65.5148 123.361 65.3891L125.044 63.7071C125.268 63.4829 125.534 63.3051 125.827 63.1838C126.12 63.0624 126.434 63 126.751 63C127.068 63 127.382 63.0624 127.675 63.1838C127.968 63.3051 128.234 63.4829 128.458 63.7071L130.141 65.3901Z" stroke="black" stroke-width="2" stroke-linecap="round" stroke-linejoin="round"/>
<path d="M99.6648 115H98.5568L101.761 106.273H102.852L106.057 115H104.949L102.341 107.653H102.273L99.6648 115ZM100.074 111.591H104.54V112.528H100.074V111.591ZM109.751 115.136C109.206 115.136 108.724 114.999 108.307 114.723C107.889 114.445 107.563 114.053 107.327 113.547C107.091 113.038 106.973 112.438 106.973 111.744C106.973 111.057 107.091 110.46 107.327 109.955C107.563 109.449 107.891 109.058 108.311 108.783C108.732 108.507 109.217 108.369 109.768 108.369C110.195 108.369 110.531 108.44 110.778 108.582C111.028 108.722 111.219 108.881 111.349 109.06C111.483 109.236 111.587 109.381 111.661 109.494H111.746V106.273H112.751V115H111.78V113.994H111.661C111.587 114.114 111.482 114.264 111.345 114.446C111.209 114.625 111.014 114.786 110.761 114.928C110.509 115.067 110.172 115.136 109.751 115.136ZM109.888 114.233C110.291 114.233 110.632 114.128 110.911 113.918C111.189 113.705 111.401 113.411 111.545 113.036C111.69 112.658 111.763 112.222 111.763 111.727C111.763 111.239 111.692 110.811 111.55 110.445C111.408 110.075 111.197 109.788 110.919 109.584C110.641 109.376 110.297 109.273 109.888 109.273C109.462 109.273 109.107 109.382 108.822 109.601C108.541 109.817 108.33 110.111 108.188 110.483C108.048 110.852 107.979 111.267 107.979 111.727C107.979 112.193 108.05 112.616 108.192 112.997C108.337 113.375 108.55 113.676 108.831 113.901C109.115 114.122 109.467 114.233 109.888 114.233ZM120.085 108.455L117.665 115H116.642L114.222 108.455H115.312L117.119 113.67H117.188L118.994 108.455H120.085ZM123.14 115.153C122.725 115.153 122.348 115.075 122.01 114.919C121.672 114.76 121.404 114.531 121.205 114.233C121.006 113.932 120.907 113.568 120.907 113.142C120.907 112.767 120.98 112.463 121.128 112.23C121.276 111.994 121.473 111.81 121.721 111.676C121.968 111.543 122.24 111.443 122.539 111.378C122.84 111.31 123.142 111.256 123.446 111.216C123.844 111.165 124.167 111.126 124.414 111.101C124.664 111.072 124.846 111.026 124.959 110.96C125.076 110.895 125.134 110.781 125.134 110.619V110.585C125.134 110.165 125.019 109.838 124.789 109.605C124.561 109.372 124.216 109.256 123.753 109.256C123.273 109.256 122.897 109.361 122.624 109.571C122.351 109.781 122.159 110.006 122.049 110.244L121.094 109.903C121.265 109.506 121.492 109.196 121.776 108.974C122.063 108.75 122.375 108.594 122.713 108.506C123.054 108.415 123.39 108.369 123.719 108.369C123.929 108.369 124.171 108.395 124.444 108.446C124.719 108.494 124.985 108.595 125.24 108.749C125.499 108.902 125.713 109.134 125.884 109.443C126.054 109.753 126.14 110.168 126.14 110.688V115H125.134V114.114H125.083C125.015 114.256 124.901 114.408 124.742 114.57C124.583 114.732 124.371 114.869 124.107 114.983C123.843 115.097 123.52 115.153 123.14 115.153ZM123.293 114.25C123.691 114.25 124.026 114.172 124.299 114.016C124.574 113.859 124.782 113.658 124.921 113.411C125.063 113.163 125.134 112.903 125.134 112.631V111.71C125.091 111.761 124.998 111.808 124.853 111.851C124.711 111.891 124.546 111.926 124.358 111.957C124.174 111.986 123.993 112.011 123.817 112.034C123.644 112.054 123.503 112.071 123.395 112.085C123.134 112.119 122.89 112.175 122.662 112.251C122.438 112.325 122.256 112.437 122.117 112.588C121.98 112.736 121.912 112.937 121.912 113.193C121.912 113.543 122.042 113.807 122.3 113.986C122.561 114.162 122.892 114.25 123.293 114.25ZM128.981 111.062V115H127.975V108.455H128.947V109.477H129.032C129.185 109.145 129.418 108.878 129.731 108.676C130.043 108.472 130.447 108.369 130.941 108.369C131.384 108.369 131.772 108.46 132.104 108.642C132.437 108.821 132.695 109.094 132.88 109.46C133.065 109.824 133.157 110.284 133.157 110.841V115H132.151V110.909C132.151 110.395 132.018 109.994 131.751 109.707C131.484 109.418 131.117 109.273 130.651 109.273C130.33 109.273 130.043 109.342 129.79 109.482C129.54 109.621 129.343 109.824 129.198 110.091C129.053 110.358 128.981 110.682 128.981 111.062ZM137.654 115.136C137.04 115.136 136.512 114.991 136.069 114.702C135.625 114.412 135.284 114.013 135.046 113.504C134.807 112.996 134.688 112.415 134.688 111.761C134.688 111.097 134.81 110.51 135.054 110.001C135.301 109.49 135.645 109.091 136.086 108.804C136.529 108.514 137.046 108.369 137.637 108.369C138.097 108.369 138.512 108.455 138.881 108.625C139.25 108.795 139.553 109.034 139.789 109.341C140.025 109.648 140.171 110.006 140.228 110.415H139.222C139.145 110.116 138.975 109.852 138.711 109.622C138.449 109.389 138.097 109.273 137.654 109.273C137.262 109.273 136.918 109.375 136.623 109.58C136.33 109.781 136.101 110.067 135.936 110.436C135.775 110.803 135.694 111.233 135.694 111.727C135.694 112.233 135.773 112.673 135.932 113.048C136.094 113.423 136.321 113.714 136.614 113.922C136.909 114.129 137.256 114.233 137.654 114.233C137.915 114.233 138.152 114.188 138.365 114.097C138.578 114.006 138.759 113.875 138.907 113.705C139.054 113.534 139.159 113.33 139.222 113.091H140.228C140.171 113.477 140.03 113.825 139.806 114.135C139.584 114.442 139.29 114.686 138.924 114.868C138.56 115.047 138.137 115.136 137.654 115.136ZM144.442 115.136C143.811 115.136 143.267 114.997 142.81 114.719C142.355 114.438 142.005 114.045 141.757 113.543C141.513 113.037 141.391 112.449 141.391 111.778C141.391 111.108 141.513 110.517 141.757 110.006C142.005 109.491 142.348 109.091 142.789 108.804C143.232 108.514 143.749 108.369 144.34 108.369C144.681 108.369 145.017 108.426 145.35 108.54C145.682 108.653 145.985 108.838 146.257 109.094C146.53 109.347 146.748 109.682 146.909 110.099C147.071 110.517 147.152 111.031 147.152 111.642V112.068H142.107V111.199H146.13C146.13 110.83 146.056 110.5 145.908 110.21C145.763 109.92 145.556 109.692 145.286 109.524C145.019 109.357 144.703 109.273 144.34 109.273C143.939 109.273 143.593 109.372 143.3 109.571C143.01 109.767 142.787 110.023 142.631 110.338C142.475 110.653 142.397 110.991 142.397 111.352V111.932C142.397 112.426 142.482 112.845 142.652 113.189C142.826 113.53 143.066 113.79 143.373 113.969C143.679 114.145 144.036 114.233 144.442 114.233C144.706 114.233 144.945 114.196 145.158 114.122C145.374 114.045 145.56 113.932 145.716 113.781C145.873 113.628 145.993 113.437 146.078 113.21L147.05 113.483C146.948 113.812 146.776 114.102 146.534 114.352C146.293 114.599 145.995 114.793 145.64 114.932C145.284 115.068 144.885 115.136 144.442 115.136ZM151.154 115.136C150.608 115.136 150.127 114.999 149.709 114.723C149.292 114.445 148.965 114.053 148.729 113.547C148.493 113.038 148.375 112.438 148.375 111.744C148.375 111.057 148.493 110.46 148.729 109.955C148.965 109.449 149.293 109.058 149.713 108.783C150.134 108.507 150.62 108.369 151.171 108.369C151.597 108.369 151.934 108.44 152.181 108.582C152.431 108.722 152.621 108.881 152.752 109.06C152.885 109.236 152.989 109.381 153.063 109.494H153.148V106.273H154.154V115H153.182V113.994H153.063C152.989 114.114 152.884 114.264 152.748 114.446C152.611 114.625 152.417 114.786 152.164 114.928C151.911 115.067 151.574 115.136 151.154 115.136ZM151.29 114.233C151.694 114.233 152.034 114.128 152.313 113.918C152.591 113.705 152.803 113.411 152.948 113.036C153.093 112.658 153.165 112.222 153.165 111.727C153.165 111.239 153.094 110.811 152.952 110.445C152.81 110.075 152.6 109.788 152.321 109.584C152.043 109.376 151.699 109.273 151.29 109.273C150.864 109.273 150.509 109.382 150.225 109.601C149.944 109.817 149.732 110.111 149.59 110.483C149.451 110.852 149.381 111.267 149.381 111.727C149.381 112.193 149.452 112.616 149.594 112.997C149.739 113.375 149.952 113.676 150.233 113.901C150.517 114.122 150.87 114.233 151.29 114.233Z" fill="black"/>
<path d="M166 73H180M180 73L173 66M180 73L173 80" stroke="black" stroke-width="2" stroke-linecap="round" stroke-linejoin="round"/>
<rect x="197.25" y="51" width="44" height="44" rx="22" fill="#EF74E0"/>
<path d="M214.25 79C213.72 79 213.211 79.2107 212.836 79.5858C212.461 79.9609 212.25 80.4696 212.25 81V82C212.25 82.2652 212.355 82.5196 212.543 82.7071C212.73 82.8946 212.985 83 213.25 83H225.25C225.515 83 225.77 82.8946 225.957 82.7071C226.145 82.5196 226.25 82.2652 226.25 82V81C226.25 80.4696 226.039 79.9609 225.664 79.5858C225.289 79.2107 224.78 79 224.25 79M214.25 79H224.25M214.25 79L215.25 70M224.25 79L223.25 70M217.25 63V65M221.25 63V65M223.25 70H215.25M223.25 70C223.78 70 224.289 69.7893 224.664 69.4142C225.039 69.0391 225.25 68.5304 225.25 68V63M213.25 63V68C213.25 68.5304 213.461 69.0391 213.836 69.4142C214.211 69.7893 214.72 70 215.25 70M213.25 65H225.25" stroke="black" stroke-width="2" stroke-linecap="round" stroke-linejoin="round"/>
<path d="M201.307 115V106.273H206.574V107.21H202.364V110.159H206.301V111.097H202.364V114.062H206.642V115H201.307ZM209.092 108.455L210.661 111.131L212.229 108.455H213.388L211.274 111.727L213.388 115H212.229L210.661 112.46L209.092 115H207.933L210.013 111.727L207.933 108.455H209.092ZM214.823 117.455V108.455H215.794V109.494H215.914C215.988 109.381 216.09 109.236 216.221 109.06C216.354 108.881 216.544 108.722 216.792 108.582C217.042 108.44 217.38 108.369 217.806 108.369C218.357 108.369 218.843 108.507 219.263 108.783C219.684 109.058 220.012 109.449 220.248 109.955C220.483 110.46 220.601 111.057 220.601 111.744C220.601 112.438 220.483 113.038 220.248 113.547C220.012 114.053 219.685 114.445 219.267 114.723C218.85 114.999 218.368 115.136 217.823 115.136C217.402 115.136 217.066 115.067 216.813 114.928C216.56 114.786 216.365 114.625 216.229 114.446C216.093 114.264 215.988 114.114 215.914 113.994H215.828V117.455H214.823ZM215.811 111.727C215.811 112.222 215.884 112.658 216.029 113.036C216.174 113.411 216.385 113.705 216.664 113.918C216.942 114.128 217.283 114.233 217.686 114.233C218.107 114.233 218.458 114.122 218.739 113.901C219.023 113.676 219.236 113.375 219.378 112.997C219.523 112.616 219.596 112.193 219.596 111.727C219.596 111.267 219.525 110.852 219.382 110.483C219.243 110.111 219.032 109.817 218.748 109.601C218.466 109.382 218.113 109.273 217.686 109.273C217.277 109.273 216.934 109.376 216.655 109.584C216.377 109.788 216.167 110.075 216.025 110.445C215.882 110.811 215.811 111.239 215.811 111.727ZM224.88 115.136C224.249 115.136 223.705 114.997 223.248 114.719C222.793 114.438 222.442 114.045 222.195 113.543C221.951 113.037 221.828 112.449 221.828 111.778C221.828 111.108 221.951 110.517 222.195 110.006C222.442 109.491 222.786 109.091 223.226 108.804C223.669 108.514 224.186 108.369 224.777 108.369C225.118 108.369 225.455 108.426 225.787 108.54C226.12 108.653 226.422 108.838 226.695 109.094C226.968 109.347 227.185 109.682 227.347 110.099C227.509 110.517 227.59 111.031 227.59 111.642V112.068H222.544V111.199H226.567C226.567 110.83 226.493 110.5 226.346 110.21C226.201 109.92 225.993 109.692 225.723 109.524C225.456 109.357 225.141 109.273 224.777 109.273C224.377 109.273 224.03 109.372 223.738 109.571C223.448 109.767 223.225 110.023 223.069 110.338C222.912 110.653 222.834 110.991 222.834 111.352V111.932C222.834 112.426 222.919 112.845 223.09 113.189C223.263 113.53 223.503 113.79 223.81 113.969C224.117 114.145 224.473 114.233 224.88 114.233C225.144 114.233 225.382 114.196 225.596 114.122C225.811 114.045 225.998 113.932 226.154 113.781C226.31 113.628 226.431 113.437 226.516 113.21L227.488 113.483C227.385 113.812 227.213 114.102 226.972 114.352C226.73 114.599 226.432 114.793 226.077 114.932C225.722 115.068 225.323 115.136 224.88 115.136ZM229.12 115V108.455H230.091V109.443H230.159C230.279 109.119 230.495 108.857 230.807 108.655C231.12 108.453 231.472 108.352 231.864 108.352C231.938 108.352 232.03 108.354 232.141 108.357C232.252 108.359 232.336 108.364 232.392 108.369V109.392C232.358 109.384 232.28 109.371 232.158 109.354C232.039 109.334 231.912 109.324 231.779 109.324C231.461 109.324 231.176 109.391 230.926 109.524C230.679 109.655 230.483 109.837 230.338 110.07C230.196 110.3 230.125 110.562 230.125 110.858V115H229.12ZM236.841 108.455V109.307H233.449V108.455H236.841ZM234.438 106.886H235.444V113.125C235.444 113.409 235.485 113.622 235.567 113.764C235.652 113.903 235.76 113.997 235.891 114.045C236.025 114.091 236.165 114.114 236.313 114.114C236.424 114.114 236.515 114.108 236.586 114.097C236.657 114.082 236.713 114.071 236.756 114.062L236.961 114.966C236.892 114.991 236.797 115.017 236.675 115.043C236.553 115.071 236.398 115.085 236.211 115.085C235.926 115.085 235.648 115.024 235.375 114.902C235.105 114.78 234.881 114.594 234.702 114.344C234.526 114.094 234.438 113.778 234.438 113.398V106.886Z" fill="black"/>
<path d="M258.5 73H272.5M272.5 73L265.5 66M272.5 73L265.5 80" stroke="black" stroke-width="2" stroke-linecap="round" stroke-linejoin="round"/>
<rect x="289.75" y="51" width="44" height="44" rx="22" fill="#EF74E0"/>
<path d="M311.275 63.2949C311.319 63.2064 311.386 63.1318 311.47 63.0797C311.554 63.0276 311.651 63 311.75 63C311.849 63 311.945 63.0276 312.029 63.0797C312.113 63.1318 312.181 63.2064 312.225 63.2949L314.535 67.9739C314.687 68.2819 314.912 68.5483 315.189 68.7503C315.467 68.9524 315.79 69.084 316.13 69.1339L321.296 69.8899C321.394 69.9041 321.486 69.9454 321.561 70.0091C321.637 70.0728 321.693 70.1564 321.724 70.2505C321.754 70.3446 321.758 70.4453 321.734 70.5413C321.711 70.6374 321.661 70.7248 321.59 70.7939L317.854 74.4319C317.607 74.672 317.423 74.9684 317.317 75.2955C317.21 75.6227 317.185 75.9708 317.243 76.3099L318.125 81.4499C318.142 81.5477 318.132 81.6485 318.094 81.7406C318.057 81.8327 317.995 81.9125 317.914 81.9709C317.834 82.0293 317.739 82.0639 317.64 82.0708C317.541 82.0777 317.442 82.0566 317.354 82.0099L312.736 79.5819C312.432 79.4221 312.093 79.3386 311.749 79.3386C311.406 79.3386 311.067 79.4221 310.763 79.5819L306.146 82.0099C306.058 82.0563 305.959 82.0772 305.86 82.0701C305.761 82.0631 305.666 82.0285 305.586 81.9701C305.506 81.9118 305.444 81.8321 305.407 81.7401C305.369 81.6482 305.359 81.5476 305.376 81.4499L306.257 76.3109C306.315 75.9716 306.29 75.6233 306.183 75.2959C306.077 74.9686 305.892 74.672 305.646 74.4319L301.91 70.7949C301.838 70.7259 301.788 70.6383 301.764 70.542C301.74 70.4456 301.743 70.3445 301.774 70.2501C301.805 70.1557 301.861 70.0717 301.937 70.0079C302.013 69.944 302.106 69.9028 302.204 69.8889L307.369 69.1339C307.709 69.0844 308.032 68.953 308.31 68.7509C308.589 68.5488 308.814 68.2822 308.966 67.9739L311.275 63.2949Z" stroke="black" stroke-width="2" stroke-linecap="round" stroke-linejoin="round"/>
<path d="M305.58 108.455C305.528 108.023 305.321 107.688 304.957 107.449C304.594 107.21 304.148 107.091 303.619 107.091C303.233 107.091 302.895 107.153 302.605 107.278C302.318 107.403 302.094 107.575 301.932 107.794C301.773 108.013 301.693 108.261 301.693 108.54C301.693 108.773 301.749 108.973 301.859 109.141C301.973 109.305 302.118 109.443 302.294 109.554C302.47 109.662 302.655 109.751 302.848 109.822C303.041 109.891 303.219 109.946 303.381 109.989L304.267 110.227C304.494 110.287 304.747 110.369 305.026 110.474C305.307 110.58 305.575 110.723 305.831 110.905C306.089 111.084 306.303 111.314 306.47 111.595C306.638 111.876 306.722 112.222 306.722 112.631C306.722 113.102 306.598 113.528 306.351 113.909C306.107 114.29 305.749 114.592 305.277 114.817C304.808 115.041 304.239 115.153 303.568 115.153C302.943 115.153 302.402 115.053 301.945 114.851C301.49 114.649 301.132 114.368 300.871 114.007C300.612 113.646 300.466 113.227 300.432 112.75H301.523C301.551 113.08 301.662 113.352 301.855 113.568C302.051 113.781 302.298 113.94 302.597 114.045C302.898 114.148 303.222 114.199 303.568 114.199C303.972 114.199 304.334 114.134 304.655 114.003C304.976 113.869 305.23 113.685 305.418 113.449C305.605 113.21 305.699 112.932 305.699 112.614C305.699 112.324 305.618 112.088 305.456 111.906C305.294 111.724 305.081 111.577 304.817 111.463C304.553 111.349 304.267 111.25 303.96 111.165L302.886 110.858C302.205 110.662 301.665 110.382 301.267 110.018C300.869 109.655 300.67 109.179 300.67 108.591C300.67 108.102 300.803 107.676 301.067 107.312C301.334 106.946 301.692 106.662 302.141 106.46C302.592 106.256 303.097 106.153 303.653 106.153C304.216 106.153 304.716 106.254 305.153 106.456C305.591 106.655 305.938 106.928 306.193 107.274C306.452 107.621 306.588 108.014 306.602 108.455H305.58ZM311.169 108.455V109.307H307.777V108.455H311.169ZM308.766 106.886H309.772V113.125C309.772 113.409 309.813 113.622 309.895 113.764C309.98 113.903 310.088 113.997 310.219 114.045C310.353 114.091 310.493 114.114 310.641 114.114C310.752 114.114 310.843 114.108 310.914 114.097C310.985 114.082 311.042 114.071 311.084 114.062L311.289 114.966C311.221 114.991 311.125 115.017 311.003 115.043C310.881 115.071 310.726 115.085 310.539 115.085C310.255 115.085 309.976 115.024 309.703 114.902C309.434 114.78 309.209 114.594 309.03 114.344C308.854 114.094 308.766 113.778 308.766 113.398V106.886ZM314.608 115.153C314.194 115.153 313.817 115.075 313.479 114.919C313.141 114.76 312.873 114.531 312.674 114.233C312.475 113.932 312.375 113.568 312.375 113.142C312.375 112.767 312.449 112.463 312.597 112.23C312.745 111.994 312.942 111.81 313.189 111.676C313.436 111.543 313.709 111.443 314.007 111.378C314.309 111.31 314.611 111.256 314.915 111.216C315.313 111.165 315.635 111.126 315.882 111.101C316.132 111.072 316.314 111.026 316.428 110.96C316.544 110.895 316.603 110.781 316.603 110.619V110.585C316.603 110.165 316.488 109.838 316.257 109.605C316.03 109.372 315.685 109.256 315.222 109.256C314.742 109.256 314.365 109.361 314.093 109.571C313.82 109.781 313.628 110.006 313.517 110.244L312.563 109.903C312.733 109.506 312.961 109.196 313.245 108.974C313.532 108.75 313.844 108.594 314.182 108.506C314.523 108.415 314.858 108.369 315.188 108.369C315.398 108.369 315.64 108.395 315.912 108.446C316.188 108.494 316.453 108.595 316.709 108.749C316.968 108.902 317.182 109.134 317.353 109.443C317.523 109.753 317.608 110.168 317.608 110.688V115H316.603V114.114H316.551C316.483 114.256 316.37 114.408 316.211 114.57C316.051 114.732 315.84 114.869 315.576 114.983C315.311 115.097 314.989 115.153 314.608 115.153ZM314.762 114.25C315.159 114.25 315.495 114.172 315.767 114.016C316.043 113.859 316.25 113.658 316.39 113.411C316.532 113.163 316.603 112.903 316.603 112.631V111.71C316.56 111.761 316.466 111.808 316.321 111.851C316.179 111.891 316.015 111.926 315.827 111.957C315.642 111.986 315.462 112.011 315.286 112.034C315.113 112.054 314.972 112.071 314.864 112.085C314.603 112.119 314.358 112.175 314.131 112.251C313.907 112.325 313.725 112.437 313.586 112.588C313.449 112.736 313.381 112.937 313.381 113.193C313.381 113.543 313.51 113.807 313.769 113.986C314.03 114.162 314.361 114.25 314.762 114.25ZM319.444 115V108.455H320.415V109.443H320.484C320.603 109.119 320.819 108.857 321.131 108.655C321.444 108.453 321.796 108.352 322.188 108.352C322.262 108.352 322.354 108.354 322.465 108.357C322.576 108.359 322.66 108.364 322.717 108.369V109.392C322.683 109.384 322.604 109.371 322.482 109.354C322.363 109.334 322.237 109.324 322.103 109.324C321.785 109.324 321.501 109.391 321.251 109.524C321.004 109.655 320.808 109.837 320.663 110.07C320.521 110.3 320.45 110.562 320.45 110.858V115H319.444Z" fill="black"/>
</g>
<defs>
<clipPath id="clip0_5165_984">
<rect width="346" height="134" rx="8" fill="white"/>
</clipPath>
</defs>
</svg>
