<svg width="1800" height="1120" viewBox="0 0 1800 1120" fill="none" xmlns="http://www.w3.org/2000/svg">
<rect width="1800" height="1120" rx="58.4071" fill="url(#paint0_linear_5061_50)"/>
<rect width="200" height="224" transform="translate(1000)" fill="url(#paint1_linear_5061_50)"/>
<rect width="200" height="224" transform="translate(600 224)" fill="url(#paint2_linear_5061_50)"/>
<rect width="200" height="224" transform="translate(1600 224)" fill="url(#paint3_linear_5061_50)"/>
<rect width="200" height="224" transform="translate(200 448)" fill="url(#paint4_linear_5061_50)"/>
<rect width="200" height="224" transform="translate(800 448)" fill="url(#paint5_linear_5061_50)"/>
<rect width="200" height="224" transform="translate(1200 448)" fill="url(#paint6_linear_5061_50)"/>
<rect width="200" height="224" transform="translate(400 672)" fill="url(#paint7_linear_5061_50)"/>
<rect width="200" height="224" transform="translate(800 896)" fill="url(#paint8_linear_5061_50)"/>
<g clip-path="url(#clip0_5061_50)">
<path d="M189.432 139.477H171.705C171.023 135.689 169.754 132.356 167.898 129.477C166.042 126.598 163.769 124.155 161.08 122.148C158.39 120.14 155.379 118.625 152.045 117.602C148.75 116.58 145.246 116.068 141.534 116.068C134.83 116.068 128.826 117.754 123.523 121.125C118.258 124.496 114.091 129.439 111.023 135.955C107.992 142.47 106.477 150.424 106.477 159.818C106.477 169.288 107.992 177.28 111.023 183.795C114.091 190.311 118.277 195.235 123.58 198.568C128.883 201.902 134.848 203.568 141.477 203.568C145.152 203.568 148.636 203.076 151.932 202.091C155.265 201.068 158.277 199.572 160.966 197.602C163.655 195.633 165.928 193.227 167.784 190.386C169.678 187.508 170.985 184.212 171.705 180.5L189.432 180.557C188.485 186.277 186.648 191.542 183.92 196.352C181.231 201.125 177.765 205.254 173.523 208.739C169.318 212.186 164.508 214.856 159.091 216.75C153.674 218.644 147.765 219.591 141.364 219.591C131.288 219.591 122.311 217.205 114.432 212.432C106.553 207.621 100.341 200.746 95.7955 191.807C91.2879 182.867 89.0341 172.205 89.0341 159.818C89.0341 147.394 91.3068 136.731 95.8523 127.83C100.398 118.89 106.61 112.034 114.489 107.261C122.367 102.451 131.326 100.045 141.364 100.045C147.538 100.045 153.295 100.936 158.636 102.716C164.015 104.458 168.845 107.034 173.125 110.443C177.405 113.814 180.947 117.943 183.75 122.83C186.553 127.678 188.447 133.227 189.432 139.477ZM209.077 218V130.727H225.497V144.591H226.406C227.997 139.894 230.8 136.201 234.815 133.511C238.868 130.784 243.452 129.42 248.565 129.42C249.626 129.42 250.876 129.458 252.315 129.534C253.793 129.61 254.948 129.705 255.781 129.818V146.068C255.099 145.879 253.887 145.67 252.145 145.443C250.402 145.178 248.66 145.045 246.918 145.045C242.902 145.045 239.323 145.898 236.179 147.602C233.073 149.269 230.611 151.598 228.793 154.591C226.974 157.545 226.065 160.917 226.065 164.705V218H209.077ZM304.972 219.761C296.373 219.761 288.968 217.924 282.756 214.25C276.581 210.538 271.809 205.33 268.438 198.625C265.104 191.883 263.438 183.985 263.438 174.932C263.438 165.992 265.104 158.114 268.438 151.295C271.809 144.477 276.506 139.155 282.528 135.33C288.589 131.504 295.672 129.591 303.778 129.591C308.703 129.591 313.475 130.405 318.097 132.034C322.718 133.663 326.866 136.22 330.54 139.705C334.214 143.189 337.112 147.716 339.233 153.284C341.354 158.814 342.415 165.538 342.415 173.455V179.477H273.04V166.75H325.767C325.767 162.28 324.858 158.322 323.04 154.875C321.222 151.39 318.665 148.644 315.369 146.636C312.112 144.629 308.286 143.625 303.892 143.625C299.119 143.625 294.953 144.799 291.392 147.148C287.869 149.458 285.142 152.489 283.21 156.239C281.316 159.951 280.369 163.985 280.369 168.341V178.284C280.369 184.117 281.392 189.08 283.438 193.17C285.521 197.261 288.419 200.386 292.131 202.545C295.843 204.667 300.18 205.727 305.142 205.727C308.362 205.727 311.297 205.273 313.949 204.364C316.6 203.417 318.892 202.015 320.824 200.159C322.756 198.303 324.233 196.011 325.256 193.284L341.335 196.182C340.047 200.917 337.737 205.064 334.403 208.625C331.108 212.148 326.96 214.894 321.96 216.864C316.998 218.795 311.335 219.761 304.972 219.761ZM393.935 219.705C386.889 219.705 380.601 217.905 375.071 214.307C369.579 210.67 365.26 205.5 362.116 198.795C359.01 192.053 357.457 183.966 357.457 174.534C357.457 165.102 359.029 157.034 362.173 150.33C365.355 143.625 369.711 138.492 375.241 134.932C380.772 131.371 387.041 129.591 394.048 129.591C399.465 129.591 403.821 130.5 407.116 132.318C410.45 134.098 413.026 136.182 414.844 138.568C416.7 140.955 418.139 143.057 419.162 144.875H420.185V101.636H437.173V218H420.582V204.42H419.162C418.139 206.277 416.662 208.398 414.73 210.784C412.836 213.17 410.223 215.254 406.889 217.034C403.556 218.814 399.238 219.705 393.935 219.705ZM397.685 205.216C402.571 205.216 406.7 203.928 410.071 201.352C413.48 198.739 416.056 195.121 417.798 190.5C419.579 185.879 420.469 180.5 420.469 174.364C420.469 168.303 419.598 163 417.855 158.455C416.113 153.909 413.556 150.367 410.185 147.83C406.813 145.292 402.647 144.023 397.685 144.023C392.571 144.023 388.31 145.348 384.901 148C381.491 150.652 378.916 154.269 377.173 158.852C375.469 163.436 374.616 168.606 374.616 174.364C374.616 180.197 375.488 185.443 377.23 190.102C378.973 194.761 381.548 198.455 384.957 201.182C388.404 203.871 392.647 205.216 397.685 205.216ZM461.42 218V130.727H478.409V218H461.42ZM470 117.261C467.045 117.261 464.508 116.277 462.386 114.307C460.303 112.299 459.261 109.913 459.261 107.148C459.261 104.345 460.303 101.958 462.386 99.9886C464.508 97.9811 467.045 96.9773 470 96.9773C472.955 96.9773 475.473 97.9811 477.557 99.9886C479.678 101.958 480.739 104.345 480.739 107.148C480.739 109.913 479.678 112.299 477.557 114.307C475.473 116.277 472.955 117.261 470 117.261ZM542.003 130.727V144.364H494.332V130.727H542.003ZM507.116 109.818H524.105V192.375C524.105 195.67 524.598 198.152 525.582 199.818C526.567 201.447 527.836 202.564 529.389 203.17C530.98 203.739 532.704 204.023 534.56 204.023C535.923 204.023 537.116 203.928 538.139 203.739C539.162 203.549 539.957 203.398 540.526 203.284L543.594 217.318C542.609 217.697 541.207 218.076 539.389 218.455C537.571 218.871 535.298 219.098 532.571 219.136C528.101 219.212 523.935 218.417 520.071 216.75C516.207 215.083 513.082 212.508 510.696 209.023C508.31 205.538 507.116 201.163 507.116 195.898V109.818ZM604.503 218V101.636H647.116C655.374 101.636 662.211 103 667.628 105.727C673.045 108.417 677.098 112.072 679.787 116.693C682.476 121.277 683.821 126.447 683.821 132.205C683.821 137.053 682.931 141.144 681.151 144.477C679.37 147.773 676.984 150.424 673.991 152.432C671.037 154.402 667.779 155.841 664.219 156.75V157.886C668.082 158.076 671.851 159.326 675.526 161.636C679.238 163.909 682.306 167.148 684.73 171.352C687.154 175.557 688.366 180.67 688.366 186.693C688.366 192.64 686.965 197.981 684.162 202.716C681.397 207.413 677.116 211.144 671.321 213.909C665.526 216.636 658.12 218 649.105 218H604.503ZM622.06 202.943H647.401C655.81 202.943 661.832 201.314 665.469 198.057C669.105 194.799 670.923 190.727 670.923 185.841C670.923 182.167 669.995 178.795 668.139 175.727C666.283 172.659 663.632 170.216 660.185 168.398C656.776 166.58 652.723 165.67 648.026 165.67H622.06V202.943ZM622.06 151.977H645.582C649.522 151.977 653.063 151.22 656.207 149.705C659.389 148.189 661.908 146.068 663.764 143.341C665.658 140.576 666.605 137.318 666.605 133.568C666.605 128.758 664.92 124.723 661.548 121.466C658.177 118.208 653.007 116.58 646.037 116.58H622.06V151.977ZM763.111 181.807V130.727H780.156V218H763.452V202.886H762.543C760.535 207.545 757.315 211.428 752.884 214.534C748.49 217.602 743.016 219.136 736.463 219.136C730.857 219.136 725.895 217.905 721.577 215.443C717.296 212.943 713.925 209.25 711.463 204.364C709.039 199.477 707.827 193.436 707.827 186.239V130.727H724.815V184.193C724.815 190.14 726.463 194.875 729.759 198.398C733.054 201.92 737.334 203.682 742.599 203.682C745.781 203.682 748.944 202.886 752.088 201.295C755.27 199.705 757.902 197.299 759.986 194.08C762.107 190.86 763.149 186.769 763.111 181.807ZM802.983 218V130.727H819.972V218H802.983ZM811.562 117.261C808.608 117.261 806.07 116.277 803.949 114.307C801.866 112.299 800.824 109.913 800.824 107.148C800.824 104.345 801.866 101.958 803.949 99.9886C806.07 97.9811 808.608 96.9773 811.562 96.9773C814.517 96.9773 817.036 97.9811 819.119 99.9886C821.241 101.958 822.301 104.345 822.301 107.148C822.301 109.913 821.241 112.299 819.119 114.307C817.036 116.277 814.517 117.261 811.562 117.261ZM859.815 101.636V218H842.827V101.636H859.815ZM915.341 219.705C908.295 219.705 902.008 217.905 896.477 214.307C890.985 210.67 886.667 205.5 883.523 198.795C880.417 192.053 878.864 183.966 878.864 174.534C878.864 165.102 880.436 157.034 883.58 150.33C886.761 143.625 891.117 138.492 896.648 134.932C902.178 131.371 908.447 129.591 915.455 129.591C920.871 129.591 925.227 130.5 928.523 132.318C931.856 134.098 934.432 136.182 936.25 138.568C938.106 140.955 939.545 143.057 940.568 144.875H941.591V101.636H958.58V218H941.989V204.42H940.568C939.545 206.277 938.068 208.398 936.136 210.784C934.242 213.17 931.629 215.254 928.295 217.034C924.962 218.814 920.644 219.705 915.341 219.705ZM919.091 205.216C923.977 205.216 928.106 203.928 931.477 201.352C934.886 198.739 937.462 195.121 939.205 190.5C940.985 185.879 941.875 180.5 941.875 174.364C941.875 168.303 941.004 163 939.261 158.455C937.519 153.909 934.962 150.367 931.591 147.83C928.22 145.292 924.053 144.023 919.091 144.023C913.977 144.023 909.716 145.348 906.307 148C902.898 150.652 900.322 154.269 898.58 158.852C896.875 163.436 896.023 168.606 896.023 174.364C896.023 180.197 896.894 185.443 898.636 190.102C900.379 194.761 902.955 198.455 906.364 201.182C909.811 203.871 914.053 205.216 919.091 205.216ZM1020.44 219.761C1011.84 219.761 1004.44 217.924 998.224 214.25C992.05 210.538 987.277 205.33 983.906 198.625C980.573 191.883 978.906 183.985 978.906 174.932C978.906 165.992 980.573 158.114 983.906 151.295C987.277 144.477 991.974 139.155 997.997 135.33C1004.06 131.504 1011.14 129.591 1019.25 129.591C1024.17 129.591 1028.94 130.405 1033.57 132.034C1038.19 133.663 1042.33 136.22 1046.01 139.705C1049.68 143.189 1052.58 147.716 1054.7 153.284C1056.82 158.814 1057.88 165.538 1057.88 173.455V179.477H988.509V166.75H1041.24C1041.24 162.28 1040.33 158.322 1038.51 154.875C1036.69 151.39 1034.13 148.644 1030.84 146.636C1027.58 144.629 1023.75 143.625 1019.36 143.625C1014.59 143.625 1010.42 144.799 1006.86 147.148C1003.34 149.458 1000.61 152.489 998.679 156.239C996.785 159.951 995.838 163.985 995.838 168.341V178.284C995.838 184.117 996.861 189.08 998.906 193.17C1000.99 197.261 1003.89 200.386 1007.6 202.545C1011.31 204.667 1015.65 205.727 1020.61 205.727C1023.83 205.727 1026.77 205.273 1029.42 204.364C1032.07 203.417 1034.36 202.015 1036.29 200.159C1038.22 198.303 1039.7 196.011 1040.72 193.284L1056.8 196.182C1055.52 200.917 1053.21 205.064 1049.87 208.625C1046.58 212.148 1042.43 214.894 1037.43 216.864C1032.47 218.795 1026.8 219.761 1020.44 219.761ZM1076.73 218V130.727H1093.15V144.591H1094.06C1095.65 139.894 1098.46 136.201 1102.47 133.511C1106.52 130.784 1111.11 129.42 1116.22 129.42C1117.28 129.42 1118.53 129.458 1119.97 129.534C1121.45 129.61 1122.6 129.705 1123.44 129.818V146.068C1122.76 145.879 1121.54 145.67 1119.8 145.443C1118.06 145.178 1116.32 145.045 1114.57 145.045C1110.56 145.045 1106.98 145.898 1103.84 147.602C1100.73 149.269 1098.27 151.598 1096.45 154.591C1094.63 157.545 1093.72 160.917 1093.72 164.705V218H1076.73Z" fill="black"/>
<path d="M1240.33 153.333L1206.99 120L1173.66 153.333M1240.33 200L1206.99 166.667L1173.66 200" stroke="black" stroke-width="16" stroke-linecap="square" stroke-linejoin="round"/>
</g>
<path d="M102.4 1003.48C100.119 1003.48 98.0354 1002.93 96.1498 1001.81C94.2643 1000.68 92.7558 999.174 91.6245 997.288C90.512 995.403 89.9558 993.319 89.9558 991.038C89.9558 988.737 90.512 986.654 91.6245 984.787C92.7558 982.902 94.2643 981.403 96.1498 980.29C98.0354 979.159 100.119 978.593 102.4 978.593C104.701 978.593 106.784 979.159 108.651 980.29C110.537 981.403 112.036 982.902 113.148 984.787C114.279 986.654 114.845 988.737 114.845 991.038C114.845 993.319 114.279 995.403 113.148 997.288C112.036 999.174 110.537 1000.68 108.651 1001.81C106.784 1002.93 104.701 1003.48 102.4 1003.48ZM151.98 1003.48C149.699 1003.48 147.615 1002.93 145.729 1001.81C143.844 1000.68 142.335 999.174 141.204 997.288C140.092 995.403 139.535 993.319 139.535 991.038C139.535 988.737 140.092 986.654 141.204 984.787C142.335 982.902 143.844 981.403 145.729 980.29C147.615 979.159 149.699 978.593 151.98 978.593C154.28 978.593 156.364 979.159 158.231 980.29C160.116 981.403 161.615 982.902 162.728 984.787C163.859 986.654 164.425 988.737 164.425 991.038C164.425 993.319 163.859 995.403 162.728 997.288C161.615 999.174 160.116 1000.68 158.231 1001.81C156.364 1002.93 154.28 1003.48 151.98 1003.48ZM201.56 1003.48C199.278 1003.48 197.195 1002.93 195.309 1001.81C193.424 1000.68 191.915 999.174 190.784 997.288C189.671 995.403 189.115 993.319 189.115 991.038C189.115 988.737 189.671 986.654 190.784 984.787C191.915 982.902 193.424 981.403 195.309 980.29C197.195 979.159 199.278 978.593 201.56 978.593C203.86 978.593 205.944 979.159 207.81 980.29C209.696 981.403 211.195 982.902 212.307 984.787C213.439 986.654 214.004 988.737 214.004 991.038C214.004 993.319 213.439 995.403 212.307 997.288C211.195 999.174 209.696 1000.68 207.81 1001.81C205.944 1002.93 203.86 1003.48 201.56 1003.48ZM251.139 1003.48C248.858 1003.48 246.774 1002.93 244.889 1001.81C243.003 1000.68 241.495 999.174 240.363 997.288C239.251 995.403 238.695 993.319 238.695 991.038C238.695 988.737 239.251 986.654 240.363 984.787C241.495 982.902 243.003 981.403 244.889 980.29C246.774 979.159 248.858 978.593 251.139 978.593C253.44 978.593 255.523 979.159 257.39 980.29C259.276 981.403 260.775 982.902 261.887 984.787C263.018 986.654 263.584 988.737 263.584 991.038C263.584 993.319 263.018 995.403 261.887 997.288C260.775 999.174 259.276 1000.68 257.39 1001.81C255.523 1002.93 253.44 1003.48 251.139 1003.48ZM302.416 1020.79C299.097 1020.79 296.109 1020.13 293.45 1018.81C290.792 1017.49 288.661 1015.68 287.058 1013.38C285.455 1011.08 284.579 1008.46 284.428 1005.52H291.216C291.48 1008.14 292.668 1010.31 294.78 1012.02C296.91 1013.72 299.456 1014.57 302.416 1014.57C304.792 1014.57 306.904 1014.01 308.751 1012.9C310.618 1011.79 312.08 1010.26 313.135 1008.32C314.21 1006.36 314.748 1004.14 314.748 1001.67C314.748 999.146 314.191 996.892 313.079 994.913C311.985 992.914 310.477 991.34 308.554 990.189C306.63 989.039 304.434 988.455 301.963 988.436C300.191 988.417 298.371 988.69 296.505 989.256C294.638 989.803 293.101 990.51 291.895 991.377L285.333 990.585L288.84 962.076H318.934V968.298H294.723L292.687 985.381H293.026C294.214 984.438 295.703 983.656 297.495 983.034C299.286 982.411 301.153 982.1 303.095 982.1C306.64 982.1 309.798 982.949 312.57 984.646C315.36 986.324 317.548 988.624 319.131 991.547C320.734 994.47 321.536 997.807 321.536 1001.56C321.536 1005.25 320.706 1008.55 319.047 1011.46C317.406 1014.34 315.144 1016.62 312.259 1018.3C309.374 1019.96 306.093 1020.79 302.416 1020.79ZM356.783 1020.79C354.407 1020.75 352.031 1020.3 349.655 1019.43C347.279 1018.57 345.111 1017.11 343.15 1015.05C341.189 1012.98 339.615 1010.18 338.427 1006.65C337.239 1003.11 336.645 998.655 336.645 993.3C336.645 988.172 337.126 983.628 338.087 979.668C339.049 975.689 340.444 972.342 342.273 969.627C344.102 966.893 346.308 964.819 348.892 963.405C351.494 961.991 354.426 961.284 357.688 961.284C360.931 961.284 363.816 961.934 366.342 963.235C368.888 964.517 370.962 966.309 372.565 968.609C374.167 970.909 375.205 973.559 375.676 976.557H368.775C368.134 973.955 366.889 971.796 365.041 970.08C363.194 968.364 360.742 967.506 357.688 967.506C353.2 967.506 349.665 969.458 347.081 973.361C344.517 977.264 343.225 982.741 343.207 989.793H343.659C344.715 988.191 345.969 986.824 347.421 985.692C348.892 984.542 350.513 983.656 352.286 983.034C354.058 982.411 355.934 982.1 357.914 982.1C361.233 982.1 364.268 982.93 367.021 984.589C369.774 986.23 371.98 988.502 373.64 991.405C375.299 994.29 376.128 997.6 376.128 1001.33C376.128 1004.92 375.327 1008.2 373.724 1011.18C372.122 1014.14 369.868 1016.49 366.965 1018.25C364.08 1019.98 360.686 1020.83 356.783 1020.79ZM356.783 1014.57C359.158 1014.57 361.289 1013.98 363.175 1012.79C365.079 1011.6 366.578 1010.01 367.672 1008.01C368.784 1006.01 369.34 1003.78 369.34 1001.33C369.34 998.938 368.803 996.76 367.728 994.8C366.672 992.82 365.211 991.245 363.344 990.076C361.497 988.907 359.385 988.323 357.009 988.323C355.218 988.323 353.549 988.681 352.003 989.397C350.457 990.095 349.099 991.057 347.93 992.282C346.78 993.508 345.875 994.913 345.215 996.497C344.555 998.062 344.225 999.711 344.225 1001.45C344.225 1003.75 344.762 1005.9 345.837 1007.89C346.931 1009.89 348.42 1011.51 350.306 1012.73C352.21 1013.96 354.369 1014.57 356.783 1014.57ZM393.84 1020L419.747 968.751V968.298H389.88V962.076H426.988V968.637L401.193 1020H393.84ZM459.697 1020.79C455.812 1020.79 452.381 1020.1 449.401 1018.73C446.441 1017.33 444.131 1015.42 442.472 1012.99C440.813 1010.53 439.992 1007.74 440.011 1004.61C439.992 1002.16 440.473 999.9 441.454 997.826C442.434 995.733 443.773 993.989 445.47 992.593C447.186 991.179 449.1 990.284 451.212 989.906V989.567C448.44 988.851 446.234 987.295 444.593 984.9C442.953 982.487 442.142 979.743 442.161 976.67C442.142 973.728 442.887 971.098 444.395 968.779C445.904 966.46 447.978 964.631 450.618 963.292C453.276 961.953 456.303 961.284 459.697 961.284C463.053 961.284 466.051 961.953 468.691 963.292C471.33 964.631 473.405 966.46 474.913 968.779C476.44 971.098 477.213 973.728 477.232 976.67C477.213 979.743 476.374 982.487 474.715 984.9C473.075 987.295 470.897 988.851 468.182 989.567V989.906C470.275 990.284 472.16 991.179 473.838 992.593C475.516 993.989 476.855 995.733 477.854 997.826C478.854 999.9 479.363 1002.16 479.382 1004.61C479.363 1007.74 478.514 1010.53 476.836 1012.99C475.177 1015.42 472.867 1017.33 469.907 1018.73C466.965 1020.1 463.562 1020.79 459.697 1020.79ZM459.697 1014.57C462.317 1014.57 464.58 1014.15 466.485 1013.3C468.389 1012.45 469.86 1011.25 470.897 1009.7C471.934 1008.16 472.462 1006.35 472.481 1004.27C472.462 1002.09 471.896 1000.15 470.784 998.476C469.671 996.798 468.153 995.478 466.23 994.517C464.326 993.555 462.148 993.074 459.697 993.074C457.226 993.074 455.02 993.555 453.078 994.517C451.155 995.478 449.637 996.798 448.525 998.476C447.431 1000.15 446.894 1002.09 446.912 1004.27C446.894 1006.35 447.393 1008.16 448.411 1009.7C449.449 1011.25 450.929 1012.45 452.852 1013.3C454.775 1014.15 457.057 1014.57 459.697 1014.57ZM459.697 987.078C461.771 987.078 463.609 986.663 465.212 985.834C466.833 985.004 468.106 983.844 469.03 982.355C469.954 980.865 470.425 979.121 470.444 977.122C470.425 975.161 469.963 973.455 469.058 972.003C468.153 970.532 466.899 969.401 465.297 968.609C463.694 967.798 461.827 967.393 459.697 967.393C457.528 967.393 455.633 967.798 454.012 968.609C452.39 969.401 451.136 970.532 450.25 972.003C449.364 973.455 448.93 975.161 448.949 977.122C448.93 979.121 449.373 980.865 450.278 982.355C451.202 983.844 452.475 985.004 454.096 985.834C455.718 986.663 457.585 987.078 459.697 987.078Z" fill="black"/>
<path d="M1325.61 924.14L1345.94 801.691H1396.52C1405.69 801.691 1413.33 803.465 1419.42 807.012C1425.52 810.56 1429.85 815.522 1432.4 821.9C1434.95 828.277 1435.53 835.671 1434.13 844.082C1432.78 852.572 1429.73 859.966 1424.98 866.264C1420.28 872.561 1414.22 877.444 1406.81 880.912C1399.39 884.38 1390.96 886.114 1381.52 886.114H1350.37L1354.25 862.796H1379.96C1384.47 862.796 1388.35 862.019 1391.62 860.464C1394.93 858.91 1397.58 856.737 1399.57 853.947C1401.57 851.157 1402.88 847.868 1403.52 844.082C1404.12 840.295 1403.88 837.027 1402.8 834.276C1401.73 831.486 1399.79 829.334 1397 827.819C1394.25 826.304 1390.67 825.547 1386.24 825.547H1371.65L1355.21 924.14H1325.61ZM1485.21 801.691L1464.88 924.14H1435.28L1455.61 801.691H1485.21ZM1563.76 838.641C1564.07 834.137 1562.88 830.649 1560.17 828.178C1557.5 825.707 1553.27 824.471 1547.49 824.471C1543.67 824.471 1540.4 824.969 1537.69 825.966C1534.98 826.922 1532.84 828.277 1531.29 830.031C1529.74 831.745 1528.76 833.738 1528.36 836.01C1528 837.804 1528.1 839.398 1528.66 840.793C1529.22 842.188 1530.19 843.424 1531.59 844.5C1533.02 845.576 1534.8 846.513 1536.91 847.31C1539.06 848.108 1541.47 848.805 1544.14 849.403L1554.19 851.795C1560.01 853.11 1565.05 854.864 1569.32 857.056C1573.62 859.208 1577.11 861.819 1579.78 864.888C1582.45 867.918 1584.28 871.405 1585.28 875.352C1586.28 879.298 1586.36 883.722 1585.52 888.625C1584.24 896.358 1581.19 902.994 1576.37 908.535C1571.59 914.075 1565.33 918.32 1557.6 921.27C1549.9 924.219 1540.96 925.694 1530.75 925.694C1520.55 925.694 1511.88 924.16 1504.74 921.09C1497.65 917.981 1492.51 913.298 1489.32 907.04C1486.13 900.782 1485.27 892.89 1486.75 883.363H1515.03C1514.59 887.309 1515.09 890.598 1516.52 893.229C1518 895.859 1520.27 897.852 1523.34 899.208C1526.41 900.563 1530.11 901.24 1534.46 901.24C1538.44 901.24 1541.93 900.702 1544.92 899.626C1547.95 898.55 1550.36 897.055 1552.16 895.142C1553.99 893.229 1555.11 891.036 1555.5 888.565C1555.9 886.293 1555.52 884.32 1554.37 882.646C1553.25 880.972 1551.34 879.517 1548.63 878.281C1545.96 877.046 1542.45 875.93 1538.11 874.933L1525.85 871.944C1515.72 869.472 1508.05 865.526 1502.83 860.105C1497.65 854.684 1495.81 847.33 1497.33 838.043C1498.6 830.43 1501.75 823.773 1506.78 818.073C1511.84 812.373 1518.24 807.949 1525.97 804.8C1533.74 801.611 1542.29 800.017 1551.62 800.017C1561.1 800.017 1569.08 801.631 1575.53 804.86C1582.03 808.049 1586.71 812.553 1589.58 818.372C1592.49 824.152 1593.33 830.908 1592.1 838.641H1563.76ZM1617.31 924.14H1585.5L1647.15 801.691H1686.55L1707.53 924.14H1675.73L1662.27 832.542H1661.32L1617.31 924.14ZM1621.14 875.949H1687.62L1683.8 898.43H1617.31L1621.14 875.949Z" fill="black"/>
<path d="M1586.12 992.898H1580.8C1580.48 991.366 1579.93 990.02 1579.14 988.86C1578.37 987.7 1577.42 986.726 1576.31 985.939C1575.21 985.137 1573.98 984.535 1572.64 984.134C1571.29 983.733 1569.89 983.533 1568.43 983.533C1565.76 983.533 1563.35 984.206 1561.19 985.552C1559.04 986.898 1557.33 988.881 1556.05 991.502C1554.79 994.122 1554.16 997.337 1554.16 1001.15C1554.16 1004.95 1554.79 1008.17 1556.05 1010.79C1557.33 1013.41 1559.04 1015.39 1561.19 1016.74C1563.35 1018.08 1565.76 1018.76 1568.43 1018.76C1569.89 1018.76 1571.29 1018.56 1572.64 1018.16C1573.98 1017.76 1575.21 1017.16 1576.31 1016.37C1577.42 1015.57 1578.37 1014.59 1579.14 1013.43C1579.93 1012.26 1580.48 1010.91 1580.8 1009.39H1586.12C1585.72 1011.64 1584.99 1013.65 1583.93 1015.43C1582.87 1017.2 1581.56 1018.72 1579.98 1019.96C1578.41 1021.19 1576.64 1022.13 1574.68 1022.77C1572.73 1023.42 1570.64 1023.74 1568.43 1023.74C1564.67 1023.74 1561.34 1022.82 1558.42 1020.99C1555.5 1019.16 1553.2 1016.55 1551.52 1013.17C1549.85 1009.79 1549.01 1005.78 1549.01 1001.15C1549.01 996.506 1549.85 992.497 1551.52 989.117C1553.2 985.738 1555.5 983.132 1558.42 981.299C1561.34 979.466 1564.67 978.55 1568.43 978.55C1570.64 978.55 1572.73 978.872 1574.68 979.516C1576.64 980.161 1578.41 981.106 1579.98 982.352C1581.56 983.583 1582.87 985.087 1583.93 986.862C1584.99 988.623 1585.72 990.635 1586.12 992.898ZM1594.04 1023.14V990.148H1598.94V995.131H1599.28C1599.89 993.499 1600.97 992.175 1602.55 991.158C1604.12 990.141 1605.9 989.633 1607.88 989.633C1608.25 989.633 1608.71 989.64 1609.27 989.654C1609.83 989.669 1610.25 989.69 1610.54 989.719V994.874C1610.37 994.831 1609.97 994.766 1609.36 994.68C1608.76 994.58 1608.12 994.53 1607.45 994.53C1605.84 994.53 1604.41 994.867 1603.15 995.54C1601.91 996.198 1600.92 997.115 1600.19 998.289C1599.47 999.449 1599.11 1000.77 1599.11 1002.26V1023.14H1594.04ZM1629.38 1023.83C1626.2 1023.83 1623.46 1023.13 1621.15 1021.72C1618.86 1020.3 1617.09 1018.33 1615.84 1015.79C1614.61 1013.25 1614 1010.28 1614 1006.9C1614 1003.52 1614.61 1000.54 1615.84 997.967C1617.09 995.375 1618.82 993.356 1621.04 991.91C1623.28 990.449 1625.88 989.719 1628.86 989.719C1630.58 989.719 1632.28 990.005 1633.95 990.578C1635.63 991.151 1637.15 992.081 1638.53 993.37C1639.9 994.645 1641 996.334 1641.81 998.439C1642.63 1000.54 1643.04 1003.14 1643.04 1006.21V1008.36H1617.61V1003.98H1637.88C1637.88 1002.12 1637.51 1000.46 1636.77 998.998C1636.03 997.537 1634.99 996.384 1633.63 995.54C1632.28 994.695 1630.69 994.272 1628.86 994.272C1626.84 994.272 1625.09 994.773 1623.62 995.776C1622.16 996.764 1621.04 998.053 1620.25 999.642C1619.46 1001.23 1619.07 1002.94 1619.07 1004.75V1007.68C1619.07 1010.17 1619.5 1012.28 1620.36 1014.01C1621.23 1015.73 1622.44 1017.04 1623.99 1017.94C1625.53 1018.83 1627.33 1019.27 1629.38 1019.27C1630.71 1019.27 1631.91 1019.09 1632.98 1018.72C1634.07 1018.33 1635.01 1017.76 1635.8 1017C1636.59 1016.22 1637.19 1015.26 1637.62 1014.12L1642.52 1015.49C1642.01 1017.15 1641.14 1018.61 1639.92 1019.87C1638.71 1021.12 1637.2 1022.09 1635.41 1022.8C1633.62 1023.48 1631.61 1023.83 1629.38 1023.83ZM1663.21 1023.83C1660.46 1023.83 1658.03 1023.13 1655.92 1021.74C1653.82 1020.34 1652.17 1018.36 1650.98 1015.82C1649.8 1013.25 1649.2 1010.22 1649.2 1006.73C1649.2 1003.26 1649.8 1000.26 1650.98 997.709C1652.17 995.16 1653.83 993.191 1655.95 991.802C1658.06 990.413 1660.51 989.719 1663.29 989.719C1665.44 989.719 1667.14 990.077 1668.38 990.793C1669.64 991.494 1670.6 992.296 1671.26 993.198C1671.93 994.086 1672.46 994.816 1672.83 995.389H1673.26V979.151H1678.33V1023.14H1673.43V1018.07H1672.83C1672.46 1018.67 1671.93 1019.43 1671.24 1020.35C1670.55 1021.25 1669.57 1022.06 1668.3 1022.77C1667.02 1023.48 1665.32 1023.83 1663.21 1023.83ZM1663.89 1019.27C1665.93 1019.27 1667.64 1018.74 1669.05 1017.68C1670.45 1016.61 1671.52 1015.13 1672.25 1013.24C1672.98 1011.33 1673.34 1009.14 1673.34 1006.64C1673.34 1004.18 1672.99 1002.03 1672.27 1000.18C1671.55 998.317 1670.49 996.871 1669.09 995.84C1667.69 994.795 1665.95 994.272 1663.89 994.272C1661.74 994.272 1659.95 994.824 1658.52 995.926C1657.11 997.014 1656.04 998.496 1655.32 1000.37C1654.62 1002.23 1654.27 1004.32 1654.27 1006.64C1654.27 1008.99 1654.63 1011.13 1655.34 1013.04C1656.07 1014.95 1657.15 1016.47 1658.57 1017.6C1660 1018.72 1661.77 1019.27 1663.89 1019.27ZM1688.31 1023.14V990.148H1693.38V1023.14H1688.31ZM1690.89 984.65C1689.9 984.65 1689.05 984.313 1688.34 983.64C1687.63 982.967 1687.28 982.158 1687.28 981.213C1687.28 980.268 1687.63 979.459 1688.34 978.786C1689.05 978.113 1689.9 977.777 1690.89 977.777C1691.88 977.777 1692.72 978.113 1693.43 978.786C1694.14 979.459 1694.5 980.268 1694.5 981.213C1694.5 982.158 1694.14 982.967 1693.43 983.64C1692.72 984.313 1691.88 984.65 1690.89 984.65ZM1717.01 990.148V994.444H1699.92V990.148H1717.01ZM1704.9 982.244H1709.97V1013.69C1709.97 1015.12 1710.18 1016.19 1710.59 1016.91C1711.02 1017.61 1711.57 1018.08 1712.22 1018.33C1712.9 1018.56 1713.61 1018.67 1714.35 1018.67C1714.91 1018.67 1715.37 1018.64 1715.73 1018.59C1716.08 1018.51 1716.37 1018.46 1716.59 1018.41L1717.62 1022.97C1717.27 1023.1 1716.79 1023.23 1716.18 1023.35C1715.56 1023.5 1714.78 1023.57 1713.84 1023.57C1712.4 1023.57 1711 1023.26 1709.63 1022.65C1708.27 1022.03 1707.13 1021.09 1706.23 1019.83C1705.34 1018.57 1704.9 1016.98 1704.9 1015.06V982.244Z" fill="black"/>
<g opacity="0.1" style="mix-blend-mode:lighten">
<rect width="1800" height="1120" rx="60" fill="url(#paint9_radial_5061_50)"/>
</g>
<defs>
<linearGradient id="paint0_linear_5061_50" x1="0" y1="1120" x2="1800" y2="-9.92417e-05" gradientUnits="userSpaceOnUse">
<stop stop-color="#00AAFF"/>
<stop offset="1" stop-color="#FF40FF"/>
</linearGradient>
<linearGradient id="paint1_linear_5061_50" x1="345" y1="-50" x2="-245" y2="415" gradientUnits="userSpaceOnUse">
<stop stop-color="#00AAFF"/>
<stop offset="1" stop-color="#FF40FF"/>
</linearGradient>
<linearGradient id="paint2_linear_5061_50" x1="-95" y1="50.9998" x2="330" y2="181" gradientUnits="userSpaceOnUse">
<stop stop-color="#00AAFF"/>
<stop offset="1" stop-color="#FF40FF"/>
</linearGradient>
<linearGradient id="paint3_linear_5061_50" x1="465" y1="-224" x2="-3.04863e-06" y2="286" gradientUnits="userSpaceOnUse">
<stop stop-color="#00AAFF"/>
<stop offset="1" stop-color="#FF40FF"/>
</linearGradient>
<linearGradient id="paint4_linear_5061_50" x1="-190" y1="-229" x2="510" y2="276" gradientUnits="userSpaceOnUse">
<stop stop-color="#00AAFF"/>
<stop offset="1" stop-color="#FF40FF"/>
</linearGradient>
<linearGradient id="paint5_linear_5061_50" x1="200" y1="1.9995" x2="-95" y2="327" gradientUnits="userSpaceOnUse">
<stop stop-color="#00AAFF"/>
<stop offset="1" stop-color="#FF40FF"/>
</linearGradient>
<linearGradient id="paint6_linear_5061_50" x1="-75" y1="-46.9995" x2="100" y2="224" gradientUnits="userSpaceOnUse">
<stop stop-color="#00AAFF"/>
<stop offset="1" stop-color="#FF40FF"/>
</linearGradient>
<linearGradient id="paint7_linear_5061_50" x1="-80" y1="-61.9995" x2="100" y2="224" gradientUnits="userSpaceOnUse">
<stop stop-color="#00AAFF"/>
<stop offset="1" stop-color="#FF40FF"/>
</linearGradient>
<linearGradient id="paint8_linear_5061_50" x1="200" y1="-95.9998" x2="100" y2="224" gradientUnits="userSpaceOnUse">
<stop stop-color="#00AAFF"/>
<stop offset="1" stop-color="#FF40FF"/>
</linearGradient>
<radialGradient id="paint9_radial_5061_50" cx="0" cy="0" r="1" gradientTransform="matrix(-459.292 1751.32 -2814.62 -730.739 1837.17 -950.427)" gradientUnits="userSpaceOnUse">
<stop stop-color="white"/>
<stop offset="1" stop-color="white" stop-opacity="0"/>
</radialGradient>
<clipPath id="clip0_5061_50">
<rect width="1207" height="160" fill="white" transform="translate(80 80)"/>
</clipPath>
</defs>
</svg>
