<svg width="346" height="110" viewBox="0 0 346 110" fill="none" xmlns="http://www.w3.org/2000/svg">
<g clip-path="url(#clip0_5165_1012)">
<rect width="346" height="110" fill="white"/>
<path d="M26.7727 23H25.3636C25.2803 22.5947 25.1345 22.2386 24.9261 21.9318C24.7216 21.625 24.4716 21.3674 24.1761 21.1591C23.8845 20.947 23.5606 20.7879 23.2045 20.6818C22.8485 20.5758 22.4773 20.5227 22.0909 20.5227C21.3864 20.5227 20.7481 20.7008 20.1761 21.0568C19.608 21.4129 19.1553 21.9375 18.8182 22.6307C18.4848 23.3239 18.3182 24.1742 18.3182 25.1818C18.3182 26.1894 18.4848 27.0398 18.8182 27.733C19.1553 28.4261 19.608 28.9508 20.1761 29.3068C20.7481 29.6629 21.3864 29.8409 22.0909 29.8409C22.4773 29.8409 22.8485 29.7879 23.2045 29.6818C23.5606 29.5758 23.8845 29.4186 24.1761 29.2102C24.4716 28.9981 24.7216 28.7386 24.9261 28.4318C25.1345 28.1212 25.2803 27.7652 25.3636 27.3636H26.7727C26.6667 27.9583 26.4735 28.4905 26.1932 28.9602C25.9129 29.4299 25.5644 29.8295 25.1477 30.1591C24.7311 30.4848 24.2633 30.733 23.7443 30.9034C23.2292 31.0739 22.678 31.1591 22.0909 31.1591C21.0985 31.1591 20.2159 30.9167 19.4432 30.4318C18.6705 29.947 18.0625 29.2576 17.6193 28.3636C17.1761 27.4697 16.9545 26.4091 16.9545 25.1818C16.9545 23.9545 17.1761 22.8939 17.6193 22C18.0625 21.1061 18.6705 20.4167 19.4432 19.9318C20.2159 19.447 21.0985 19.2045 22.0909 19.2045C22.678 19.2045 23.2292 19.2898 23.7443 19.4602C24.2633 19.6307 24.7311 19.8807 25.1477 20.2102C25.5644 20.536 25.9129 20.9337 26.1932 21.4034C26.4735 21.8693 26.6667 22.4015 26.7727 23ZM34.3679 27.4318V22.2727H35.7088V31H34.3679V29.5227H34.277C34.0724 29.9659 33.7543 30.3428 33.3224 30.6534C32.8906 30.9602 32.3452 31.1136 31.6861 31.1136C31.1406 31.1136 30.6558 30.9943 30.2315 30.7557C29.8073 30.5133 29.474 30.1496 29.2315 29.6648C28.9891 29.1761 28.8679 28.5606 28.8679 27.8182V22.2727H30.2088V27.7273C30.2088 28.3636 30.3868 28.8712 30.7429 29.25C31.1027 29.6288 31.5611 29.8182 32.1179 29.8182C32.4512 29.8182 32.7902 29.733 33.1349 29.5625C33.4834 29.392 33.7751 29.1307 34.0099 28.7784C34.2486 28.4261 34.3679 27.9773 34.3679 27.4318ZM38.1648 31V22.2727H39.4602V23.5909H39.5511C39.7102 23.1591 39.9981 22.8087 40.4148 22.5398C40.8314 22.2708 41.3011 22.1364 41.8239 22.1364C41.9223 22.1364 42.0455 22.1383 42.1932 22.142C42.3409 22.1458 42.4527 22.1515 42.5284 22.1591V23.5227C42.483 23.5114 42.3788 23.4943 42.2159 23.4716C42.0568 23.4451 41.8883 23.4318 41.7102 23.4318C41.286 23.4318 40.9072 23.5208 40.5739 23.6989C40.2443 23.8731 39.983 24.1155 39.7898 24.4261C39.6004 24.733 39.5057 25.0833 39.5057 25.4773V31H38.1648ZM44.1179 31V22.2727H45.4134V23.5909H45.5043C45.6634 23.1591 45.9512 22.8087 46.3679 22.5398C46.7846 22.2708 47.2543 22.1364 47.777 22.1364C47.8755 22.1364 47.9986 22.1383 48.1463 22.142C48.294 22.1458 48.4058 22.1515 48.4815 22.1591V23.5227C48.4361 23.5114 48.3319 23.4943 48.169 23.4716C48.0099 23.4451 47.8414 23.4318 47.6634 23.4318C47.2391 23.4318 46.8603 23.5208 46.527 23.6989C46.1974 23.8731 45.9361 24.1155 45.7429 24.4261C45.5535 24.733 45.4588 25.0833 45.4588 25.4773V31H44.1179ZM53.4645 31.1818C52.6236 31.1818 51.8982 30.9962 51.2884 30.625C50.6823 30.25 50.2145 29.7273 49.8849 29.0568C49.5592 28.3826 49.3963 27.5985 49.3963 26.7045C49.3963 25.8106 49.5592 25.0227 49.8849 24.3409C50.2145 23.6553 50.6728 23.1212 51.2599 22.7386C51.8509 22.3523 52.5402 22.1591 53.3281 22.1591C53.7827 22.1591 54.2315 22.2348 54.6747 22.3864C55.1179 22.5379 55.5213 22.7841 55.8849 23.125C56.2486 23.4621 56.5384 23.9091 56.7543 24.4659C56.9702 25.0227 57.0781 25.7083 57.0781 26.5227V27.0909H50.3509V25.9318H55.7145C55.7145 25.4394 55.616 25 55.419 24.6136C55.2259 24.2273 54.9493 23.9223 54.5895 23.6989C54.2334 23.4754 53.813 23.3636 53.3281 23.3636C52.794 23.3636 52.3319 23.4962 51.9418 23.7614C51.5554 24.0227 51.258 24.3636 51.0497 24.7841C50.8414 25.2045 50.7372 25.6553 50.7372 26.1364V26.9091C50.7372 27.5682 50.8509 28.1269 51.0781 28.5852C51.3092 29.0398 51.6293 29.3864 52.0384 29.625C52.4474 29.8598 52.9228 29.9773 53.4645 29.9773C53.8168 29.9773 54.1349 29.928 54.419 29.8295C54.7069 29.7273 54.955 29.5758 55.1634 29.375C55.3717 29.1705 55.5327 28.9167 55.6463 28.6136L56.9418 28.9773C56.8054 29.4167 56.5762 29.803 56.2543 30.1364C55.9323 30.4659 55.5346 30.7235 55.0611 30.9091C54.5876 31.0909 54.0554 31.1818 53.4645 31.1818ZM60.4588 25.75V31H59.1179V22.2727H60.4134V23.6364H60.527C60.7315 23.1932 61.0421 22.8371 61.4588 22.5682C61.8755 22.2955 62.4134 22.1591 63.0724 22.1591C63.6634 22.1591 64.1804 22.2803 64.6236 22.5227C65.0668 22.7614 65.4115 23.125 65.6577 23.6136C65.9039 24.0985 66.027 24.7121 66.027 25.4545V31H64.6861V25.5455C64.6861 24.8598 64.508 24.3258 64.152 23.9432C63.7959 23.5568 63.3073 23.3636 62.6861 23.3636C62.258 23.3636 61.8755 23.4564 61.5384 23.642C61.205 23.8277 60.9418 24.0985 60.7486 24.4545C60.5554 24.8106 60.4588 25.2424 60.4588 25.75ZM72.2727 22.2727V23.4091H67.75V22.2727H72.2727ZM69.0682 20.1818H70.4091V28.5C70.4091 28.8788 70.464 29.1629 70.5739 29.3523C70.6875 29.5379 70.8314 29.6629 71.0057 29.7273C71.1837 29.7879 71.3712 29.8182 71.5682 29.8182C71.7159 29.8182 71.8371 29.8106 71.9318 29.7955C72.0265 29.7765 72.1023 29.7614 72.1591 29.75L72.4318 30.9545C72.3409 30.9886 72.214 31.0227 72.0511 31.0568C71.8883 31.0947 71.6818 31.1136 71.4318 31.1136C71.053 31.1136 70.6818 31.0322 70.3182 30.8693C69.9583 30.7064 69.6591 30.4583 69.4205 30.125C69.1856 29.7917 69.0682 29.3712 69.0682 28.8636V20.1818ZM88.3352 23H86.9261C86.8428 22.5947 86.697 22.2386 86.4886 21.9318C86.2841 21.625 86.0341 21.3674 85.7386 21.1591C85.447 20.947 85.1231 20.7879 84.767 20.6818C84.411 20.5758 84.0398 20.5227 83.6534 20.5227C82.9489 20.5227 82.3106 20.7008 81.7386 21.0568C81.1705 21.4129 80.7178 21.9375 80.3807 22.6307C80.0473 23.3239 79.8807 24.1742 79.8807 25.1818C79.8807 26.1894 80.0473 27.0398 80.3807 27.733C80.7178 28.4261 81.1705 28.9508 81.7386 29.3068C82.3106 29.6629 82.9489 29.8409 83.6534 29.8409C84.0398 29.8409 84.411 29.7879 84.767 29.6818C85.1231 29.5758 85.447 29.4186 85.7386 29.2102C86.0341 28.9981 86.2841 28.7386 86.4886 28.4318C86.697 28.1212 86.8428 27.7652 86.9261 27.3636H88.3352C88.2292 27.9583 88.036 28.4905 87.7557 28.9602C87.4754 29.4299 87.1269 29.8295 86.7102 30.1591C86.2936 30.4848 85.8258 30.733 85.3068 30.9034C84.7917 31.0739 84.2405 31.1591 83.6534 31.1591C82.661 31.1591 81.7784 30.9167 81.0057 30.4318C80.233 29.947 79.625 29.2576 79.1818 28.3636C78.7386 27.4697 78.517 26.4091 78.517 25.1818C78.517 23.9545 78.7386 22.8939 79.1818 22C79.625 21.1061 80.233 20.4167 81.0057 19.9318C81.7784 19.447 82.661 19.2045 83.6534 19.2045C84.2405 19.2045 84.7917 19.2898 85.3068 19.4602C85.8258 19.6307 86.2936 19.8807 86.7102 20.2102C87.1269 20.536 87.4754 20.9337 87.7557 21.4034C88.036 21.8693 88.2292 22.4015 88.3352 23ZM90.4304 31V22.2727H91.7259V23.5909H91.8168C91.9759 23.1591 92.2637 22.8087 92.6804 22.5398C93.0971 22.2708 93.5668 22.1364 94.0895 22.1364C94.188 22.1364 94.3111 22.1383 94.4588 22.142C94.6065 22.1458 94.7183 22.1515 94.794 22.1591V23.5227C94.7486 23.5114 94.6444 23.4943 94.4815 23.4716C94.3224 23.4451 94.1539 23.4318 93.9759 23.4318C93.5516 23.4318 93.1728 23.5208 92.8395 23.6989C92.5099 23.8731 92.2486 24.1155 92.0554 24.4261C91.866 24.733 91.7713 25.0833 91.7713 25.4773V31H90.4304ZM99.777 31.1818C98.9361 31.1818 98.2107 30.9962 97.6009 30.625C96.9948 30.25 96.527 29.7273 96.1974 29.0568C95.8717 28.3826 95.7088 27.5985 95.7088 26.7045C95.7088 25.8106 95.8717 25.0227 96.1974 24.3409C96.527 23.6553 96.9853 23.1212 97.5724 22.7386C98.1634 22.3523 98.8527 22.1591 99.6406 22.1591C100.095 22.1591 100.544 22.2348 100.987 22.3864C101.43 22.5379 101.834 22.7841 102.197 23.125C102.561 23.4621 102.851 23.9091 103.067 24.4659C103.283 25.0227 103.391 25.7083 103.391 26.5227V27.0909H96.6634V25.9318H102.027C102.027 25.4394 101.929 25 101.732 24.6136C101.538 24.2273 101.262 23.9223 100.902 23.6989C100.546 23.4754 100.125 23.3636 99.6406 23.3636C99.1065 23.3636 98.6444 23.4962 98.2543 23.7614C97.8679 24.0227 97.5705 24.3636 97.3622 24.7841C97.1539 25.2045 97.0497 25.6553 97.0497 26.1364V26.9091C97.0497 27.5682 97.1634 28.1269 97.3906 28.5852C97.6217 29.0398 97.9418 29.3864 98.3509 29.625C98.7599 29.8598 99.2353 29.9773 99.777 29.9773C100.129 29.9773 100.447 29.928 100.732 29.8295C101.019 29.7273 101.268 29.5758 101.476 29.375C101.684 29.1705 101.845 28.9167 101.959 28.6136L103.254 28.9773C103.118 29.4167 102.889 29.803 102.567 30.1364C102.245 30.4659 101.847 30.7235 101.374 30.9091C100.9 31.0909 100.368 31.1818 99.777 31.1818ZM108.726 31.1818C107.999 31.1818 107.357 30.9981 106.8 30.6307C106.243 30.2595 105.807 29.7367 105.493 29.0625C105.179 28.3845 105.021 27.5833 105.021 26.6591C105.021 25.7424 105.179 24.947 105.493 24.2727C105.807 23.5985 106.245 23.0777 106.805 22.7102C107.366 22.3428 108.014 22.1591 108.749 22.1591C109.317 22.1591 109.766 22.2538 110.095 22.4432C110.429 22.6288 110.682 22.8409 110.857 23.0795C111.035 23.3144 111.173 23.5076 111.271 23.6591H111.385V19.3636H112.726V31H111.43V29.6591H111.271C111.173 29.8182 111.033 30.0189 110.851 30.2614C110.669 30.5 110.41 30.714 110.072 30.9034C109.735 31.089 109.286 31.1818 108.726 31.1818ZM108.908 29.9773C109.446 29.9773 109.9 29.8371 110.271 29.5568C110.643 29.2727 110.925 28.8807 111.118 28.3807C111.311 27.8769 111.408 27.2955 111.408 26.6364C111.408 25.9848 111.313 25.4148 111.124 24.9261C110.934 24.4337 110.654 24.0511 110.283 23.7784C109.911 23.5019 109.453 23.3636 108.908 23.3636C108.339 23.3636 107.866 23.5095 107.487 23.8011C107.112 24.089 106.83 24.4811 106.641 24.9773C106.455 25.4697 106.362 26.0227 106.362 26.6364C106.362 27.2576 106.457 27.822 106.646 28.3295C106.839 28.8333 107.124 29.2348 107.499 29.5341C107.877 29.8295 108.347 29.9773 108.908 29.9773ZM115.368 31V22.2727H116.709V31H115.368ZM116.05 20.8182C115.788 20.8182 115.563 20.7292 115.374 20.5511C115.188 20.3731 115.095 20.1591 115.095 19.9091C115.095 19.6591 115.188 19.4451 115.374 19.267C115.563 19.089 115.788 19 116.05 19C116.311 19 116.535 19.089 116.72 19.267C116.91 19.4451 117.004 19.6591 117.004 19.9091C117.004 20.1591 116.91 20.3731 116.72 20.5511C116.535 20.7292 116.311 20.8182 116.05 20.8182ZM122.96 22.2727V23.4091H118.438V22.2727H122.96ZM119.756 20.1818H121.097V28.5C121.097 28.8788 121.152 29.1629 121.261 29.3523C121.375 29.5379 121.519 29.6629 121.693 29.7273C121.871 29.7879 122.059 29.8182 122.256 29.8182C122.403 29.8182 122.525 29.8106 122.619 29.7955C122.714 29.7765 122.79 29.7614 122.847 29.75L123.119 30.9545C123.028 30.9886 122.902 31.0227 122.739 31.0568C122.576 31.0947 122.369 31.1136 122.119 31.1136C121.741 31.1136 121.369 31.0322 121.006 30.8693C120.646 30.7064 120.347 30.4583 120.108 30.125C119.873 29.7917 119.756 29.3712 119.756 28.8636V20.1818ZM136.023 22.2727C135.955 21.697 135.678 21.25 135.193 20.9318C134.708 20.6136 134.114 20.4545 133.409 20.4545C132.894 20.4545 132.443 20.5379 132.057 20.7045C131.674 20.8712 131.375 21.1004 131.159 21.392C130.947 21.6837 130.841 22.0152 130.841 22.3864C130.841 22.697 130.915 22.964 131.062 23.1875C131.214 23.4072 131.407 23.5909 131.642 23.7386C131.877 23.8826 132.123 24.0019 132.381 24.0966C132.638 24.1875 132.875 24.2614 133.091 24.3182L134.273 24.6364C134.576 24.7159 134.913 24.8258 135.284 24.9659C135.659 25.1061 136.017 25.2973 136.358 25.5398C136.703 25.7784 136.987 26.0852 137.21 26.4602C137.434 26.8352 137.545 27.2955 137.545 27.8409C137.545 28.4697 137.381 29.0379 137.051 29.5455C136.725 30.053 136.248 30.4564 135.619 30.7557C134.994 31.0549 134.235 31.2045 133.341 31.2045C132.508 31.2045 131.786 31.0701 131.176 30.8011C130.57 30.5322 130.093 30.1572 129.744 29.6761C129.4 29.1951 129.205 28.6364 129.159 28H130.614C130.652 28.4394 130.799 28.803 131.057 29.0909C131.318 29.375 131.648 29.5871 132.045 29.7273C132.447 29.8636 132.879 29.9318 133.341 29.9318C133.879 29.9318 134.362 29.8447 134.79 29.6705C135.218 29.4924 135.557 29.2462 135.807 28.9318C136.057 28.6136 136.182 28.2424 136.182 27.8182C136.182 27.4318 136.074 27.1174 135.858 26.875C135.642 26.6326 135.358 26.4356 135.006 26.2841C134.653 26.1326 134.273 26 133.864 25.8864L132.432 25.4773C131.523 25.2159 130.803 24.8428 130.273 24.358C129.742 23.8731 129.477 23.2386 129.477 22.4545C129.477 21.803 129.653 21.2348 130.006 20.75C130.362 20.2614 130.839 19.8826 131.438 19.6136C132.04 19.3409 132.712 19.2045 133.455 19.2045C134.205 19.2045 134.871 19.339 135.455 19.608C136.038 19.8731 136.5 20.2367 136.841 20.6989C137.186 21.161 137.367 21.6856 137.386 22.2727H136.023ZM143.226 31.1818C142.408 31.1818 141.703 30.9886 141.112 30.6023C140.521 30.2159 140.067 29.6837 139.749 29.0057C139.43 28.3277 139.271 27.553 139.271 26.6818C139.271 25.7955 139.434 25.0133 139.76 24.3352C140.089 23.6534 140.548 23.1212 141.135 22.7386C141.726 22.3523 142.415 22.1591 143.203 22.1591C143.817 22.1591 144.37 22.2727 144.862 22.5C145.355 22.7273 145.758 23.0455 146.072 23.4545C146.387 23.8636 146.582 24.3409 146.658 24.8864H145.317C145.214 24.4886 144.987 24.1364 144.635 23.8295C144.286 23.5189 143.817 23.3636 143.226 23.3636C142.703 23.3636 142.245 23.5 141.851 23.7727C141.461 24.0417 141.156 24.4223 140.936 24.9148C140.72 25.4034 140.612 25.9773 140.612 26.6364C140.612 27.3106 140.718 27.8977 140.93 28.3977C141.146 28.8977 141.449 29.286 141.839 29.5625C142.233 29.839 142.696 29.9773 143.226 29.9773C143.574 29.9773 143.891 29.9167 144.175 29.7955C144.459 29.6742 144.699 29.5 144.896 29.2727C145.093 29.0455 145.233 28.7727 145.317 28.4545H146.658C146.582 28.9697 146.394 29.4337 146.095 29.8466C145.8 30.2557 145.408 30.5814 144.919 30.8239C144.434 31.0625 143.87 31.1818 143.226 31.1818ZM152.163 31.1818C151.375 31.1818 150.684 30.9943 150.089 30.6193C149.499 30.2443 149.036 29.7197 148.703 29.0455C148.374 28.3712 148.209 27.5833 148.209 26.6818C148.209 25.7727 148.374 24.9792 148.703 24.3011C149.036 23.6231 149.499 23.0966 150.089 22.7216C150.684 22.3466 151.375 22.1591 152.163 22.1591C152.951 22.1591 153.641 22.3466 154.232 22.7216C154.826 23.0966 155.288 23.6231 155.618 24.3011C155.951 24.9792 156.118 25.7727 156.118 26.6818C156.118 27.5833 155.951 28.3712 155.618 29.0455C155.288 29.7197 154.826 30.2443 154.232 30.6193C153.641 30.9943 152.951 31.1818 152.163 31.1818ZM152.163 29.9773C152.762 29.9773 153.254 29.8239 153.641 29.517C154.027 29.2102 154.313 28.8068 154.499 28.3068C154.684 27.8068 154.777 27.2652 154.777 26.6818C154.777 26.0985 154.684 25.5549 154.499 25.0511C154.313 24.5473 154.027 24.1402 153.641 23.8295C153.254 23.5189 152.762 23.3636 152.163 23.3636C151.565 23.3636 151.072 23.5189 150.686 23.8295C150.3 24.1402 150.014 24.5473 149.828 25.0511C149.643 25.5549 149.55 26.0985 149.55 26.6818C149.55 27.2652 149.643 27.8068 149.828 28.3068C150.014 28.8068 150.3 29.2102 150.686 29.517C151.072 29.8239 151.565 29.9773 152.163 29.9773ZM158.165 31V22.2727H159.46V23.5909H159.551C159.71 23.1591 159.998 22.8087 160.415 22.5398C160.831 22.2708 161.301 22.1364 161.824 22.1364C161.922 22.1364 162.045 22.1383 162.193 22.142C162.341 22.1458 162.453 22.1515 162.528 22.1591V23.5227C162.483 23.5114 162.379 23.4943 162.216 23.4716C162.057 23.4451 161.888 23.4318 161.71 23.4318C161.286 23.4318 160.907 23.5208 160.574 23.6989C160.244 23.8731 159.983 24.1155 159.79 24.4261C159.6 24.733 159.506 25.0833 159.506 25.4773V31H158.165ZM167.511 31.1818C166.67 31.1818 165.945 30.9962 165.335 30.625C164.729 30.25 164.261 29.7273 163.932 29.0568C163.606 28.3826 163.443 27.5985 163.443 26.7045C163.443 25.8106 163.606 25.0227 163.932 24.3409C164.261 23.6553 164.72 23.1212 165.307 22.7386C165.898 22.3523 166.587 22.1591 167.375 22.1591C167.83 22.1591 168.278 22.2348 168.722 22.3864C169.165 22.5379 169.568 22.7841 169.932 23.125C170.295 23.4621 170.585 23.9091 170.801 24.4659C171.017 25.0227 171.125 25.7083 171.125 26.5227V27.0909H164.398V25.9318H169.761C169.761 25.4394 169.663 25 169.466 24.6136C169.273 24.2273 168.996 23.9223 168.636 23.6989C168.28 23.4754 167.86 23.3636 167.375 23.3636C166.841 23.3636 166.379 23.4962 165.989 23.7614C165.602 24.0227 165.305 24.3636 165.097 24.7841C164.888 25.2045 164.784 25.6553 164.784 26.1364V26.9091C164.784 27.5682 164.898 28.1269 165.125 28.5852C165.356 29.0398 165.676 29.3864 166.085 29.625C166.494 29.8598 166.97 29.9773 167.511 29.9773C167.864 29.9773 168.182 29.928 168.466 29.8295C168.754 29.7273 169.002 29.5758 169.21 29.375C169.419 29.1705 169.58 28.9167 169.693 28.6136L170.989 28.9773C170.852 29.4167 170.623 29.803 170.301 30.1364C169.979 30.4659 169.581 30.7235 169.108 30.9091C168.634 31.0909 168.102 31.1818 167.511 31.1818Z" fill="black"/>
<rect x="16" y="63" width="314" height="8" rx="4" fill="#F1F1F1"/>
<rect x="16" y="63" width="106.5" height="8" rx="4" fill="#08E44A"/>
<path d="M120.5 73L113.139 61L127.861 61L120.5 73Z" fill="#2C6950"/>
<path d="M113.834 48.2727V57H111.989V50.0241H111.938L109.939 51.277V49.6406L112.1 48.2727H113.834ZM115.909 57V55.6705L119.015 52.794C119.279 52.5384 119.501 52.3082 119.68 52.1037C119.862 51.8991 119.999 51.6989 120.093 51.5028C120.187 51.304 120.234 51.0895 120.234 50.8594C120.234 50.6037 120.176 50.3835 120.059 50.1989C119.943 50.0114 119.784 49.8679 119.582 49.7685C119.38 49.6662 119.151 49.6151 118.896 49.6151C118.629 49.6151 118.396 49.669 118.197 49.777C117.998 49.8849 117.845 50.0398 117.737 50.2415C117.629 50.4432 117.575 50.6832 117.575 50.9616H115.823C115.823 50.3906 115.953 49.8949 116.211 49.4744C116.47 49.054 116.832 48.7287 117.298 48.4986C117.764 48.2685 118.301 48.1534 118.909 48.1534C119.534 48.1534 120.078 48.2642 120.541 48.4858C121.007 48.7045 121.369 49.0085 121.627 49.3977C121.886 49.7869 122.015 50.233 122.015 50.7358C122.015 51.0653 121.95 51.3906 121.819 51.7116C121.691 52.0327 121.463 52.3892 121.133 52.7812C120.803 53.1705 120.339 53.6378 119.74 54.1832L118.465 55.4318V55.4915H122.13V57H115.909ZM126.693 57.1193C126.057 57.1193 125.49 57.0099 124.993 56.7912C124.498 56.5696 124.108 56.2656 123.821 55.8793C123.537 55.4901 123.39 55.0412 123.382 54.5327H125.24C125.251 54.7457 125.321 54.9332 125.449 55.0952C125.579 55.2543 125.753 55.3778 125.969 55.4659C126.184 55.554 126.427 55.598 126.697 55.598C126.979 55.598 127.227 55.5483 127.443 55.4489C127.659 55.3494 127.828 55.2116 127.95 55.0355C128.072 54.8594 128.133 54.6562 128.133 54.4261C128.133 54.1932 128.068 53.9872 127.937 53.8082C127.809 53.6264 127.625 53.4844 127.383 53.3821C127.145 53.2798 126.861 53.2287 126.531 53.2287H125.717V51.8736H126.531C126.809 51.8736 127.055 51.8253 127.268 51.7287C127.484 51.6321 127.652 51.4986 127.771 51.3281C127.89 51.1548 127.95 50.9531 127.95 50.723C127.95 50.5043 127.898 50.3125 127.792 50.1477C127.69 49.9801 127.545 49.8494 127.358 49.7557C127.173 49.6619 126.957 49.6151 126.71 49.6151C126.46 49.6151 126.231 49.6605 126.024 49.7514C125.817 49.8395 125.65 49.9659 125.525 50.1307C125.4 50.2955 125.334 50.4886 125.325 50.7102H123.557C123.565 50.2074 123.709 49.7642 123.987 49.3807C124.265 48.9972 124.64 48.6974 125.112 48.4815C125.586 48.2628 126.122 48.1534 126.719 48.1534C127.321 48.1534 127.848 48.2628 128.3 48.4815C128.751 48.7003 129.102 48.9957 129.352 49.3679C129.605 49.7372 129.73 50.152 129.727 50.6122C129.73 51.1009 129.578 51.5085 129.271 51.8352C128.967 52.1619 128.571 52.3693 128.082 52.4574V52.5256C128.724 52.608 129.213 52.831 129.548 53.1946C129.886 53.5554 130.054 54.0071 130.051 54.5497C130.054 55.0469 129.91 55.4886 129.621 55.875C129.334 56.2614 128.937 56.5653 128.432 56.7869C127.926 57.0085 127.346 57.1193 126.693 57.1193Z" fill="black"/>
<path d="M19.75 91.1193C19.108 91.1193 18.5611 90.9446 18.1094 90.5952C17.6577 90.2429 17.3125 89.733 17.0739 89.0653C16.8352 88.3949 16.7159 87.5852 16.7159 86.6364C16.7159 85.6932 16.8352 84.8878 17.0739 84.2202C17.3153 83.5497 17.6619 83.0384 18.1136 82.6861C18.5682 82.331 19.1136 82.1534 19.75 82.1534C20.3864 82.1534 20.9304 82.331 21.3821 82.6861C21.8366 83.0384 22.1832 83.5497 22.4219 84.2202C22.6634 84.8878 22.7841 85.6932 22.7841 86.6364C22.7841 87.5852 22.6648 88.3949 22.4261 89.0653C22.1875 89.733 21.8423 90.2429 21.3906 90.5952C20.9389 90.9446 20.392 91.1193 19.75 91.1193ZM19.75 90.1818C20.3864 90.1818 20.8807 89.875 21.233 89.2614C21.5852 88.6477 21.7614 87.7727 21.7614 86.6364C21.7614 85.8807 21.6804 85.2372 21.5185 84.706C21.3594 84.1747 21.1293 83.7699 20.8281 83.4915C20.5298 83.2131 20.1705 83.0739 19.75 83.0739C19.1193 83.0739 18.6264 83.3849 18.2713 84.0071C17.9162 84.6264 17.7386 85.5028 17.7386 86.6364C17.7386 87.392 17.8182 88.0341 17.9773 88.5625C18.1364 89.0909 18.3651 89.4929 18.6634 89.7685C18.9645 90.044 19.3267 90.1818 19.75 90.1818Z" fill="black"/>
<path d="M311.176 91L315.08 83.2784V83.2102H310.58V82.2727H316.17V83.2614L312.284 91H311.176ZM320.827 82.2727V91H319.77V83.3807H319.719L317.588 84.7955V83.7216L319.77 82.2727H320.827ZM326.184 91.1193C325.542 91.1193 324.995 90.9446 324.543 90.5952C324.091 90.2429 323.746 89.733 323.507 89.0653C323.269 88.3949 323.15 87.5852 323.15 86.6364C323.15 85.6932 323.269 84.8878 323.507 84.2202C323.749 83.5497 324.096 83.0384 324.547 82.6861C325.002 82.331 325.547 82.1534 326.184 82.1534C326.82 82.1534 327.364 82.331 327.816 82.6861C328.27 83.0384 328.617 83.5497 328.855 84.2202C329.097 84.8878 329.218 85.6932 329.218 86.6364C329.218 87.5852 329.098 88.3949 328.86 89.0653C328.621 89.733 328.276 90.2429 327.824 90.5952C327.373 90.9446 326.826 91.1193 326.184 91.1193ZM326.184 90.1818C326.82 90.1818 327.314 89.875 327.667 89.2614C328.019 88.6477 328.195 87.7727 328.195 86.6364C328.195 85.8807 328.114 85.2372 327.952 84.706C327.793 84.1747 327.563 83.7699 327.262 83.4915C326.963 83.2131 326.604 83.0739 326.184 83.0739C325.553 83.0739 325.06 83.3849 324.705 84.0071C324.35 84.6264 324.172 85.5028 324.172 86.6364C324.172 87.392 324.252 88.0341 324.411 88.5625C324.57 89.0909 324.799 89.4929 325.097 89.7685C325.398 90.044 325.76 90.1818 326.184 90.1818Z" fill="black"/>
</g>
<defs>
<clipPath id="clip0_5165_1012">
<rect width="346" height="110" rx="8" fill="white"/>
</clipPath>
</defs>
</svg>
