<svg width="50" height="53" viewBox="0 0 50 53" fill="none" xmlns="http://www.w3.org/2000/svg">
<rect width="50" height="52.3679" rx="4.55373" fill="#190304"/>
<path d="M36.5664 43.2604L27.0036 33.7431L30.8287 29.918L40.346 39.4353L36.5664 43.2604ZM25 43.2604C21.7213 43.2604 18.8904 42.547 16.5072 41.1202C14.1393 39.6933 12.3102 37.6973 11.02 35.132C9.74494 32.5667 9.10742 29.584 9.10742 26.1839C9.10742 22.7838 9.74494 19.8011 11.02 17.2358C12.3102 14.6706 14.1393 12.6745 16.5072 11.2477C18.8904 9.82084 21.7213 9.10742 25 9.10742C28.2786 9.10742 31.102 9.82084 33.4699 11.2477C35.853 12.6745 37.6821 14.6706 38.9571 17.2358C40.2474 19.8011 40.8925 22.7838 40.8925 26.1839C40.8925 29.584 40.2474 32.5667 38.9571 35.132C37.6821 37.6973 35.853 39.6933 33.4699 41.1202C31.102 42.547 28.2786 43.2604 25 43.2604ZM25 37.4316C27.0795 37.462 28.8099 37.0142 30.1912 36.0883C31.5725 35.1624 32.6047 33.8494 33.2877 32.1493C33.986 30.4493 34.3351 28.4608 34.3351 26.1839C34.3351 23.9071 33.986 21.9338 33.2877 20.2641C32.6047 18.5944 31.5725 17.2966 30.1912 16.3706C28.8099 15.4447 27.0795 14.9666 25 14.9362C22.9204 14.9058 21.19 15.3536 19.8087 16.2796C18.4274 17.2055 17.3876 18.5185 16.6894 20.2185C16.0063 21.9186 15.6648 23.9071 15.6648 26.1839C15.6648 28.4608 16.0063 30.4341 16.6894 32.1038C17.3876 33.7735 18.4274 35.0713 19.8087 35.9972C21.19 36.9231 22.9204 37.4013 25 37.4316Z" fill="#CD342E"/>
</svg>
