<svg width="100" height="16" viewBox="0 0 100 16" fill="none" xmlns="http://www.w3.org/2000/svg">
<path d="M14.5293 0.186035H25.6303V2.97991H17.8447V6.18355H24.5872V9.12643H17.8447V12.4046H25.593V15.3847H14.5293V0.186035Z" fill="#F16554"/>
<path d="M41.6473 15.3474H38.8907C38.2947 15.3474 38.1457 15.2357 37.8477 14.7887L31.5894 6.03454H31.4776V15.3474H28.125V0.186035H30.7699C31.5149 0.186035 31.5149 0.260538 31.7012 0.5213C31.8129 0.707558 37.5869 8.71666 38.1829 9.64795H38.2574V0.186035H41.6101V15.3474H41.6473Z" fill="#F16554"/>
<path d="M58.2246 0.186035H69.3256V2.97991H61.54V6.18355H68.2825V9.12643H61.54V12.4046H69.2883V15.3847H58.2246V0.186035Z" fill="#F16554"/>
<path d="M9.53642 6.29538C8.75413 6.14638 4.35844 5.36409 4.35844 5.36409C3.65066 5.21508 3.3899 5.06608 3.3899 4.54456V4.20929C3.3899 3.94853 3.42715 0.186116 3.4644 0.0371094H0C0 0.148864 0 0.260619 0 0.372374V5.21509C0 7.71094 1.26656 7.93445 3.79967 8.38147C4.35844 8.45598 7.59933 9.052 8.38162 9.23826C9.01489 9.35002 9.12665 9.72253 9.12665 10.1323V11.0263C9.12665 12.1811 8.67963 12.4419 7.18956 12.4419H0.0745032L0.0372516 15.1613C0.0372516 15.1613 4.39569 15.4593 7.59933 15.4593C11.2872 15.4593 12.4793 14.2672 12.4793 11.5479V9.64803C12.4793 7.67369 11.8833 6.7424 9.53642 6.29538Z" fill="#F16554"/>
<path d="M46.7144 6.29552C47.4966 6.14652 51.8923 5.32698 51.8923 5.32698C52.6001 5.17798 52.8609 5.02897 52.8609 4.50745V4.17218C52.8609 3.91142 52.8236 0.149007 52.7864 0H56.2508C56.2508 0.111755 56.2508 0.22351 56.2508 0.335264V5.17798C56.2508 7.67383 54.9842 7.89734 52.4511 8.34436C51.8923 8.41887 48.6514 9.01489 47.8692 9.20115C47.2359 9.31291 47.1241 9.68542 47.1241 10.0952V10.9892C47.1241 12.144 47.5711 12.4048 49.0612 12.4048H56.1763L56.2135 15.1242C56.2135 15.1242 51.8551 15.4222 48.6515 15.4222C44.9635 15.4222 43.7715 14.2301 43.7715 11.548V9.64817C43.8087 7.67384 44.3675 6.74254 46.7144 6.29552Z" fill="#F16554"/>
<path d="M73.1797 11.846V3.61337C73.1797 0.893999 74.5952 0.0744629 76.9048 0.0744629H80.8535C83.1631 0.0744629 84.5787 0.893999 84.5787 3.61337V11.846C84.5787 14.5653 83.1631 15.3849 80.8535 15.3849H76.9048C74.5952 15.3476 73.1797 14.5281 73.1797 11.846ZM73.664 3.72512V11.7342C73.664 14.0811 74.6698 14.9379 76.9048 14.9379H80.8535C83.0886 14.9379 84.0944 14.0811 84.0944 11.7342V3.72512C84.0944 1.37827 83.0886 0.521482 80.8535 0.521482H76.9048C74.6698 0.521482 73.664 1.37827 73.664 3.72512Z" fill="#F16554"/>
<path d="M100.003 15.3103H99.3321C99.2204 15.3103 99.1086 15.1613 99.1086 15.1613L89.0879 1.04296H89.0507V15.3103H88.5664V0.148926H88.9017C89.0134 0.148926 89.0879 0.260681 89.0879 0.260681L99.4811 14.8633H99.5184V0.148926H100.003V15.3103Z" fill="#F16554"/>
</svg>
