<svg width="100" height="33" viewBox="0 0 100 33" fill="none" xmlns="http://www.w3.org/2000/svg">
<path d="M16.211 32.4219C25.164 32.4219 32.4219 25.164 32.4219 16.211C32.4219 7.2579 25.164 0 16.211 0C7.2579 0 0 7.2579 0 16.211C0 25.164 7.2579 32.4219 16.211 32.4219Z" fill="#50B2C5"/>
<path d="M16.7167 22.0599C16.7167 22.0599 18.5518 22.2998 19.1905 21.2623C20.228 21.5022 20.9478 21.6611 21.6643 21.5022C22.3841 21.3434 23.8139 20.8538 23.9793 19.6671C24.1706 18.3152 24.1381 15.9937 23.5805 14.3986C23.6615 15.2772 23.9793 17.5111 23.7393 18.5486C23.4994 19.5861 23.2595 19.9849 22.8607 20.3059C22.4619 20.6236 20.6268 21.1845 19.6671 20.4647C19.826 19.9071 19.826 19.745 19.826 19.6671C19.826 19.5861 19.9071 12.8812 19.4272 12.1615C19.4272 13.1212 19.3462 19.3527 19.1873 19.9071C19.0284 20.4647 19.0284 21.3434 16.4736 21.3434C13.9187 21.3434 14.003 19.745 14.003 19.745C14.003 19.745 13.922 13.2768 13.8442 13.1179C13.7631 13.7566 13.6853 19.1873 13.4454 19.745C13.2055 20.3026 12.8877 20.8635 11.6103 20.8635C10.3329 20.8635 9.53529 19.9849 9.37318 19.4272C9.21431 18.8696 9.69416 14.1587 9.53205 13.7599C9.37318 14.9562 9.13326 18.8696 8.81228 19.3494C8.4913 19.8293 8.09251 19.7482 7.53486 19.5893C6.9772 19.4305 6.4163 18.7107 6.4163 17.7543C6.4163 16.7978 6.4163 13.2833 6.57517 12.8845C6.73403 12.4857 6.97396 11.847 7.4538 11.4482C7.93365 11.0494 8.73123 10.8905 9.45099 10.8905C10.0087 10.3329 10.6474 9.61311 11.3671 9.29537C12.0869 8.97764 13.5232 9.05545 14.003 9.21432C14.4829 8.89334 15.3615 7.93689 16.399 7.93689C17.4365 7.93689 17.9942 8.09576 18.9539 8.5756C19.9136 9.05545 20.4712 8.49455 21.2688 8.49455C22.0664 8.49455 23.1039 9.13326 23.5059 10.0897C23.9047 11.0462 25.9019 17.3555 25.9019 17.3555C25.9019 17.3555 26.1418 18.1239 25.9019 19.2554C25.662 20.3869 24.7055 22.7829 24.7055 22.7829C24.7055 22.7829 24.511 23.4086 23.9858 23.6615C23.3438 23.9695 22.2285 24.2192 21.3498 24.3002C20.4712 24.3813 17.9553 24.699 17.3782 24.3002C16.7978 23.8982 16.1591 23.4184 16.7167 22.0599Z" fill="white"/>
<path d="M47.0766 25.8666C45.9526 25.8666 44.9583 25.7369 44.0938 25.4775C43.2465 25.2181 42.5289 24.7426 41.9409 24.0509C41.3703 23.3593 40.938 22.3736 40.6441 21.0941C40.3501 19.8145 40.2031 18.1372 40.2031 16.0622C40.2031 14.1082 40.3501 12.5001 40.6441 11.2378C40.9553 9.97549 41.4049 8.98986 41.9928 8.2809C42.598 7.57194 43.3329 7.07913 44.1975 6.80246C45.0621 6.52579 46.0477 6.38746 47.1544 6.38746C47.9152 6.38746 48.6501 6.43069 49.3591 6.51715C50.0853 6.60361 50.7511 6.70736 51.3563 6.8284C51.9788 6.94944 52.5148 7.07913 52.9644 7.21746V9.68153C52.6704 9.61236 52.2554 9.55184 51.7194 9.49997C51.1834 9.4308 50.5781 9.37892 49.9038 9.34434C49.2294 9.29247 48.5291 9.26653 47.8028 9.26653C47.0074 9.26653 46.3244 9.36163 45.7538 9.55184C45.2004 9.72476 44.7508 10.0533 44.405 10.5375C44.0592 11.0216 43.8084 11.7133 43.6528 12.6125C43.4972 13.5116 43.4194 14.6788 43.4194 16.114C43.4194 17.532 43.4886 18.6905 43.6269 19.5897C43.7825 20.4888 44.0159 21.1892 44.3272 21.6906C44.6557 22.1748 45.0967 22.512 45.65 22.7022C46.2206 22.8924 46.9296 22.9875 47.7769 22.9875C49.0738 22.9875 50.1372 22.9616 50.9672 22.9097C51.7972 22.8405 52.4629 22.7713 52.9644 22.7022V25.1662C52.4802 25.3046 51.9269 25.4256 51.3044 25.5294C50.6992 25.6331 50.0421 25.7109 49.3331 25.7628C48.6415 25.832 47.8893 25.8666 47.0766 25.8666ZM55.6874 25.7109V5.94652H58.9037V13.2609C59.457 12.8459 60.1487 12.4655 60.9787 12.1197C61.826 11.7565 62.6906 11.575 63.5725 11.575C64.5927 11.575 65.414 11.7825 66.0365 12.1975C66.6763 12.6125 67.1345 13.1917 67.4112 13.9353C67.7052 14.6615 67.8522 15.4915 67.8522 16.4253V25.7109H64.6359V16.8144C64.6359 16.3302 64.5408 15.9152 64.3506 15.5694C64.1604 15.2062 63.8924 14.9382 63.5465 14.7653C63.2007 14.5751 62.7943 14.48 62.3275 14.48C61.8779 14.48 61.4629 14.5319 61.0825 14.6356C60.702 14.7221 60.3303 14.8517 59.9671 15.0247C59.6213 15.1976 59.2668 15.3964 58.9037 15.6212V25.7109H55.6874ZM73.9416 25.8666C72.9041 25.8666 72.0568 25.5553 71.3997 24.9328C70.7426 24.3103 70.4141 23.4544 70.4141 22.365V21.1978C70.4141 20.1257 70.7772 19.2525 71.5035 18.5781C72.247 17.9037 73.3796 17.5665 74.9013 17.5665H78.8697V16.3475C78.8697 15.8633 78.7833 15.457 78.6104 15.1284C78.4374 14.7999 78.1262 14.5578 77.6766 14.4022C77.227 14.2292 76.544 14.1428 75.6275 14.1428H71.4257V12.2753C72.0655 12.1024 72.8176 11.9554 73.6822 11.8343C74.5468 11.696 75.5757 11.6268 76.7688 11.6268C77.91 11.6096 78.8784 11.7479 79.6738 12.0418C80.4692 12.3185 81.0658 12.7854 81.4635 13.4425C81.8785 14.0996 82.086 14.9987 82.086 16.14V25.7109H79.5701L79.0254 24.2066C78.9043 24.3103 78.6882 24.4486 78.3769 24.6216C78.0657 24.7945 77.6766 24.9847 77.2097 25.1922C76.7429 25.3824 76.2241 25.5467 75.6535 25.685C75.1001 25.806 74.5295 25.8666 73.9416 25.8666ZM75.4979 23.61C75.7226 23.61 75.9734 23.5841 76.25 23.5322C76.544 23.463 76.838 23.3938 77.1319 23.3247C77.4259 23.2382 77.6939 23.1604 77.936 23.0912C78.1954 23.0048 78.4029 22.927 78.5585 22.8578C78.7314 22.7886 78.8352 22.7454 78.8697 22.7281V19.0969L75.861 19.2525C75.0656 19.3217 74.4863 19.5292 74.1232 19.875C73.7773 20.2208 73.6044 20.6791 73.6044 21.2497V21.8203C73.6044 22.2526 73.6909 22.6071 73.8638 22.8837C74.054 23.1431 74.2874 23.3247 74.5641 23.4284C74.8581 23.5322 75.1693 23.5927 75.4979 23.61ZM89.3965 25.7628C88.4801 25.7628 87.7106 25.6072 87.0881 25.2959C86.4829 24.9847 86.0247 24.5005 85.7134 23.8434C85.4194 23.1863 85.2725 22.3131 85.2725 21.2237V5.92058H88.4887V20.7828C88.4887 21.4053 88.5492 21.8895 88.6703 22.2353C88.8086 22.5811 88.9988 22.8319 89.2409 22.9875C89.483 23.1258 89.777 23.2209 90.1228 23.2728L91.29 23.4284V25.7628H89.3965ZM97.3247 25.7628C96.4083 25.7628 95.6388 25.6072 95.0163 25.2959C94.4111 24.9847 93.9528 24.5005 93.6416 23.8434C93.3476 23.1863 93.2006 22.3131 93.2006 21.2237V5.92058H96.4169V20.7828C96.4169 21.4053 96.4774 21.8895 96.5985 22.2353C96.7368 22.5811 96.927 22.8319 97.1691 22.9875C97.4112 23.1258 97.7051 23.2209 98.051 23.2728L99.2182 23.4284V25.7628H97.3247Z" fill="#00B4C7"/>
</svg>
