<svg width="378" height="820" viewBox="0 0 378 820" fill="none" xmlns="http://www.w3.org/2000/svg">
<g clip-path="url(#clip0_5690_2367)">
<rect width="378" height="820" fill="#6CF579"/>
<mask id="mask0_5690_2367" style="mask-type:alpha" maskUnits="userSpaceOnUse" x="338" y="40" width="24" height="24">
<rect x="338" y="40" width="24" height="24" fill="#D9D9D9"/>
</mask>
<g mask="url(#mask0_5690_2367)">
<path d="M344.4 59L343 57.6L348.6 52L343 46.4L344.4 45L350 50.6L355.6 45L357 46.4L351.4 52L357 57.6L355.6 59L350 53.4L344.4 59Z" fill="white"/>
</g>
<path d="M63.5845 116.6C59.7845 116.6 56.5845 115.48 54.4645 113.88L53.8645 105.52C57.2245 109.6 60.8645 111.88 64.5045 111.88C66.4645 111.88 67.6645 110.8 67.6645 109.2C67.6645 107.68 66.6245 106.96 64.6645 106.12L59.4245 103.88C56.1845 102.48 54.3045 99.84 54.3045 96.32C54.3045 91 58.7445 87.4 64.7445 87.4C67.9845 87.4 70.7045 88.28 73.0245 89.96V97.44C70.3445 93.84 66.9445 91.92 64.1045 91.92C61.9845 91.92 60.9445 92.96 60.9445 94.28C60.9445 95.64 61.9445 96.48 63.2245 97L68.9845 99.24C72.1445 100.48 74.3045 103.04 74.3045 107.08C74.3045 112.8 69.9445 116.6 63.5845 116.6ZM88.3345 116.6C81.6145 116.6 77.2945 112.4 77.2945 106.2C77.2945 100.04 81.2945 95.4 87.5345 95.4C94.4545 95.4 97.8945 99.72 97.7745 105.6H84.4945C84.7345 108.52 87.5345 110.84 91.8145 110.84C94.0145 110.84 96.3345 110.24 97.3745 109.36C97.1745 113.32 94.4545 116.6 88.3345 116.6ZM84.4545 102.8H90.5345C90.5345 100.08 89.5345 98.4 87.5345 98.4C85.5745 98.4 84.4945 100.04 84.4545 102.8ZM109.339 116.6C104.899 116.6 102.419 114 102.419 109.28V100.6H98.6586L109.619 89.84V96H118.059L116.059 100.6H109.619V107C109.619 109.36 111.179 110.72 113.499 110.72C115.139 110.72 116.339 110.24 117.259 109.48C116.779 113.36 114.219 116.6 109.339 116.6ZM143.88 116.6C141.6 116.6 140.12 115.6 139.48 113.88C138.56 115.2 136.44 116.6 134 116.6C130.44 116.6 127.84 114.48 127.84 111.24C127.84 108.08 130.28 105.96 135.12 105.08L139.08 104.36V103.92C139.08 102 137.24 100.64 134.56 100.64C131.96 100.64 130.04 101.36 128.4 102.96C128.8 97.92 132.36 95.4 137.72 95.4C143.08 95.4 146.28 98.36 146.28 103.8V109.64C146.28 110.92 146.84 111.56 148.04 111.56C148.56 111.56 148.96 111.48 149.52 111.08C149.16 114.6 146.84 116.6 143.88 116.6ZM135.2 109.8C135.2 111.12 136.04 111.96 137.32 111.96C138.12 111.96 138.6 111.76 139.08 111.28V106.92L137.92 107.16C135.96 107.48 135.2 108.6 135.2 109.8ZM160.287 101.6C160.287 99.92 160.287 98.92 159.287 97.12L167.487 95.68V98.16C168.847 96.32 170.807 95.4 173.127 95.4C178.087 95.4 181.847 99.24 181.847 105.6C181.847 112.4 177.447 116.6 171.607 116.6C170.127 116.6 168.727 116.32 167.487 115.72V119.72C167.487 121.04 167.487 121.04 168.687 123.2H159.287C160.287 121.48 160.287 121.12 160.287 119.92V101.6ZM167.487 109.8C168.127 111.56 169.407 112.4 170.887 112.4C172.807 112.4 174.327 110.32 174.327 106.56C174.327 102.76 172.487 100.68 170.127 100.68C169.007 100.68 168.047 101.16 167.487 101.96V109.8ZM195.678 116.6C188.958 116.6 184.638 112.4 184.638 106.2C184.638 100.04 188.638 95.4 194.878 95.4C201.798 95.4 205.238 99.72 205.118 105.6H191.838C192.078 108.52 194.878 110.84 199.158 110.84C201.358 110.84 203.678 110.24 204.718 109.36C204.518 113.32 201.798 116.6 195.678 116.6ZM191.798 102.8H197.878C197.878 100.08 196.878 98.4 194.878 98.4C192.918 98.4 191.838 100.04 191.798 102.8ZM207.805 116C208.805 114.28 208.805 113.92 208.805 112.72V100.72C208.805 99.24 208.805 98.64 207.805 97.12L215.285 95.68V100.48C216.165 97.44 217.405 95.6 219.925 95.6C220.605 95.6 221.085 95.72 221.485 95.96V102.16C221.005 102 220.445 101.88 219.685 101.88C218.085 101.88 216.645 102.44 216.005 103.56V112.56C216.005 113.88 216.005 113.88 217.325 116H207.805ZM231.584 116.6C228.344 116.6 225.944 115.88 223.984 114.48L223.504 107.64C226.624 110.96 229.864 112.76 231.944 112.76C232.984 112.76 233.584 112.28 233.584 111.48C233.584 110.8 233.264 110.4 232.384 110L227.744 107.84C225.104 106.6 223.864 104.8 223.864 102.16C223.864 98.2 227.184 95.4 231.864 95.4C234.424 95.4 236.504 95.88 238.664 97.28V103.32C236.624 100.84 233.504 99.08 231.544 99.08C230.464 99.08 229.984 99.52 229.984 100.24C229.984 100.76 230.344 101.24 231.144 101.6L235.704 103.72C238.344 104.92 239.664 106.76 239.664 109.64C239.664 113.6 236.624 116.6 231.584 116.6ZM253.297 116.6C247.097 116.6 242.177 112.52 242.177 105.96C242.177 99.4 247.097 95.4 253.297 95.4C259.577 95.4 264.457 99.4 264.457 105.96C264.457 112.52 259.537 116.6 253.297 116.6ZM253.457 112.28C255.657 112.28 256.897 110.24 256.897 106.64C256.897 102.24 255.537 99.68 253.177 99.68C250.977 99.68 249.737 101.72 249.737 105.28C249.737 109.72 251.097 112.28 253.457 112.28ZM280.178 116C281.178 114.28 281.178 113.92 281.178 112.72V104.08C281.178 101.84 280.018 100.88 278.338 100.88C277.098 100.88 276.058 101.44 275.458 102.32V112.52C275.458 113.84 275.458 113.84 276.458 116H267.258C268.258 114.28 268.258 113.92 268.258 112.72V101.64C268.258 99.96 268.258 98.92 267.258 97.12L275.458 95.68V98.8C276.618 96.96 278.898 95.4 281.698 95.4C286.178 95.4 288.378 98.48 288.378 102.48V112.52C288.378 113.84 288.378 113.84 289.378 116H280.178ZM308.02 116.6C305.74 116.6 304.26 115.6 303.62 113.88C302.7 115.2 300.58 116.6 298.14 116.6C294.58 116.6 291.98 114.48 291.98 111.24C291.98 108.08 294.42 105.96 299.26 105.08L303.22 104.36V103.92C303.22 102 301.38 100.64 298.7 100.64C296.1 100.64 294.18 101.36 292.54 102.96C292.94 97.92 296.5 95.4 301.86 95.4C307.22 95.4 310.42 98.36 310.42 103.8V109.64C310.42 110.92 310.98 111.56 312.18 111.56C312.7 111.56 313.1 111.48 313.66 111.08C313.3 114.6 310.98 116.6 308.02 116.6ZM299.34 109.8C299.34 111.12 300.18 111.96 301.46 111.96C302.26 111.96 302.74 111.76 303.22 111.28V106.92L302.06 107.16C300.1 107.48 299.34 108.6 299.34 109.8ZM315.071 116C316.071 114.28 316.071 113.92 316.071 112.72V92.2C316.071 90.52 316.071 89.52 315.071 87.72L323.271 86.28V112.52C323.271 113.84 323.271 113.84 324.271 116H315.071ZM158.442 167.8C152.522 167.8 148.482 165.92 148.482 163C148.482 161.28 149.802 160 152.242 159.32C150.922 158.56 150.122 157.44 150.122 156C150.122 154.28 151.362 152.76 153.202 152C150.722 150.88 149.282 148.84 149.282 146.16C149.282 142 152.722 139.4 158.082 139.4C159.562 139.4 160.882 139.6 162.082 140H170.362L168.362 144.6H166.682C166.802 145.12 166.842 145.6 166.842 146.16C166.842 150.28 163.402 152.92 158.082 152.92C157.362 152.92 156.642 152.88 156.042 152.8C155.842 152.88 155.682 153.08 155.682 153.28C155.682 153.72 156.082 154 156.802 154.08L163.242 154.8C167.602 155.28 169.322 157.28 169.322 160.36C169.322 164.48 165.522 167.8 158.442 167.8ZM158.082 149.84C159.562 149.84 160.442 148.52 160.442 146.16C160.442 143.8 159.522 142.48 158.082 142.48C156.642 142.48 155.722 143.8 155.722 146.16C155.722 148.48 156.642 149.84 158.082 149.84ZM154.642 161.44C154.642 163.24 156.762 164.48 160.082 164.48C162.602 164.48 164.122 163.64 164.122 162.52C164.122 161.92 163.722 161.36 162.362 161.16L155.002 160.2C154.762 160.48 154.642 160.92 154.642 161.44ZM182.321 160.6C176.121 160.6 171.201 156.52 171.201 149.96C171.201 143.4 176.121 139.4 182.321 139.4C188.601 139.4 193.481 143.4 193.481 149.96C193.481 156.52 188.561 160.6 182.321 160.6ZM182.481 156.28C184.681 156.28 185.921 154.24 185.921 150.64C185.921 146.24 184.561 143.68 182.201 143.68C180.001 143.68 178.761 145.72 178.761 149.28C178.761 153.72 180.121 156.28 182.481 156.28ZM212.083 160.6C209.803 160.6 208.323 159.6 207.683 157.88C206.763 159.2 204.643 160.6 202.203 160.6C198.643 160.6 196.043 158.48 196.043 155.24C196.043 152.08 198.483 149.96 203.323 149.08L207.283 148.36V147.92C207.283 146 205.443 144.64 202.763 144.64C200.163 144.64 198.243 145.36 196.603 146.96C197.003 141.92 200.563 139.4 205.923 139.4C211.283 139.4 214.483 142.36 214.483 147.8V153.64C214.483 154.92 215.043 155.56 216.243 155.56C216.763 155.56 217.163 155.48 217.723 155.08C217.363 158.6 215.043 160.6 212.083 160.6ZM203.403 153.8C203.403 155.12 204.243 155.96 205.523 155.96C206.323 155.96 206.803 155.76 207.283 155.28V150.92L206.123 151.16C204.163 151.48 203.403 152.6 203.403 153.8ZM219.133 160C220.133 158.28 220.133 157.92 220.133 156.72V136.2C220.133 134.52 220.133 133.52 219.133 131.72L227.333 130.28V156.52C227.333 157.84 227.333 157.84 228.333 160H219.133Z" fill="black"/>
<g clip-path="url(#clip1_5690_2367)">
<rect width="346" height="103" transform="translate(16 192)" fill="white"/>
<path d="M38.288 223.24C35.024 223.24 32.832 220.904 32.832 217.544C32.832 213.928 35.136 211.56 38.624 211.56C40.224 211.56 41.456 211.96 42.368 212.744V214.904C41.44 213.416 40.16 212.696 38.512 212.696C36.048 212.696 34.528 214.328 34.528 216.984C34.528 219.896 36.336 221.752 38.976 221.752C40.544 221.752 41.872 221.064 42.56 219.8C42.336 222.024 40.816 223.24 38.288 223.24ZM49.6366 216.92C49.6366 216.44 49.6366 216.072 49.0766 215.56L51.2366 215.096V221.624C51.2366 222.072 51.2366 222.2 51.7966 222.792L49.6366 223.112V221.848C49.1086 222.712 48.1806 223.24 47.1086 223.24C45.3486 223.24 44.3726 222.056 44.3726 220.28V216.92C44.3726 216.44 44.3726 216.072 43.8126 215.56L45.9726 215.096V219.96C45.9726 221.224 46.6926 221.944 47.8286 221.944C48.6606 221.944 49.2846 221.56 49.6366 220.856V216.92ZM53.4578 223C53.9538 222.312 53.9538 222.296 53.9538 221.8V216.776C53.9538 216.296 53.9538 216.056 53.3938 215.56L55.4258 215.096V216.92C55.8898 215.72 56.5458 215.048 57.6018 215.048C57.9058 215.048 58.1618 215.096 58.3218 215.176V216.6C58.0658 216.52 57.8098 216.504 57.4738 216.504C56.6578 216.504 55.9218 216.84 55.5538 217.72V221.8C55.5538 222.264 55.5538 222.264 56.2098 223H53.4578ZM59.3796 223C59.8756 222.312 59.8756 222.296 59.8756 221.8V216.776C59.8756 216.296 59.8756 216.056 59.3156 215.56L61.3476 215.096V216.92C61.8116 215.72 62.4676 215.048 63.5236 215.048C63.8276 215.048 64.0836 215.096 64.2436 215.176V216.6C63.9876 216.52 63.7316 216.504 63.3956 216.504C62.5796 216.504 61.8436 216.84 61.4756 217.72V221.8C61.4756 222.264 61.4756 222.264 62.1316 223H59.3796ZM69.0656 223.24C66.6656 223.24 64.9856 221.72 64.9856 219.144C64.9856 216.84 66.3456 214.968 68.8256 214.968C71.1936 214.968 72.5536 216.488 72.5376 218.824H66.6016C66.6016 220.792 67.9456 221.848 69.7536 221.848C70.9216 221.848 71.8816 221.48 72.4096 220.712C72.2656 222.184 71.1136 223.24 69.0656 223.24ZM66.6176 218.072H70.8896C70.8736 216.776 70.1376 215.736 68.7776 215.736C67.4816 215.736 66.7136 216.648 66.6176 218.072ZM79.3345 223C79.8305 222.312 79.8305 222.296 79.8305 221.8V218.264C79.8305 216.984 79.0945 216.264 77.9585 216.264C77.0465 216.264 76.4225 216.648 76.0225 217.4V221.768C76.0225 222.232 76.0225 222.232 76.5185 223H73.9265C74.4225 222.312 74.4225 222.296 74.4225 221.8V216.92C74.4225 216.44 74.4225 216.072 73.8625 215.56L76.0225 215.096V216.472C76.5985 215.512 77.5265 214.968 78.6465 214.968C80.3585 214.968 81.4305 216.12 81.4305 217.864V221.784C81.4305 222.248 81.4305 222.248 81.9105 223H79.3345ZM86.4851 223.24C84.8851 223.24 84.1331 222.248 84.1331 220.84V216.312H82.5011L85.7331 213.144V215.208H89.2211L88.7251 216.312H85.7331V220.28C85.7331 221.336 86.3571 221.848 87.3171 221.848C88.0531 221.848 88.6611 221.576 89.0771 221.064C88.8691 222.392 87.8451 223.24 86.4851 223.24ZM99.6474 223.24C96.3834 223.24 94.1914 220.904 94.1914 217.544C94.1914 213.928 96.4954 211.56 99.9834 211.56C101.583 211.56 102.815 211.96 103.727 212.744V214.904C102.799 213.416 101.519 212.696 99.8714 212.696C97.4074 212.696 95.8874 214.328 95.8874 216.984C95.8874 219.896 97.6954 221.752 100.335 221.752C101.903 221.752 103.231 221.064 103.919 219.8C103.695 222.024 102.175 223.24 99.6474 223.24ZM105.317 223C105.813 222.312 105.813 222.296 105.813 221.8V216.776C105.813 216.296 105.813 216.056 105.253 215.56L107.285 215.096V216.92C107.749 215.72 108.405 215.048 109.461 215.048C109.765 215.048 110.021 215.096 110.181 215.176V216.6C109.925 216.52 109.669 216.504 109.333 216.504C108.517 216.504 107.781 216.84 107.413 217.72V221.8C107.413 222.264 107.413 222.264 108.069 223H105.317ZM115.003 223.24C112.603 223.24 110.923 221.72 110.923 219.144C110.923 216.84 112.283 214.968 114.763 214.968C117.131 214.968 118.491 216.488 118.475 218.824H112.539C112.539 220.792 113.883 221.848 115.691 221.848C116.859 221.848 117.819 221.48 118.347 220.712C118.203 222.184 117.051 223.24 115.003 223.24ZM112.555 218.072H116.827C116.811 216.776 116.075 215.736 114.715 215.736C113.419 215.736 112.651 216.648 112.555 218.072ZM126.103 212.984C126.103 212.504 126.087 212.136 125.463 211.624L127.703 211.176V221.624C127.703 222.072 127.703 222.2 128.263 222.792L126.103 223.112V221.848C125.559 222.712 124.583 223.24 123.415 223.24C121.335 223.24 119.783 221.688 119.783 219.208C119.783 216.808 121.335 214.968 123.766 214.968C124.711 214.968 125.511 215.272 126.103 215.752V212.984ZM121.463 218.92C121.463 220.728 122.423 221.976 124.055 221.976C124.967 221.976 125.719 221.576 126.103 220.792V217.592C125.767 216.616 124.967 215.976 123.831 215.976C122.535 215.976 121.463 217 121.463 218.92ZM129.927 223C130.423 222.312 130.423 222.296 130.423 221.8V216.92C130.423 216.44 130.423 216.072 129.863 215.56L132.023 215.096V221.768C132.023 222.232 132.023 222.232 132.519 223H129.927ZM131.223 213.752C130.599 213.752 130.135 213.304 130.135 212.68C130.135 212.072 130.599 211.592 131.223 211.592C131.847 211.592 132.311 212.072 132.311 212.68C132.311 213.304 131.847 213.752 131.223 213.752ZM137.282 223.24C135.682 223.24 134.93 222.248 134.93 220.84V216.312H133.298L136.53 213.144V215.208H140.018L139.522 216.312H136.53V220.28C136.53 221.336 137.154 221.848 138.114 221.848C138.85 221.848 139.458 221.576 139.874 221.064C139.666 222.392 138.642 223.24 137.282 223.24ZM148.812 223.24C147.244 223.24 146.06 222.776 145.18 221.896L144.956 219.368C146.124 221.256 147.548 222.136 149.084 222.136C150.332 222.136 151.132 221.464 151.132 220.344C151.132 219.544 150.668 218.872 149.58 218.424L147.516 217.56C146.012 216.936 145.372 215.992 145.372 214.68C145.372 212.824 146.876 211.56 149.004 211.56C150.316 211.56 151.388 211.944 152.268 212.648V214.76C151.372 213.304 150.092 212.632 148.764 212.632C147.58 212.632 146.892 213.32 146.892 214.216C146.892 214.984 147.308 215.528 148.284 215.944L150.46 216.84C151.884 217.432 152.668 218.44 152.668 219.88C152.668 221.896 151.1 223.24 148.812 223.24ZM158.092 223.24C155.756 223.24 154.236 221.624 154.236 219.176C154.236 216.696 155.9 214.968 158.332 214.968C159.468 214.968 160.38 215.272 160.988 215.8V217.704C160.3 216.6 159.468 216.024 158.284 216.024C156.812 216.024 155.836 217.08 155.836 218.792C155.836 220.616 156.94 221.832 158.716 221.832C159.788 221.832 160.636 221.448 161.18 220.584C160.988 222.312 159.868 223.24 158.092 223.24ZM166.598 223.24C164.214 223.24 162.47 221.544 162.47 219.096C162.47 216.648 164.214 214.968 166.598 214.968C168.982 214.968 170.726 216.648 170.726 219.096C170.726 221.544 168.982 223.24 166.598 223.24ZM166.678 222.232C168.102 222.232 169.03 221.128 169.03 219.368C169.03 217.32 168.038 215.992 166.518 215.992C165.078 215.992 164.166 217.08 164.166 218.824C164.166 220.888 165.158 222.232 166.678 222.232ZM172.27 223C172.766 222.312 172.766 222.296 172.766 221.8V216.776C172.766 216.296 172.766 216.056 172.206 215.56L174.238 215.096V216.92C174.702 215.72 175.358 215.048 176.414 215.048C176.718 215.048 176.974 215.096 177.134 215.176V216.6C176.878 216.52 176.622 216.504 176.286 216.504C175.47 216.504 174.734 216.84 174.366 217.72V221.8C174.366 222.264 174.366 222.264 175.022 223H172.27ZM181.956 223.24C179.556 223.24 177.876 221.72 177.876 219.144C177.876 216.84 179.236 214.968 181.716 214.968C184.084 214.968 185.444 216.488 185.428 218.824H179.492C179.492 220.792 180.836 221.848 182.644 221.848C183.812 221.848 184.772 221.48 185.3 220.712C185.156 222.184 184.004 223.24 181.956 223.24ZM179.508 218.072H183.78C183.764 216.776 183.028 215.736 181.668 215.736C180.372 215.736 179.604 216.648 179.508 218.072Z" fill="black"/>
<g clip-path="url(#clip2_5690_2367)">
<rect x="32" y="254" width="314" height="8" rx="4" fill="#F1F1F1"/>
<rect width="250" height="8" transform="translate(32 254)" fill="#E1153A"/>
<rect width="16" height="8" transform="translate(282 254)" fill="#FEB268"/>
<rect width="10" height="8" transform="translate(298 254)" fill="#08E44A"/>
<rect width="38" height="8" transform="translate(308 254)" fill="#EF74E0"/>
</g>
<path d="M68.5 264L61.1388 252L75.8612 252L68.5 264Z" fill="#2C6950"/>
<path d="M60.9836 248V247.004V241.736H59.2556L62.2796 239.54H62.6636V247.016V248H60.9836ZM66.791 244.544C67.559 243.584 67.907 243.104 67.907 242.372C67.907 241.484 67.295 240.956 66.395 240.956C65.411 240.956 64.631 241.448 64.151 242.432C64.163 240.56 65.363 239.42 67.127 239.42C68.651 239.42 69.779 240.272 69.779 241.916C69.779 243.008 69.347 243.848 68.195 245.204L67.259 246.308H69.959V248H64.067L66.791 244.544ZM73.8365 248.18C72.8045 248.18 71.8925 247.796 71.4005 247.136V245.312C71.9405 246.164 72.7205 246.608 73.6445 246.608C74.7245 246.608 75.4325 246.02 75.4325 245.132C75.4325 244.136 74.6045 243.56 73.4045 243.56C72.9725 243.56 72.6485 243.596 72.2045 243.704L74.2325 241.148H71.4725V239.6H77.3285L75.0245 242.456C76.3565 242.708 77.1845 243.776 77.1845 245.204C77.1845 247.004 75.8525 248.18 73.8365 248.18Z" fill="black"/>
<circle cx="36" cy="274.5" r="4" fill="#E1153A"/>
<path d="M44.792 277V276.36V272.016V271.4H46.856C47.952 271.4 48.632 272.072 48.632 273.04C48.632 274 47.952 274.68 46.856 274.68H45.632V276.384V277H44.792ZM45.632 273.96H46.72C47.448 273.96 47.768 273.576 47.768 273.04C47.768 272.504 47.448 272.112 46.72 272.112H45.632V273.96ZM51.1428 277.12C49.9668 277.12 49.0788 276.28 49.0788 275.04C49.0788 273.808 49.9668 272.984 51.1428 272.984C52.3188 272.984 53.2068 273.808 53.2068 275.04C53.2068 276.28 52.3188 277.12 51.1428 277.12ZM51.1428 276.368C51.8628 276.368 52.3748 275.824 52.3748 275.04C52.3748 274.272 51.8708 273.744 51.1428 273.744C50.4068 273.744 49.9108 274.272 49.9108 275.04C49.9108 275.824 50.4148 276.368 51.1428 276.368ZM55.9943 277.12C54.8183 277.12 53.9303 276.28 53.9303 275.04C53.9303 273.808 54.8183 272.984 55.9943 272.984C57.1703 272.984 58.0583 273.808 58.0583 275.04C58.0583 276.28 57.1703 277.12 55.9943 277.12ZM55.9943 276.368C56.7143 276.368 57.2263 275.824 57.2263 275.04C57.2263 274.272 56.7223 273.744 55.9943 273.744C55.2583 273.744 54.7623 274.272 54.7623 275.04C54.7623 275.824 55.2663 276.368 55.9943 276.368ZM59.0779 277V276.416V273.84V273.104H59.8139V273.832C59.9819 273.32 60.3739 273.024 60.9099 273.024C61.0539 273.024 61.1979 273.048 61.2619 273.08V273.84C61.1659 273.816 61.0059 273.8 60.8459 273.8C60.3979 273.8 60.0219 274.04 59.8859 274.552V276.408V277H59.0779Z" fill="black"/>
<circle cx="125.334" cy="274.5" r="4" fill="#FEB268"/>
<path d="M134.126 277V276.36V272.016V271.4H137.582V272.16H136.598H134.966V273.776H136.326H137.134V274.536H136.318H134.966V276.384V277H134.126ZM141.17 277.12C140.778 277.12 140.538 276.928 140.442 276.6C140.21 276.904 139.762 277.12 139.218 277.12C138.45 277.12 137.914 276.672 137.914 276.016C137.914 275.368 138.354 274.936 139.186 274.792L140.386 274.592C140.378 274.016 140.042 273.712 139.41 273.712C138.754 273.712 138.338 273.96 138.018 274.472C138.018 273.504 138.618 272.984 139.61 272.984C140.618 272.984 141.186 273.52 141.186 274.536V276.016C141.186 276.272 141.314 276.432 141.57 276.432C141.73 276.432 141.866 276.368 141.962 276.256C141.962 276.856 141.594 277.12 141.17 277.12ZM138.754 275.928C138.754 276.24 139.026 276.464 139.45 276.464C139.866 276.464 140.202 276.28 140.386 275.96V275.112L139.442 275.288C138.946 275.384 138.754 275.616 138.754 275.928ZM142.646 277V276.416V273.992V273.104H143.454V276.384V277H142.646ZM143.054 272.376C142.734 272.376 142.502 272.152 142.502 271.84C142.502 271.536 142.734 271.296 143.054 271.296C143.366 271.296 143.598 271.536 143.598 271.84C143.598 272.152 143.366 272.376 143.054 272.376ZM144.763 277V276.416V273.84V273.104H145.499V273.832C145.667 273.32 146.059 273.024 146.595 273.024C146.739 273.024 146.883 273.048 146.947 273.08V273.84C146.851 273.816 146.691 273.8 146.531 273.8C146.083 273.8 145.707 274.04 145.571 274.552V276.408V277H144.763Z" fill="black"/>
<circle cx="210.666" cy="274.5" r="4" fill="#08E44A"/>
<path d="M221.962 277.12C220.21 277.12 219.114 276 219.114 274.216C219.114 272.456 220.282 271.28 222.114 271.28C223.034 271.28 223.674 271.568 224.146 271.952V272.96C223.778 272.44 223.058 272.064 222.114 272.064C220.802 272.064 219.994 272.856 219.994 274.208C219.994 275.528 220.754 276.336 222.002 276.336C222.578 276.336 223.066 276.176 223.354 275.896V274.768H221.53V274.032H224.186V274.672V276.264C223.682 276.8 222.898 277.12 221.962 277.12ZM227.168 277.12C225.992 277.12 225.104 276.28 225.104 275.04C225.104 273.808 225.992 272.984 227.168 272.984C228.344 272.984 229.232 273.808 229.232 275.04C229.232 276.28 228.344 277.12 227.168 277.12ZM227.168 276.368C227.888 276.368 228.4 275.824 228.4 275.04C228.4 274.272 227.896 273.744 227.168 273.744C226.432 273.744 225.936 274.272 225.936 275.04C225.936 275.824 226.44 276.368 227.168 276.368ZM232.02 277.12C230.844 277.12 229.956 276.28 229.956 275.04C229.956 273.808 230.844 272.984 232.02 272.984C233.196 272.984 234.084 273.808 234.084 275.04C234.084 276.28 233.196 277.12 232.02 277.12ZM232.02 276.368C232.74 276.368 233.252 275.824 233.252 275.04C233.252 274.272 232.748 273.744 232.02 273.744C231.284 273.744 230.788 274.272 230.788 275.04C230.788 275.824 231.292 276.368 232.02 276.368ZM237.967 272.048V271.16H238.767V276.352V277H237.967V276.496C237.711 276.904 237.215 277.12 236.679 277.12C235.607 277.12 234.807 276.32 234.807 275.056C234.807 273.792 235.607 272.984 236.679 272.984C237.223 272.984 237.711 273.2 237.967 273.608V272.048ZM235.639 275.056C235.639 275.84 236.135 276.368 236.855 276.368C237.351 276.368 237.775 276.104 237.967 275.6V274.512C237.775 274.008 237.359 273.744 236.855 273.744C236.135 273.744 235.639 274.28 235.639 275.056Z" fill="black"/>
<circle cx="303" cy="274.5" r="4" fill="#EF74E0"/>
<path d="M315.256 277H311.792V276.36V272.016V271.4H315.256V272.16H314.264H312.632V273.696H313.968H314.808V274.456H313.968H312.632V276.24H314.144H315.256V277ZM316.856 273.104L317.32 273.736L317.872 274.448L318.424 273.72L318.888 273.104H319.808L319.248 273.84L318.328 275.016L319.32 276.272L319.896 277H318.896L318.408 276.328L317.792 275.536L317.08 276.48L316.712 277H315.776L316.376 276.216L317.328 274.992L316.4 273.8L315.864 273.104H316.856ZM322.234 277.12C321.082 277.12 320.298 276.328 320.298 275.08C320.298 273.848 321.138 272.984 322.346 272.984C322.922 272.984 323.37 273.136 323.674 273.408V274.328C323.434 273.976 323.018 273.728 322.434 273.728C321.658 273.728 321.138 274.24 321.138 275.024C321.138 275.8 321.658 276.32 322.506 276.32C323.082 276.32 323.522 276.08 323.77 275.624C323.77 276.624 323.21 277.12 322.234 277.12ZM326.455 277.12C325.239 277.12 324.415 276.368 324.415 275.072C324.415 273.848 325.111 272.984 326.311 272.984C327.543 272.984 328.207 273.744 328.191 275.144H325.247C325.287 275.968 325.935 276.344 326.767 276.344C327.351 276.344 327.895 276.12 328.127 275.744C328.127 276.592 327.511 277.12 326.455 277.12ZM325.255 274.584H327.343C327.343 274.048 326.999 273.56 326.311 273.56C325.687 273.56 325.303 273.976 325.255 274.584ZM329.101 277V276.416V272.048V271.16H329.909V276.384V277H329.101ZM331.219 277V276.416V272.048V271.16H332.027V276.384V277H331.219ZM335.08 277.12C333.864 277.12 333.04 276.368 333.04 275.072C333.04 273.848 333.736 272.984 334.936 272.984C336.168 272.984 336.832 273.744 336.816 275.144H333.872C333.912 275.968 334.56 276.344 335.392 276.344C335.976 276.344 336.52 276.12 336.752 275.744C336.752 276.592 336.136 277.12 335.08 277.12ZM333.88 274.584H335.968C335.968 274.048 335.624 273.56 334.936 273.56C334.312 273.56 333.928 273.976 333.88 274.584ZM340.438 277V276.416V274.72C340.438 274.12 340.094 273.76 339.518 273.76C339.03 273.76 338.718 273.984 338.534 274.416V276.384V277H337.726V276.416V273.992V273.104H338.534V273.608C338.766 273.224 339.182 272.984 339.758 272.984C340.694 272.984 341.238 273.584 341.238 274.472V276.408V277H340.438ZM343.814 277.12C343.03 277.12 342.598 276.64 342.598 275.864V273.832H341.782L343.398 272.072V273.104H345.014V273.832H343.398V275.592C343.398 276.088 343.694 276.344 344.166 276.344C344.558 276.344 344.878 276.176 345.07 275.864C345.07 276.672 344.582 277.12 343.814 277.12Z" fill="black"/>
<rect width="346" height="108" transform="translate(16 296)" fill="white"/>
<path d="M32.4 325.96V323.8H41.424V325.96C40.448 324.824 40.128 324.84 39.552 324.84H37.744V333.752C37.744 334.152 37.744 334.152 38.352 335H35.408C36.08 334.104 36.08 334.104 36.08 333.688V324.84H34.256C33.696 324.84 33.36 324.84 32.4 325.96ZM47.857 335.24C47.025 335.24 46.513 334.808 46.369 333.992C45.905 334.696 44.993 335.24 43.921 335.24C42.449 335.24 41.393 334.392 41.393 333.176C41.393 331.928 42.401 331.112 44.161 330.808L46.337 330.44V330.232C46.337 328.936 45.569 328.216 44.177 328.216C43.009 328.216 42.209 328.664 41.601 329.608C41.793 327.928 43.009 326.968 44.817 326.968C46.817 326.968 47.937 328.056 47.937 330.072V333.208C47.937 333.736 48.225 334.04 48.705 334.04C49.025 334.04 49.297 333.912 49.489 333.688C49.409 334.648 48.737 335.24 47.857 335.24ZM43.041 332.872C43.041 333.656 43.681 334.104 44.577 334.104C45.377 334.104 45.985 333.736 46.337 333.192V331.128L44.561 331.464C43.505 331.64 43.041 332.184 43.041 332.872ZM50.3796 335C50.8756 334.312 50.8756 334.296 50.8756 333.8V328.776C50.8756 328.296 50.8756 328.056 50.3156 327.56L52.3476 327.096V328.92C52.8116 327.72 53.4676 327.048 54.5236 327.048C54.8276 327.048 55.0836 327.096 55.2436 327.176V328.6C54.9876 328.52 54.7316 328.504 54.3956 328.504C53.5796 328.504 52.8436 328.84 52.4756 329.72V333.8C52.4756 334.264 52.4756 334.264 53.1316 335H50.3796ZM59.4848 338.12C57.4208 338.12 55.9168 337.352 55.9168 336.168C55.9168 335.416 56.4608 334.84 57.5328 334.488C57.0368 334.248 56.7168 333.848 56.7168 333.304C56.7168 332.728 57.1488 332.232 57.7568 331.96C56.7968 331.528 56.2208 330.696 56.2208 329.624C56.2208 328.04 57.4688 326.968 59.2928 326.968C59.8048 326.968 60.2528 327.048 60.6688 327.208H63.5487L63.0528 328.312H62.0128C62.2368 328.696 62.3488 329.128 62.3488 329.624C62.3488 331.192 61.1008 332.264 59.2768 332.264C58.9888 332.264 58.6848 332.232 58.4448 332.184C58.1888 332.296 58.0128 332.472 58.0128 332.696C58.0128 333.032 58.2528 333.192 58.7488 333.272L61.2928 333.64C62.6528 333.832 63.3728 334.456 63.3728 335.528C63.3728 337.048 61.8368 338.12 59.4848 338.12ZM59.2768 331.464C60.2208 331.464 60.8448 330.744 60.8448 329.624C60.8448 328.488 60.2208 327.768 59.2768 327.768C58.3488 327.768 57.7248 328.488 57.7248 329.624C57.7248 330.744 58.3488 331.464 59.2768 331.464ZM57.3728 335.8C57.3728 336.68 58.3968 337.256 59.8048 337.256C61.2288 337.256 62.1728 336.776 62.1728 336.008C62.1728 335.496 61.8048 335.224 60.9728 335.096L58.2528 334.68C57.7888 334.872 57.3728 335.304 57.3728 335.8ZM68.5188 335.24C66.1188 335.24 64.4388 333.72 64.4388 331.144C64.4388 328.84 65.7988 326.968 68.2788 326.968C70.6468 326.968 72.0068 328.488 71.9908 330.824H66.0548C66.0548 332.792 67.3988 333.848 69.2068 333.848C70.3748 333.848 71.3348 333.48 71.8628 332.712C71.7188 334.184 70.5668 335.24 68.5188 335.24ZM66.0707 330.072H70.3428C70.3268 328.776 69.5908 327.736 68.2308 327.736C66.9348 327.736 66.1668 328.648 66.0707 330.072ZM76.5476 335.24C74.9476 335.24 74.1956 334.248 74.1956 332.84V328.312H72.5636L75.7956 325.144V327.208H79.2836L78.7876 328.312H75.7956V332.28C75.7956 333.336 76.4196 333.848 77.3796 333.848C78.1156 333.848 78.7236 333.576 79.1396 333.064C78.9316 334.392 77.9076 335.24 76.5476 335.24ZM87.0059 335.24C85.9019 335.24 85.0059 334.952 84.3179 334.392L84.1259 332.392C85.1339 333.736 86.2219 334.312 87.1819 334.312C87.8859 334.312 88.3819 333.928 88.3819 333.288C88.3819 332.712 88.1099 332.376 87.5179 332.12L85.8859 331.416C84.8779 330.968 84.3499 330.264 84.3499 329.288C84.3499 327.944 85.4859 326.968 87.1019 326.968C87.9499 326.968 88.7659 327.192 89.4219 327.672V329.416C88.7819 328.472 87.8539 327.88 86.9579 327.88C86.1899 327.88 85.7739 328.28 85.7739 328.856C85.7739 329.32 86.0459 329.688 86.6859 329.96L88.2539 330.648C89.2459 331.08 89.7899 331.736 89.7899 332.856C89.7899 334.216 88.6859 335.24 87.0059 335.24ZM95.0135 335.24C92.6775 335.24 91.1575 333.624 91.1575 331.176C91.1575 328.696 92.8215 326.968 95.2535 326.968C96.3895 326.968 97.3015 327.272 97.9095 327.8V329.704C97.2215 328.6 96.3895 328.024 95.2055 328.024C93.7335 328.024 92.7575 329.08 92.7575 330.792C92.7575 332.616 93.8615 333.832 95.6375 333.832C96.7095 333.832 97.5575 333.448 98.1015 332.584C97.9095 334.312 96.7895 335.24 95.0135 335.24ZM103.52 335.24C101.136 335.24 99.3919 333.544 99.3919 331.096C99.3919 328.648 101.136 326.968 103.52 326.968C105.904 326.968 107.648 328.648 107.648 331.096C107.648 333.544 105.904 335.24 103.52 335.24ZM103.6 334.232C105.024 334.232 105.952 333.128 105.952 331.368C105.952 329.32 104.96 327.992 103.44 327.992C102 327.992 101.088 329.08 101.088 330.824C101.088 332.888 102.08 334.232 103.6 334.232ZM109.192 335C109.688 334.312 109.688 334.296 109.688 333.8V328.776C109.688 328.296 109.688 328.056 109.128 327.56L111.16 327.096V328.92C111.624 327.72 112.28 327.048 113.336 327.048C113.64 327.048 113.896 327.096 114.056 327.176V328.6C113.8 328.52 113.544 328.504 113.208 328.504C112.392 328.504 111.656 328.84 111.288 329.72V333.8C111.288 334.264 111.288 334.264 111.944 335H109.192ZM118.878 335.24C116.478 335.24 114.798 333.72 114.798 331.144C114.798 328.84 116.158 326.968 118.638 326.968C121.006 326.968 122.366 328.488 122.35 330.824H116.414C116.414 332.792 117.758 333.848 119.566 333.848C120.734 333.848 121.694 333.48 122.222 332.712C122.078 334.184 120.926 335.24 118.878 335.24ZM116.43 330.072H120.702C120.686 328.776 119.95 327.736 118.59 327.736C117.294 327.736 116.526 328.648 116.43 330.072Z" fill="black"/>
<rect x="139.5" y="312.5" width="206" height="33" rx="7.5" fill="white"/>
<rect x="139.5" y="312.5" width="206" height="33" rx="7.5" stroke="black"/>
<path d="M259.2 337.36C255.552 337.36 253.08 335.104 253.08 331.216C253.08 327.544 255.168 324.952 258.768 324.952C262.464 324.952 264.456 327.232 264.408 331.432H255.576C255.696 333.904 257.64 335.032 260.136 335.032C261.888 335.032 263.52 334.36 264.216 333.232C264.216 335.776 262.368 337.36 259.2 337.36ZM255.6 329.752H261.864C261.864 328.144 260.832 326.68 258.768 326.68C256.896 326.68 255.744 327.928 255.6 329.752ZM269.373 337.36C268.365 337.36 267.549 336.544 267.549 335.536C267.549 334.504 268.365 333.712 269.373 333.712C270.405 333.712 271.173 334.504 271.173 335.536C271.173 336.544 270.405 337.36 269.373 337.36ZM278.977 341.68C276.025 341.68 273.721 340.552 273.721 338.704C273.721 337.504 274.513 336.616 275.953 336.064C275.377 335.704 274.945 335.104 274.945 334.336C274.945 333.52 275.497 332.872 276.193 332.512C274.969 331.84 274.201 330.616 274.201 329.08C274.201 326.608 276.049 324.952 278.785 324.952C279.529 324.952 280.201 325.072 280.825 325.312H284.809L284.785 327.496H283.105C283.297 327.976 283.393 328.504 283.393 329.08C283.393 331.48 281.497 333.112 278.761 333.112C278.401 333.112 278.065 333.088 277.729 333.016C277.441 333.136 277.201 333.352 277.201 333.64C277.201 334.096 277.513 334.312 278.353 334.456L281.569 334.936C283.705 335.224 284.905 336.112 284.905 337.84C284.905 340.096 282.697 341.68 278.977 341.68ZM278.761 331.336C280.153 331.336 281.137 330.424 281.137 329.08C281.137 327.664 280.153 326.752 278.761 326.752C277.417 326.752 276.457 327.664 276.457 329.08C276.457 330.424 277.417 331.336 278.761 331.336ZM276.145 338.176C276.145 339.328 277.609 339.952 279.409 339.952C281.329 339.952 282.553 339.304 282.553 338.248C282.553 337.504 282.001 337.192 280.921 337.024L277.657 336.568C276.937 336.832 276.145 337.408 276.145 338.176ZM297.827 337.36C295.835 337.36 293.939 336.472 293.051 335.152V332.392C294.179 334.192 295.739 335.08 297.635 335.08C300.059 335.08 301.667 333.64 301.667 331.504C301.667 329.08 299.699 327.76 297.035 327.76C296.291 327.76 295.595 327.856 294.803 328.048L299.771 322.48H293.315V320.2H304.475L299.267 326.008C302.387 326.392 304.187 328.552 304.187 331.6C304.187 335.056 301.643 337.36 297.827 337.36ZM313.593 337.36C309.465 337.36 307.017 334.168 307.017 328.6C307.017 323.032 309.465 319.84 313.593 319.84C317.697 319.84 320.169 323.032 320.169 328.6C320.169 334.168 317.697 337.36 313.593 337.36ZM313.593 335.056C316.281 335.056 317.649 332.992 317.649 328.6C317.649 324.208 316.281 322.144 313.593 322.144C310.881 322.144 309.537 324.208 309.537 328.6C309.537 332.992 310.881 335.056 313.593 335.056ZM329.531 337.36C325.403 337.36 322.955 334.168 322.955 328.6C322.955 323.032 325.403 319.84 329.531 319.84C333.635 319.84 336.107 323.032 336.107 328.6C336.107 334.168 333.635 337.36 329.531 337.36ZM329.531 335.056C332.219 335.056 333.587 332.992 333.587 328.6C333.587 324.208 332.219 322.144 329.531 322.144C326.819 322.144 325.475 324.208 325.475 328.6C325.475 332.992 326.819 335.056 329.531 335.056Z" fill="#CCCCCC"/>
<path d="M33.188 373V372.04V365.524V364.6H34.268L37.316 368.992L40.352 364.6H41.432V365.56V372.076V373H40.22V371.992V366.76L37.316 371.068L34.4 366.76V372.076V373H33.188ZM46.1126 373.18C44.3486 373.18 43.0166 371.92 43.0166 370.06C43.0166 368.212 44.3486 366.976 46.1126 366.976C47.8766 366.976 49.2086 368.212 49.2086 370.06C49.2086 371.92 47.8766 373.18 46.1126 373.18ZM46.1126 372.052C47.1926 372.052 47.9606 371.236 47.9606 370.06C47.9606 368.908 47.2046 368.116 46.1126 368.116C45.0086 368.116 44.2646 368.908 44.2646 370.06C44.2646 371.236 45.0206 372.052 46.1126 372.052ZM52.3819 373.18C51.5179 373.18 50.8219 372.904 50.3059 372.376V371.08C50.7859 371.74 51.6259 372.172 52.3699 372.172C52.9459 372.172 53.2459 371.908 53.2459 371.488C53.2459 371.116 53.0659 370.912 52.6699 370.744L51.5899 370.276C50.8219 369.94 50.4259 369.436 50.4259 368.68C50.4259 367.696 51.2779 366.976 52.4779 366.976C53.1739 366.976 53.7499 367.156 54.2299 367.54V368.764C53.8699 368.32 53.1259 367.96 52.5139 367.96C51.9979 367.96 51.6739 368.212 51.6739 368.584C51.6739 368.944 51.8899 369.136 52.2979 369.304L53.3899 369.784C54.1099 370.096 54.4939 370.612 54.4939 371.38C54.4939 372.448 53.6179 373.18 52.3819 373.18ZM58.0527 373.18C56.8768 373.18 56.2288 372.46 56.2288 371.296V368.248H55.0048L57.4288 365.608V367.156H59.8528V368.248H57.4288V370.888C57.4288 371.632 57.8728 372.016 58.5808 372.016C59.1688 372.016 59.6488 371.764 59.9368 371.296C59.9368 372.508 59.2048 373.18 58.0527 373.18ZM64.1207 368.488V367.156H65.3327V367.9C65.7287 367.288 66.4607 366.976 67.2527 366.976C68.8727 366.976 70.0727 368.176 70.0727 370.072C70.0727 371.98 68.8727 373.18 67.2527 373.18C66.4487 373.18 65.7167 372.868 65.3327 372.268V374.236V375.16H64.1207V374.284V368.488ZM65.3327 370.924C65.6327 371.68 66.2447 372.052 66.9887 372.052C68.0687 372.052 68.8127 371.236 68.8127 370.072C68.8127 368.908 68.0687 368.116 66.9887 368.116C66.2567 368.116 65.6327 368.476 65.3327 369.232V370.924ZM74.2367 373.18C72.4127 373.18 71.1767 372.052 71.1767 370.108C71.1767 368.272 72.2207 366.976 74.0207 366.976C75.8687 366.976 76.8647 368.116 76.8407 370.216H72.4247C72.4847 371.452 73.4567 372.016 74.7047 372.016C75.5807 372.016 76.3967 371.68 76.7447 371.116C76.7447 372.388 75.8207 373.18 74.2367 373.18ZM72.4367 369.376H75.5687C75.5687 368.572 75.0527 367.84 74.0207 367.84C73.0847 367.84 72.5087 368.464 72.4367 369.376ZM80.929 373.18C79.165 373.18 77.833 371.92 77.833 370.06C77.833 368.212 79.165 366.976 80.929 366.976C82.693 366.976 84.025 368.212 84.025 370.06C84.025 371.92 82.693 373.18 80.929 373.18ZM80.929 372.052C82.009 372.052 82.777 371.236 82.777 370.06C82.777 368.908 82.021 368.116 80.929 368.116C79.825 368.116 79.081 368.908 79.081 370.06C79.081 371.236 79.837 372.052 80.929 372.052ZM85.5543 368.488V367.156H86.7663V367.9C87.1623 367.288 87.8943 366.976 88.6863 366.976C90.3063 366.976 91.5063 368.176 91.5063 370.072C91.5063 371.98 90.3063 373.18 88.6863 373.18C87.8823 373.18 87.1503 372.868 86.7663 372.268V374.236V375.16H85.5543V374.284V368.488ZM86.7663 370.924C87.0663 371.68 87.6783 372.052 88.4223 372.052C89.5023 372.052 90.2463 371.236 90.2463 370.072C90.2463 368.908 89.5023 368.116 88.4223 368.116C87.6903 368.116 87.0663 368.476 86.7663 369.232V370.924ZM93.0309 373V372.124V365.572V364.24H94.2429V372.076V373H93.0309ZM98.8227 373.18C96.9987 373.18 95.7627 372.052 95.7627 370.108C95.7627 368.272 96.8067 366.976 98.6067 366.976C100.455 366.976 101.451 368.116 101.427 370.216H97.0107C97.0707 371.452 98.0427 372.016 99.2907 372.016C100.167 372.016 100.983 371.68 101.331 371.116C101.331 372.388 100.407 373.18 98.8227 373.18ZM97.0227 369.376H100.155C100.155 368.572 99.6387 367.84 98.6067 367.84C97.6707 367.84 97.0947 368.464 97.0227 369.376ZM105.863 373V372.124V368.488V367.156H107.075V372.076V373H105.863ZM106.475 366.064C105.995 366.064 105.647 365.728 105.647 365.26C105.647 364.804 105.995 364.444 106.475 364.444C106.943 364.444 107.291 364.804 107.291 365.26C107.291 365.728 106.943 366.064 106.475 366.064ZM109.039 373V372.124V368.488V367.156H110.251V367.816C110.623 367.3 111.223 366.976 111.967 366.976C112.819 366.976 113.455 367.336 113.803 367.924C114.163 367.396 114.787 366.976 115.711 366.976C117.151 366.976 117.991 367.876 117.991 369.208V372.136V373H116.791V372.124V369.556C116.791 368.68 116.287 368.14 115.471 368.14C114.799 368.14 114.367 368.5 114.115 369.112V369.208V372.136V373H112.915V372.124V369.556C112.915 368.68 112.423 368.14 111.607 368.14C110.971 368.14 110.563 368.464 110.251 369.04V372.076V373H109.039ZM119.867 368.488V367.156H121.079V367.9C121.475 367.288 122.207 366.976 122.999 366.976C124.619 366.976 125.819 368.176 125.819 370.072C125.819 371.98 124.619 373.18 122.999 373.18C122.195 373.18 121.463 372.868 121.079 372.268V374.236V375.16H119.867V374.284V368.488ZM121.079 370.924C121.379 371.68 121.991 372.052 122.735 372.052C123.815 372.052 124.559 371.236 124.559 370.072C124.559 368.908 123.815 368.116 122.735 368.116C122.003 368.116 121.379 368.476 121.079 369.232V370.924ZM127.343 373V372.124V368.26V367.156H128.447V368.248C128.699 367.48 129.287 367.036 130.091 367.036C130.307 367.036 130.523 367.072 130.619 367.12V368.26C130.475 368.224 130.235 368.2 129.995 368.2C129.323 368.2 128.759 368.56 128.555 369.328V372.112V373H127.343ZM134.284 373.18C132.52 373.18 131.188 371.92 131.188 370.06C131.188 368.212 132.52 366.976 134.284 366.976C136.048 366.976 137.38 368.212 137.38 370.06C137.38 371.92 136.048 373.18 134.284 373.18ZM134.284 372.052C135.364 372.052 136.132 371.236 136.132 370.06C136.132 368.908 135.376 368.116 134.284 368.116C133.18 368.116 132.436 368.908 132.436 370.06C132.436 371.236 133.192 372.052 134.284 372.052ZM139.296 367.156L139.728 368.32L140.964 371.548L142.212 368.284L142.632 367.156H143.952L143.46 368.38L141.6 373H140.328L138.468 368.392L137.976 367.156H139.296ZM147.643 373.18C145.819 373.18 144.583 372.052 144.583 370.108C144.583 368.272 145.627 366.976 147.427 366.976C149.275 366.976 150.271 368.116 150.247 370.216H145.831C145.891 371.452 146.863 372.016 148.111 372.016C148.987 372.016 149.803 371.68 150.151 371.116C150.151 372.388 149.227 373.18 147.643 373.18ZM145.843 369.376H148.975C148.975 368.572 148.459 367.84 147.427 367.84C146.491 367.84 145.915 368.464 145.843 369.376ZM154.683 365.572V364.24H155.895V367.972C156.279 367.312 157.023 366.976 157.863 366.976C159.483 366.976 160.683 368.176 160.683 370.072C160.683 371.98 159.483 373.18 157.863 373.18C157.023 373.18 156.267 372.832 155.895 372.184V373H154.683V365.572ZM155.895 370.792C156.171 371.62 156.819 372.052 157.599 372.052C158.679 372.052 159.423 371.236 159.423 370.072C159.423 368.908 158.679 368.116 157.599 368.116C156.819 368.116 156.159 368.548 155.895 369.352V370.792ZM162.185 375.16L162.701 374.056L163.517 372.34L161.645 368.212L161.177 367.156H162.533L162.977 368.224L164.213 370.96L165.377 368.272L165.833 367.156H167.165L166.673 368.272L163.565 375.16H162.185ZM173.413 373.18C172.417 373.18 171.589 372.844 170.929 372.208V370.888C171.601 371.68 172.381 372.064 173.305 372.064C174.493 372.064 175.249 371.404 175.249 370.288C175.249 369.184 174.409 368.524 173.089 368.524C172.465 368.524 171.697 368.68 171.349 368.884L172.321 364.6H176.509V365.74H173.113L172.705 367.636C172.969 367.576 173.281 367.54 173.569 367.54C175.381 367.54 176.509 368.584 176.509 370.24C176.509 372.052 175.225 373.18 173.413 373.18ZM181.226 373.18C179.162 373.18 177.938 371.584 177.938 368.8C177.938 366.016 179.162 364.42 181.226 364.42C183.278 364.42 184.514 366.016 184.514 368.8C184.514 371.584 183.278 373.18 181.226 373.18ZM181.226 372.028C182.57 372.028 183.254 370.996 183.254 368.8C183.254 366.604 182.57 365.572 181.226 365.572C179.87 365.572 179.198 366.604 179.198 368.8C179.198 370.996 179.87 372.028 181.226 372.028ZM189.57 369.004V369.976H186.162V369.004H189.57ZM191.619 373V372.04V366.292H189.903L192.615 364.48H192.819V372.076V373H191.619ZM198.031 373.18C195.967 373.18 194.743 371.584 194.743 368.8C194.743 366.016 195.967 364.42 198.031 364.42C200.083 364.42 201.319 366.016 201.319 368.8C201.319 371.584 200.083 373.18 198.031 373.18ZM198.031 372.028C199.375 372.028 200.059 370.996 200.059 368.8C200.059 366.604 199.375 365.572 198.031 365.572C196.675 365.572 196.003 366.604 196.003 368.8C196.003 370.996 196.675 372.028 198.031 372.028ZM206 373.18C203.936 373.18 202.712 371.584 202.712 368.8C202.712 366.016 203.936 364.42 206 364.42C208.052 364.42 209.288 366.016 209.288 368.8C209.288 371.584 208.052 373.18 206 373.18ZM206 372.028C207.344 372.028 208.028 370.996 208.028 368.8C208.028 366.604 207.344 365.572 206 365.572C204.644 365.572 203.972 366.604 203.972 368.8C203.972 370.996 204.644 372.028 206 372.028ZM213.968 368.488V367.156H215.18V367.9C215.576 367.288 216.308 366.976 217.1 366.976C218.72 366.976 219.92 368.176 219.92 370.072C219.92 371.98 218.72 373.18 217.1 373.18C216.296 373.18 215.564 372.868 215.18 372.268V374.236V375.16H213.968V374.284V368.488ZM215.18 370.924C215.48 371.68 216.092 372.052 216.836 372.052C217.916 372.052 218.66 371.236 218.66 370.072C218.66 368.908 217.916 368.116 216.836 368.116C216.104 368.116 215.48 368.476 215.18 369.232V370.924ZM224.097 373.18C222.333 373.18 221.001 371.92 221.001 370.06C221.001 368.212 222.333 366.976 224.097 366.976C225.861 366.976 227.193 368.212 227.193 370.06C227.193 371.92 225.861 373.18 224.097 373.18ZM224.097 372.052C225.177 372.052 225.945 371.236 225.945 370.06C225.945 368.908 225.189 368.116 224.097 368.116C222.993 368.116 222.249 368.908 222.249 370.06C222.249 371.236 223.005 372.052 224.097 372.052ZM228.722 373V372.124V368.488V367.156H229.934V372.076V373H228.722ZM229.334 366.064C228.854 366.064 228.506 365.728 228.506 365.26C228.506 364.804 228.854 364.444 229.334 364.444C229.802 364.444 230.15 364.804 230.15 365.26C230.15 365.728 229.802 366.064 229.334 366.064ZM235.966 373V372.124V369.58C235.966 368.68 235.45 368.14 234.586 368.14C233.854 368.14 233.386 368.476 233.11 369.124V372.076V373H231.898V372.124V368.488V367.156H233.11V367.912C233.458 367.336 234.082 366.976 234.946 366.976C236.35 366.976 237.166 367.876 237.166 369.208V372.112V373H235.966ZM241.029 373.18C239.853 373.18 239.205 372.46 239.205 371.296V368.248H237.981L240.405 365.608V367.156H242.829V368.248H240.405V370.888C240.405 371.632 240.849 372.016 241.557 372.016C242.145 372.016 242.625 371.764 242.913 371.296C242.913 372.508 242.181 373.18 241.029 373.18ZM245.765 373.18C244.901 373.18 244.205 372.904 243.689 372.376V371.08C244.169 371.74 245.009 372.172 245.753 372.172C246.329 372.172 246.629 371.908 246.629 371.488C246.629 371.116 246.449 370.912 246.053 370.744L244.973 370.276C244.205 369.94 243.809 369.436 243.809 368.68C243.809 367.696 244.661 366.976 245.861 366.976C246.557 366.976 247.133 367.156 247.613 367.54V368.764C247.253 368.32 246.509 367.96 245.897 367.96C245.381 367.96 245.057 368.212 245.057 368.584C245.057 368.944 245.273 369.136 245.681 369.304L246.773 369.784C247.493 370.096 247.877 370.612 247.877 371.38C247.877 372.448 247.001 373.18 245.765 373.18ZM252.336 373V372.124V368.488V367.156H253.548V372.076V373H252.336ZM252.948 366.064C252.468 366.064 252.12 365.728 252.12 365.26C252.12 364.804 252.468 364.444 252.948 364.444C253.416 364.444 253.764 364.804 253.764 365.26C253.764 365.728 253.416 366.064 252.948 366.064ZM259.579 373V372.124V369.58C259.579 368.68 259.063 368.14 258.199 368.14C257.467 368.14 256.999 368.476 256.723 369.124V372.076V373H255.511V372.124V368.488V367.156H256.723V367.912C257.071 367.336 257.695 366.976 258.559 366.976C259.963 366.976 260.779 367.876 260.779 369.208V372.112V373H259.579ZM268.624 373.18C266.56 373.18 265.36 371.764 265.36 369.244C265.36 366.412 267.112 364.42 269.572 364.42C270.772 364.42 271.516 364.936 271.624 365.608C271.168 365.44 270.784 365.38 270.088 365.38C268.24 365.38 266.884 366.58 266.668 368.764C267.124 368.008 267.82 367.672 268.792 367.672C270.4 367.672 271.48 368.752 271.48 370.348C271.48 372.028 270.268 373.18 268.624 373.18ZM266.68 370.024C266.836 371.452 267.508 372.112 268.504 372.112C269.476 372.112 270.184 371.452 270.184 370.408C270.184 369.424 269.512 368.728 268.504 368.728C267.616 368.728 266.968 369.184 266.68 370.024ZM276.277 369.004V369.976H272.869V369.004H276.277ZM278.326 373V372.04V366.292H276.61L279.322 364.48H279.526V372.076V373H278.326ZM283.817 369.604C284.765 368.428 285.137 367.912 285.137 367.096C285.137 366.076 284.465 365.548 283.505 365.548C282.485 365.548 281.681 366.064 281.165 367.132C281.201 365.488 282.293 364.42 283.961 364.42C285.425 364.42 286.457 365.26 286.457 366.784C286.457 367.9 286.049 368.668 284.789 370.156L283.409 371.776H286.673V373H281.081L283.817 369.604ZM291.418 373V372.124V368.488V367.156H292.63V367.816C293.002 367.3 293.602 366.976 294.346 366.976C295.198 366.976 295.834 367.336 296.182 367.924C296.542 367.396 297.166 366.976 298.09 366.976C299.53 366.976 300.37 367.876 300.37 369.208V372.136V373H299.17V372.124V369.556C299.17 368.68 298.666 368.14 297.85 368.14C297.178 368.14 296.746 368.5 296.494 369.112V369.208V372.136V373H295.294V372.124V369.556C295.294 368.68 294.802 368.14 293.986 368.14C293.35 368.14 292.942 368.464 292.63 369.04V372.076V373H291.418ZM304.816 373.18C303.052 373.18 301.72 371.92 301.72 370.06C301.72 368.212 303.052 366.976 304.816 366.976C306.58 366.976 307.912 368.212 307.912 370.06C307.912 371.92 306.58 373.18 304.816 373.18ZM304.816 372.052C305.896 372.052 306.664 371.236 306.664 370.06C306.664 368.908 305.908 368.116 304.816 368.116C303.712 368.116 302.968 368.908 302.968 370.06C302.968 371.236 303.724 372.052 304.816 372.052ZM313.509 373V372.124V369.58C313.509 368.68 312.993 368.14 312.129 368.14C311.397 368.14 310.929 368.476 310.653 369.124V372.076V373H309.441V372.124V368.488V367.156H310.653V367.912C311.001 367.336 311.625 366.976 312.489 366.976C313.893 366.976 314.709 367.876 314.709 369.208V372.112V373H313.509ZM318.572 373.18C317.396 373.18 316.748 372.46 316.748 371.296V368.248H315.524L317.948 365.608V367.156H320.372V368.248H317.948V370.888C317.948 371.632 318.392 372.016 319.1 372.016C319.688 372.016 320.168 371.764 320.456 371.296C320.456 372.508 319.724 373.18 318.572 373.18ZM325.708 373V372.124V369.58C325.708 368.68 325.192 368.14 324.328 368.14C323.596 368.14 323.128 368.476 322.852 369.124V372.076V373H321.64V372.124V365.572V364.24H322.852V367.912C323.2 367.336 323.824 366.976 324.688 366.976C326.092 366.976 326.908 367.876 326.908 369.208V372.112V373H325.708ZM330.327 373.18C329.463 373.18 328.767 372.904 328.251 372.376V371.08C328.731 371.74 329.571 372.172 330.315 372.172C330.891 372.172 331.191 371.908 331.191 371.488C331.191 371.116 331.011 370.912 330.615 370.744L329.535 370.276C328.767 369.94 328.371 369.436 328.371 368.68C328.371 367.696 329.223 366.976 330.423 366.976C331.119 366.976 331.695 367.156 332.175 367.54V368.764C331.815 368.32 331.071 367.96 330.459 367.96C329.943 367.96 329.619 368.212 329.619 368.584C329.619 368.944 329.835 369.136 330.243 369.304L331.335 369.784C332.055 370.096 332.439 370.612 332.439 371.38C332.439 372.448 331.563 373.18 330.327 373.18ZM33.548 380.156L33.908 381.308L34.952 384.596L36.476 380.156H37.64L39.164 384.56L40.196 381.344L40.568 380.156H41.852L41.432 381.38L39.776 386H38.6L37.052 381.704L35.504 386H34.34L32.684 381.392L32.252 380.156H33.548ZM43.0387 386V385.124V381.488V380.156H44.2507V385.076V386H43.0387ZM43.6507 379.064C43.1707 379.064 42.8227 378.728 42.8227 378.26C42.8227 377.804 43.1707 377.444 43.6507 377.444C44.1187 377.444 44.4667 377.804 44.4667 378.26C44.4667 378.728 44.1187 379.064 43.6507 379.064ZM48.3027 386.18C47.1268 386.18 46.4788 385.46 46.4788 384.296V381.248H45.2548L47.6788 378.608V380.156H50.1028V381.248H47.6788V383.888C47.6788 384.632 48.1228 385.016 48.8308 385.016C49.4188 385.016 49.8988 384.764 50.1868 384.296C50.1868 385.508 49.4548 386.18 48.3027 386.18ZM55.4387 386V385.124V382.58C55.4387 381.68 54.9227 381.14 54.0587 381.14C53.3267 381.14 52.8587 381.476 52.5827 382.124V385.076V386H51.3707V385.124V378.572V377.24H52.5827V380.912C52.9307 380.336 53.5547 379.976 54.4187 379.976C55.8227 379.976 56.6387 380.876 56.6387 382.208V385.112V386H55.4387ZM63.9674 386.18C62.2394 386.18 61.0634 384.992 61.0634 383.12C61.0634 381.272 62.3234 379.976 64.1354 379.976C64.9994 379.976 65.6714 380.204 66.1274 380.612V381.992C65.7674 381.464 65.1434 381.092 64.2674 381.092C63.1034 381.092 62.3234 381.86 62.3234 383.036C62.3234 384.2 63.1034 384.98 64.3754 384.98C65.2394 384.98 65.8994 384.62 66.2714 383.936C66.2714 385.436 65.4314 386.18 63.9674 386.18ZM70.3352 386.18C68.5712 386.18 67.2392 384.92 67.2392 383.06C67.2392 381.212 68.5712 379.976 70.3352 379.976C72.0992 379.976 73.4312 381.212 73.4312 383.06C73.4312 384.92 72.0992 386.18 70.3352 386.18ZM70.3352 385.052C71.4152 385.052 72.1832 384.236 72.1832 383.06C72.1832 381.908 71.4272 381.116 70.3352 381.116C69.2312 381.116 68.4872 381.908 68.4872 383.06C68.4872 384.236 69.2432 385.052 70.3352 385.052ZM79.0286 386V385.124V382.58C79.0286 381.68 78.5126 381.14 77.6486 381.14C76.9166 381.14 76.4486 381.476 76.1726 382.124V385.076V386H74.9606V385.124V381.488V380.156H76.1726V380.912C76.5206 380.336 77.1446 379.976 78.0086 379.976C79.4126 379.976 80.2286 380.876 80.2286 382.208V385.112V386H79.0286ZM83.6475 386.18C82.7835 386.18 82.0875 385.904 81.5715 385.376V384.08C82.0515 384.74 82.8915 385.172 83.6355 385.172C84.2115 385.172 84.5115 384.908 84.5115 384.488C84.5115 384.116 84.3315 383.912 83.9355 383.744L82.8555 383.276C82.0875 382.94 81.6915 382.436 81.6915 381.68C81.6915 380.696 82.5435 379.976 83.7435 379.976C84.4395 379.976 85.0155 380.156 85.4955 380.54V381.764C85.1355 381.32 84.3915 380.96 83.7795 380.96C83.2635 380.96 82.9395 381.212 82.9395 381.584C82.9395 381.944 83.1555 382.136 83.5635 382.304L84.6555 382.784C85.3755 383.096 85.7595 383.612 85.7595 384.38C85.7595 385.448 84.8835 386.18 83.6475 386.18ZM87.2184 386V385.124V381.488V380.156H88.4304V385.076V386H87.2184ZM87.8304 379.064C87.3504 379.064 87.0024 378.728 87.0024 378.26C87.0024 377.804 87.3504 377.444 87.8304 377.444C88.2984 377.444 88.6464 377.804 88.6464 378.26C88.6464 378.728 88.2984 379.064 87.8304 379.064ZM91.9913 386.18C91.1273 386.18 90.4313 385.904 89.9153 385.376V384.08C90.3953 384.74 91.2353 385.172 91.9793 385.172C92.5553 385.172 92.8553 384.908 92.8553 384.488C92.8553 384.116 92.6753 383.912 92.2793 383.744L91.1993 383.276C90.4313 382.94 90.0353 382.436 90.0353 381.68C90.0353 380.696 90.8873 379.976 92.0873 379.976C92.7833 379.976 93.3593 380.156 93.8393 380.54V381.764C93.4793 381.32 92.7353 380.96 92.1233 380.96C91.6073 380.96 91.2833 381.212 91.2833 381.584C91.2833 381.944 91.4993 382.136 91.9073 382.304L92.9993 382.784C93.7193 383.096 94.1033 383.612 94.1033 384.38C94.1033 385.448 93.2273 386.18 91.9913 386.18ZM97.6621 386.18C96.4861 386.18 95.8381 385.46 95.8381 384.296V381.248H94.6141L97.0381 378.608V380.156H99.4621V381.248H97.0381V383.888C97.0381 384.632 97.4821 385.016 98.1901 385.016C98.7781 385.016 99.2581 384.764 99.5461 384.296C99.5461 385.508 98.8141 386.18 97.6621 386.18ZM103.346 386.18C101.522 386.18 100.286 385.052 100.286 383.108C100.286 381.272 101.33 379.976 103.13 379.976C104.978 379.976 105.974 381.116 105.95 383.216H101.534C101.594 384.452 102.566 385.016 103.814 385.016C104.69 385.016 105.506 384.68 105.854 384.116C105.854 385.388 104.93 386.18 103.346 386.18ZM101.546 382.376H104.678C104.678 381.572 104.162 380.84 103.13 380.84C102.194 380.84 101.618 381.464 101.546 382.376ZM111.384 386V385.124V382.58C111.384 381.68 110.868 381.14 110.004 381.14C109.272 381.14 108.804 381.476 108.528 382.124V385.076V386H107.316V385.124V381.488V380.156H108.528V380.912C108.876 380.336 109.5 379.976 110.364 379.976C111.768 379.976 112.584 380.876 112.584 382.208V385.112V386H111.384ZM116.447 386.18C115.271 386.18 114.623 385.46 114.623 384.296V381.248H113.399L115.823 378.608V380.156H118.247V381.248H115.823V383.888C115.823 384.632 116.267 385.016 116.975 385.016C117.563 385.016 118.043 384.764 118.331 384.296C118.331 385.508 117.599 386.18 116.447 386.18ZM122.515 378.572V377.24H123.727V380.972C124.111 380.312 124.855 379.976 125.695 379.976C127.315 379.976 128.515 381.176 128.515 383.072C128.515 384.98 127.315 386.18 125.695 386.18C124.855 386.18 124.099 385.832 123.727 385.184V386H122.515V378.572ZM123.727 383.792C124.003 384.62 124.651 385.052 125.431 385.052C126.511 385.052 127.255 384.236 127.255 383.072C127.255 381.908 126.511 381.116 125.431 381.116C124.651 381.116 123.991 381.548 123.727 382.352V383.792ZM132.666 386.18C130.842 386.18 129.606 385.052 129.606 383.108C129.606 381.272 130.65 379.976 132.45 379.976C134.298 379.976 135.294 381.116 135.27 383.216H130.854C130.914 384.452 131.886 385.016 133.134 385.016C134.01 385.016 134.826 384.68 135.174 384.116C135.174 385.388 134.25 386.18 132.666 386.18ZM130.866 382.376H133.998C133.998 381.572 133.482 380.84 132.45 380.84C131.514 380.84 130.938 381.464 130.866 382.376ZM140.704 386V385.124V382.58C140.704 381.68 140.188 381.14 139.324 381.14C138.592 381.14 138.124 381.476 137.848 382.124V385.076V386H136.636V385.124V378.572V377.24H137.848V380.912C138.196 380.336 138.82 379.976 139.684 379.976C141.088 379.976 141.904 380.876 141.904 382.208V385.112V386H140.704ZM148.157 386.18C147.569 386.18 147.209 385.892 147.065 385.4C146.717 385.856 146.045 386.18 145.229 386.18C144.077 386.18 143.273 385.508 143.273 384.524C143.273 383.552 143.933 382.904 145.181 382.688L146.981 382.388C146.969 381.524 146.465 381.068 145.517 381.068C144.533 381.068 143.909 381.44 143.429 382.208C143.429 380.756 144.329 379.976 145.817 379.976C147.329 379.976 148.181 380.78 148.181 382.304V384.524C148.181 384.908 148.373 385.148 148.757 385.148C148.997 385.148 149.201 385.052 149.345 384.884C149.345 385.784 148.793 386.18 148.157 386.18ZM144.533 384.392C144.533 384.86 144.941 385.196 145.577 385.196C146.201 385.196 146.705 384.92 146.981 384.44V383.168L145.565 383.432C144.821 383.576 144.533 383.924 144.533 384.392ZM150.441 380.156L150.873 381.32L152.109 384.548L153.357 381.284L153.777 380.156H155.097L154.605 381.38L152.745 386H151.473L149.613 381.392L149.121 380.156H150.441ZM156.242 386V385.124V381.488V380.156H157.454V385.076V386H156.242ZM156.854 379.064C156.374 379.064 156.026 378.728 156.026 378.26C156.026 377.804 156.374 377.444 156.854 377.444C157.322 377.444 157.67 377.804 157.67 378.26C157.67 378.728 157.322 379.064 156.854 379.064ZM162.07 386.18C160.306 386.18 158.974 384.92 158.974 383.06C158.974 381.212 160.306 379.976 162.07 379.976C163.834 379.976 165.166 381.212 165.166 383.06C165.166 384.92 163.834 386.18 162.07 386.18ZM162.07 385.052C163.15 385.052 163.918 384.236 163.918 383.06C163.918 381.908 163.162 381.116 162.07 381.116C160.966 381.116 160.222 381.908 160.222 383.06C160.222 384.236 160.978 385.052 162.07 385.052ZM170.477 381.488V380.156H171.689V385.028V386H170.477V385.328C170.129 385.856 169.505 386.18 168.677 386.18C167.321 386.18 166.529 385.28 166.529 383.948V381.488V380.156H167.729V383.576C167.729 384.488 168.233 385.028 169.061 385.028C169.769 385.028 170.213 384.704 170.477 384.08V381.488ZM173.656 386V385.124V381.26V380.156H174.76V381.248C175.012 380.48 175.6 380.036 176.404 380.036C176.62 380.036 176.836 380.072 176.932 380.12V381.26C176.788 381.224 176.548 381.2 176.308 381.2C175.636 381.2 175.072 381.56 174.868 382.328V385.112V386H173.656Z" fill="black"/>
<rect width="346" height="58" transform="translate(16 405)" fill="white"/>
<path d="M32.4 430.96V428.8H41.424V430.96C40.448 429.824 40.128 429.84 39.552 429.84H37.744V438.752C37.744 439.152 37.744 439.152 38.352 440H35.408C36.08 439.104 36.08 439.104 36.08 438.688V429.84H34.256C33.696 429.84 33.36 429.84 32.4 430.96ZM42.6921 440C43.1881 439.312 43.1881 439.296 43.1881 438.8V433.92C43.1881 433.44 43.1881 433.072 42.6281 432.56L44.7881 432.096V438.768C44.7881 439.232 44.7881 439.232 45.2841 440H42.6921ZM43.9881 430.752C43.3641 430.752 42.9001 430.304 42.9001 429.68C42.9001 429.072 43.3641 428.592 43.9881 428.592C44.6121 428.592 45.0761 429.072 45.0761 429.68C45.0761 430.304 44.6121 430.752 43.9881 430.752ZM46.9109 440C47.4069 439.312 47.4069 439.296 47.4069 438.8V433.92C47.4069 433.44 47.4069 433.072 46.8469 432.56L49.0069 432.096V433.408C49.6309 432.432 50.5109 431.968 51.5189 431.968C52.6709 431.968 53.5029 432.512 53.9029 433.44C54.5429 432.496 55.4549 431.968 56.5589 431.968C58.3029 431.968 59.3269 433.104 59.3269 434.88V438.816C59.3269 439.264 59.3269 439.264 59.8069 440H57.2309C57.7269 439.312 57.7269 439.296 57.7269 438.8V435.232C57.7269 433.968 57.0549 433.232 55.9189 433.232C55.1669 433.232 54.5429 433.632 54.1429 434.304C54.1589 434.464 54.1749 434.672 54.1749 434.88V438.816C54.1749 439.264 54.1749 439.264 54.6549 440H52.0789C52.5749 439.312 52.5749 439.296 52.5749 438.8V435.232C52.5749 433.968 51.9029 433.232 50.7669 433.232C50.0469 433.232 49.4389 433.616 49.0069 434.32V438.768C49.0069 439.232 49.0069 439.232 49.5029 440H46.9109ZM65.2531 440.24C62.8531 440.24 61.1731 438.72 61.1731 436.144C61.1731 433.84 62.5331 431.968 65.0131 431.968C67.3811 431.968 68.7411 433.488 68.7251 435.824H62.7891C62.7891 437.792 64.1331 438.848 65.9411 438.848C67.1091 438.848 68.0691 438.48 68.5971 437.712C68.4531 439.184 67.3011 440.24 65.2531 440.24ZM62.8051 435.072H67.0771C67.0611 433.776 66.3251 432.736 64.9651 432.736C63.6691 432.736 62.9011 433.648 62.8051 435.072ZM69.5369 433.312L70.0009 432.208H71.0729V431.072C71.0729 429.264 72.0969 428.16 73.7129 428.16C74.3689 428.16 74.9449 428.304 75.3449 428.56V430.176C74.8969 429.536 74.3689 429.168 73.6489 429.168C72.7849 429.168 72.3529 429.712 72.3529 430.56C72.3529 431.168 72.5609 431.536 72.6729 432.208H75.0729L74.5929 433.312H72.6729V438.768C72.6729 439.232 72.6729 439.232 73.2329 440H70.5769C71.0729 439.312 71.0729 439.296 71.0729 438.8V433.312H69.5369ZM75.9421 440C76.4381 439.312 76.4381 439.296 76.4381 438.8V433.776C76.4381 433.296 76.4381 433.056 75.8781 432.56L77.9101 432.096V433.92C78.3741 432.72 79.0301 432.048 80.0861 432.048C80.3901 432.048 80.6461 432.096 80.8061 432.176V433.6C80.5501 433.52 80.2941 433.504 79.9581 433.504C79.1421 433.504 78.4061 433.84 78.0381 434.72V438.8C78.0381 439.264 78.0381 439.264 78.6941 440H75.9421ZM88.107 440.24C87.275 440.24 86.763 439.808 86.619 438.992C86.155 439.696 85.243 440.24 84.171 440.24C82.699 440.24 81.643 439.392 81.643 438.176C81.643 436.928 82.651 436.112 84.411 435.808L86.587 435.44V435.232C86.587 433.936 85.819 433.216 84.427 433.216C83.259 433.216 82.459 433.664 81.851 434.608C82.043 432.928 83.259 431.968 85.067 431.968C87.067 431.968 88.187 433.056 88.187 435.072V438.208C88.187 438.736 88.475 439.04 88.955 439.04C89.275 439.04 89.547 438.912 89.739 438.688C89.659 439.648 88.987 440.24 88.107 440.24ZM83.291 437.872C83.291 438.656 83.931 439.104 84.827 439.104C85.627 439.104 86.235 438.736 86.587 438.192V436.128L84.811 436.464C83.755 436.64 83.291 437.184 83.291 437.872ZM90.6296 440C91.1256 439.312 91.1256 439.296 91.1256 438.8V433.92C91.1256 433.44 91.1256 433.072 90.5656 432.56L92.7256 432.096V433.408C93.3496 432.432 94.2296 431.968 95.2376 431.968C96.3896 431.968 97.2216 432.512 97.6216 433.44C98.2616 432.496 99.1736 431.968 100.278 431.968C102.022 431.968 103.046 433.104 103.046 434.88V438.816C103.046 439.264 103.046 439.264 103.526 440H100.95C101.446 439.312 101.446 439.296 101.446 438.8V435.232C101.446 433.968 100.774 433.232 99.6376 433.232C98.8856 433.232 98.2616 433.632 97.8616 434.304C97.8776 434.464 97.8936 434.672 97.8936 434.88V438.816C97.8936 439.264 97.8936 439.264 98.3736 440H95.7976C96.2936 439.312 96.2936 439.296 96.2936 438.8V435.232C96.2936 433.968 95.6216 433.232 94.4856 433.232C93.7656 433.232 93.1576 433.616 92.7256 434.32V438.768C92.7256 439.232 92.7256 439.232 93.2216 440H90.6296ZM108.972 440.24C106.572 440.24 104.892 438.72 104.892 436.144C104.892 433.84 106.252 431.968 108.732 431.968C111.1 431.968 112.46 433.488 112.444 435.824H106.508C106.508 437.792 107.852 438.848 109.66 438.848C110.828 438.848 111.788 438.48 112.316 437.712C112.172 439.184 111.02 440.24 108.972 440.24ZM106.524 435.072H110.796C110.78 433.776 110.044 432.736 108.684 432.736C107.388 432.736 106.62 433.648 106.524 435.072Z" fill="black"/>
<path d="M250.816 442.36C248.464 442.36 246.64 441.544 245.32 439.984V436.984C246.76 438.952 248.68 440.008 250.936 440.008C252.856 440.008 254.08 439.024 254.08 437.56C254.08 436.456 253.408 435.64 252.016 435.064L248.992 433.792C246.76 432.856 245.776 431.416 245.776 429.496C245.776 426.712 248.008 424.84 251.08 424.84C253.192 424.84 254.872 425.488 256.12 426.568V429.4C254.968 427.984 253 427.144 251.128 427.144C249.496 427.144 248.416 428.008 248.416 429.328C248.416 430.264 248.944 430.984 250.384 431.584L253.408 432.808C255.616 433.696 256.72 435.256 256.72 437.344C256.72 440.416 254.368 442.36 250.816 442.36ZM265.192 442.36C261.544 442.36 259.072 440.104 259.072 436.216C259.072 432.544 261.16 429.952 264.76 429.952C268.456 429.952 270.448 432.232 270.4 436.432H261.568C261.688 438.904 263.632 440.032 266.128 440.032C267.88 440.032 269.512 439.36 270.208 438.232C270.208 440.776 268.36 442.36 265.192 442.36ZM261.592 434.752H267.856C267.856 433.144 266.824 431.68 264.76 431.68C262.888 431.68 261.736 432.928 261.592 434.752ZM273.132 442V440.248V427.144V424.48H275.556V440.152V442H273.132ZM284.716 442.36C281.068 442.36 278.596 440.104 278.596 436.216C278.596 432.544 280.684 429.952 284.284 429.952C287.98 429.952 289.972 432.232 289.924 436.432H281.092C281.212 438.904 283.156 440.032 285.652 440.032C287.404 440.032 289.036 439.36 289.732 438.232C289.732 440.776 287.884 442.36 284.716 442.36ZM281.116 434.752H287.38C287.38 433.144 286.348 431.68 284.284 431.68C282.412 431.68 281.26 432.928 281.116 434.752ZM297.716 442.36C294.26 442.36 291.908 439.984 291.908 436.24C291.908 432.544 294.428 429.952 298.052 429.952C299.78 429.952 301.124 430.408 302.036 431.224V433.984C301.316 432.928 300.068 432.184 298.316 432.184C295.988 432.184 294.428 433.72 294.428 436.072C294.428 438.4 295.988 439.96 298.532 439.96C300.26 439.96 301.58 439.24 302.324 437.872C302.324 440.872 300.644 442.36 297.716 442.36ZM309.348 442.36C306.996 442.36 305.7 440.92 305.7 438.592V432.496H303.252L308.1 427.216V430.312H312.948V432.496H308.1V437.776C308.1 439.264 308.988 440.032 310.404 440.032C311.58 440.032 312.54 439.528 313.116 438.592C313.116 441.016 311.652 442.36 309.348 442.36Z" fill="black"/>
<mask id="mask1_5690_2367" style="mask-type:alpha" maskUnits="userSpaceOnUse" x="322" y="422" width="24" height="24">
<rect x="322" y="422" width="24" height="24" fill="#D9D9D9"/>
</mask>
<g mask="url(#mask1_5690_2367)">
<path d="M334 437.375L328 431.375L329.4 429.975L334 434.55L338.6 429.975L340 431.375L334 437.375Z" fill="black"/>
</g>
</g>
<rect width="378" height="300" transform="translate(0 491)" fill="#F1F1F1"/>
<path d="M26.8602 586.24C23.5802 586.24 21.3882 583.904 21.3882 580.512C21.3882 576.88 23.6922 574.56 27.1802 574.56C28.7322 574.56 30.0122 574.976 30.9242 575.776V577.872C30.2522 576.8 28.8762 576.144 27.3242 576.144C24.7482 576.144 23.1642 577.76 23.1642 580.368C23.1642 582.896 24.8442 584.576 27.4042 584.576C29.0842 584.576 30.4442 583.872 31.1162 582.448C31.1162 584.96 29.6282 586.24 26.8602 586.24ZM38.5251 586V584.832V581.44C38.5251 580.24 37.8371 579.52 36.6851 579.52C35.7091 579.52 35.0851 579.968 34.7171 580.832V584.768V586H33.1011V584.832V576.096V574.32H34.7171V579.216C35.1811 578.448 36.0131 577.968 37.1651 577.968C39.0371 577.968 40.1251 579.168 40.1251 580.944V584.816V586H38.5251ZM46.0433 586.24C43.6913 586.24 41.9153 584.56 41.9153 582.08C41.9153 579.616 43.6913 577.968 46.0433 577.968C48.3953 577.968 50.1713 579.616 50.1713 582.08C50.1713 584.56 48.3953 586.24 46.0433 586.24ZM46.0433 584.736C47.4833 584.736 48.5073 583.648 48.5073 582.08C48.5073 580.544 47.4993 579.488 46.0433 579.488C44.5713 579.488 43.5793 580.544 43.5793 582.08C43.5793 583.648 44.5873 584.736 46.0433 584.736ZM55.7464 586.24C53.3944 586.24 51.6184 584.56 51.6184 582.08C51.6184 579.616 53.3944 577.968 55.7464 577.968C58.0984 577.968 59.8744 579.616 59.8744 582.08C59.8744 584.56 58.0984 586.24 55.7464 586.24ZM55.7464 584.736C57.1864 584.736 58.2104 583.648 58.2104 582.08C58.2104 580.544 57.2024 579.488 55.7464 579.488C54.2744 579.488 53.2824 580.544 53.2824 582.08C53.2824 583.648 54.2904 584.736 55.7464 584.736ZM64.1056 586.24C62.9536 586.24 62.0256 585.872 61.3376 585.168V583.44C61.9776 584.32 63.0976 584.896 64.0896 584.896C64.8576 584.896 65.2576 584.544 65.2576 583.984C65.2576 583.488 65.0176 583.216 64.4896 582.992L63.0496 582.368C62.0256 581.92 61.4976 581.248 61.4976 580.24C61.4976 578.928 62.6336 577.968 64.2336 577.968C65.1616 577.968 65.9296 578.208 66.5696 578.72V580.352C66.0896 579.76 65.0976 579.28 64.2816 579.28C63.5936 579.28 63.1616 579.616 63.1616 580.112C63.1616 580.592 63.4496 580.848 63.9936 581.072L65.4496 581.712C66.4096 582.128 66.9216 582.816 66.9216 583.84C66.9216 585.264 65.7536 586.24 64.1056 586.24ZM72.3547 586.24C69.9227 586.24 68.2747 584.736 68.2747 582.144C68.2747 579.696 69.6667 577.968 72.0667 577.968C74.5307 577.968 75.8587 579.488 75.8267 582.288H69.9387C70.0187 583.936 71.3147 584.688 72.9787 584.688C74.1467 584.688 75.2347 584.24 75.6987 583.488C75.6987 585.184 74.4667 586.24 72.3547 586.24ZM69.9547 581.168H74.1307C74.1307 580.096 73.4427 579.12 72.0667 579.12C70.8187 579.12 70.0507 579.952 69.9547 581.168ZM81.8697 588.88L82.5577 587.408L83.6457 585.12L81.1497 579.616L80.5257 578.208H82.3337L82.9257 579.632L84.5737 583.28L86.1257 579.696L86.7337 578.208H88.5097L87.8537 579.696L83.7097 588.88H81.8697ZM93.2777 586.24C90.9257 586.24 89.1497 584.56 89.1497 582.08C89.1497 579.616 90.9257 577.968 93.2777 577.968C95.6297 577.968 97.4057 579.616 97.4057 582.08C97.4057 584.56 95.6297 586.24 93.2777 586.24ZM93.2777 584.736C94.7177 584.736 95.7417 583.648 95.7417 582.08C95.7417 580.544 94.7337 579.488 93.2777 579.488C91.8057 579.488 90.8137 580.544 90.8137 582.08C90.8137 583.648 91.8217 584.736 93.2777 584.736ZM104.487 579.984V578.208H106.103V584.704V586H104.487V585.104C104.023 585.808 103.191 586.24 102.087 586.24C100.279 586.24 99.2231 585.04 99.2231 583.264V579.984V578.208H100.823V582.768C100.823 583.984 101.495 584.704 102.599 584.704C103.543 584.704 104.135 584.272 104.487 583.44V579.984ZM108.726 586V584.832V579.68V578.208H110.198V579.664C110.534 578.64 111.318 578.048 112.39 578.048C112.678 578.048 112.966 578.096 113.094 578.16V579.68C112.902 579.632 112.582 579.6 112.262 579.6C111.366 579.6 110.614 580.08 110.342 581.104V584.816V586H108.726ZM121.495 586.24C119.927 586.24 119.063 585.28 119.063 583.728V579.664H117.431L120.663 576.144V578.208H123.895V579.664H120.663V583.184C120.663 584.176 121.255 584.688 122.199 584.688C122.983 584.688 123.623 584.352 124.007 583.728C124.007 585.344 123.031 586.24 121.495 586.24ZM131.649 586.24C130.865 586.24 130.385 585.856 130.193 585.2C129.729 585.808 128.833 586.24 127.745 586.24C126.209 586.24 125.137 585.344 125.137 584.032C125.137 582.736 126.017 581.872 127.681 581.584L130.081 581.184C130.065 580.032 129.393 579.424 128.129 579.424C126.817 579.424 125.985 579.92 125.345 580.944C125.345 579.008 126.545 577.968 128.529 577.968C130.545 577.968 131.681 579.04 131.681 581.072V584.032C131.681 584.544 131.937 584.864 132.449 584.864C132.769 584.864 133.041 584.736 133.233 584.512C133.233 585.712 132.497 586.24 131.649 586.24ZM126.817 583.856C126.817 584.48 127.361 584.928 128.209 584.928C129.041 584.928 129.713 584.56 130.081 583.92V582.224L128.193 582.576C127.201 582.768 126.817 583.232 126.817 583.856ZM134.601 586V584.832V579.68V578.208H136.073V579.664C136.409 578.64 137.193 578.048 138.265 578.048C138.553 578.048 138.841 578.096 138.969 578.16V579.68C138.777 579.632 138.457 579.6 138.137 579.6C137.241 579.6 136.489 580.08 136.217 581.104V584.816V586H134.601ZM143.118 589.12C141.15 589.12 139.614 588.368 139.614 587.136C139.614 586.336 140.142 585.744 141.102 585.376C140.718 585.136 140.43 584.736 140.43 584.224C140.43 583.68 140.798 583.248 141.262 583.008C140.446 582.56 139.934 581.744 139.934 580.72C139.934 579.072 141.166 577.968 142.99 577.968C143.486 577.968 143.934 578.048 144.35 578.208H147.006L146.99 579.664H145.87C145.998 579.984 146.062 580.336 146.062 580.72C146.062 582.32 144.798 583.408 142.974 583.408C142.734 583.408 142.51 583.392 142.286 583.344C142.094 583.424 141.934 583.568 141.934 583.76C141.934 584.064 142.142 584.208 142.702 584.304L144.846 584.624C146.27 584.816 147.07 585.408 147.07 586.56C147.07 588.064 145.598 589.12 143.118 589.12ZM142.974 582.224C143.902 582.224 144.558 581.616 144.558 580.72C144.558 579.776 143.902 579.168 142.974 579.168C142.078 579.168 141.438 579.776 141.438 580.72C141.438 581.616 142.078 582.224 142.974 582.224ZM141.23 586.784C141.23 587.552 142.206 587.968 143.406 587.968C144.686 587.968 145.502 587.536 145.502 586.832C145.502 586.336 145.134 586.128 144.414 586.016L142.238 585.712C141.758 585.888 141.23 586.272 141.23 586.784ZM152.37 586.24C149.938 586.24 148.29 584.736 148.29 582.144C148.29 579.696 149.682 577.968 152.082 577.968C154.546 577.968 155.874 579.488 155.842 582.288H149.954C150.034 583.936 151.33 584.688 152.994 584.688C154.162 584.688 155.25 584.24 155.714 583.488C155.714 585.184 154.482 586.24 152.37 586.24ZM149.97 581.168H154.146C154.146 580.096 153.458 579.12 152.082 579.12C150.834 579.12 150.066 579.952 149.97 581.168ZM160.557 586.24C158.989 586.24 158.125 585.28 158.125 583.728V579.664H156.493L159.725 576.144V578.208H162.957V579.664H159.725V583.184C159.725 584.176 160.317 584.688 161.261 584.688C162.045 584.688 162.685 584.352 163.069 583.728C163.069 585.344 162.093 586.24 160.557 586.24ZM174.712 586.24C173.928 586.24 173.448 585.856 173.256 585.2C172.792 585.808 171.896 586.24 170.808 586.24C169.272 586.24 168.2 585.344 168.2 584.032C168.2 582.736 169.08 581.872 170.744 581.584L173.144 581.184C173.128 580.032 172.456 579.424 171.192 579.424C169.88 579.424 169.048 579.92 168.408 580.944C168.408 579.008 169.608 577.968 171.592 577.968C173.608 577.968 174.744 579.04 174.744 581.072V584.032C174.744 584.544 175 584.864 175.512 584.864C175.832 584.864 176.104 584.736 176.296 584.512C176.296 585.712 175.56 586.24 174.712 586.24ZM169.88 583.856C169.88 584.48 170.424 584.928 171.272 584.928C172.104 584.928 172.776 584.56 173.144 583.92V582.224L171.256 582.576C170.264 582.768 169.88 583.232 169.88 583.856ZM183.088 586V584.832V581.44C183.088 580.24 182.4 579.52 181.248 579.52C180.272 579.52 179.648 579.968 179.28 580.832V584.768V586H177.664V584.832V579.984V578.208H179.28V579.216C179.744 578.448 180.576 577.968 181.728 577.968C183.6 577.968 184.688 579.168 184.688 580.944V584.816V586H183.088ZM192.907 576.096V574.32H194.507V584.704V586H192.907V584.992C192.395 585.808 191.403 586.24 190.331 586.24C188.187 586.24 186.587 584.64 186.587 582.112C186.587 579.584 188.187 577.968 190.331 577.968C191.419 577.968 192.395 578.4 192.907 579.216V576.096ZM188.251 582.112C188.251 583.68 189.243 584.736 190.683 584.736C191.675 584.736 192.523 584.208 192.907 583.2V581.024C192.523 580.016 191.691 579.488 190.683 579.488C189.243 579.488 188.251 580.56 188.251 582.112ZM203.948 586.24C202.38 586.24 201.516 585.28 201.516 583.728V579.664H199.884L203.116 576.144V578.208H206.348V579.664H203.116V583.184C203.116 584.176 203.708 584.688 204.652 584.688C205.436 584.688 206.076 584.352 206.46 583.728C206.46 585.344 205.484 586.24 203.948 586.24ZM208.039 586V584.832V579.984V578.208H209.655V584.768V586H208.039ZM208.855 576.752C208.215 576.752 207.751 576.304 207.751 575.68C207.751 575.072 208.215 574.592 208.855 574.592C209.479 574.592 209.943 575.072 209.943 575.68C209.943 576.304 209.479 576.752 208.855 576.752ZM212.273 586V584.832V579.984V578.208H213.889V579.088C214.385 578.4 215.185 577.968 216.177 577.968C217.313 577.968 218.161 578.448 218.625 579.232C219.105 578.528 219.937 577.968 221.169 577.968C223.089 577.968 224.209 579.168 224.209 580.944V584.848V586H222.609V584.832V581.408C222.609 580.24 221.937 579.52 220.849 579.52C219.953 579.52 219.377 580 219.041 580.816V580.944V584.848V586H217.441V584.832V581.408C217.441 580.24 216.785 579.52 215.697 579.52C214.849 579.52 214.305 579.952 213.889 580.72V584.768V586H212.273ZM230.183 586.24C227.751 586.24 226.103 584.736 226.103 582.144C226.103 579.696 227.495 577.968 229.895 577.968C232.359 577.968 233.687 579.488 233.655 582.288H227.767C227.847 583.936 229.143 584.688 230.807 584.688C231.975 584.688 233.063 584.24 233.527 583.488C233.527 585.184 232.295 586.24 230.183 586.24ZM227.783 581.168H231.959C231.959 580.096 231.271 579.12 229.895 579.12C228.647 579.12 227.879 579.952 227.783 581.168ZM234.626 579.664V578.208H236.034V577.088C236.034 575.232 237.026 574.16 238.738 574.16C239.298 574.16 239.858 574.272 240.306 574.576V576.032C239.97 575.728 239.506 575.568 238.994 575.568C238.034 575.568 237.634 576.144 237.634 577.056V578.208H239.842V579.664H237.634V584.768V586H236.034V584.832V579.664H234.626ZM241.242 586V584.832V579.68V578.208H242.714V579.664C243.05 578.64 243.834 578.048 244.906 578.048C245.194 578.048 245.482 578.096 245.61 578.16V579.68C245.418 579.632 245.098 579.6 244.778 579.6C243.882 579.6 243.13 580.08 242.858 581.104V584.816V586H241.242ZM253.009 586.24C252.225 586.24 251.745 585.856 251.553 585.2C251.089 585.808 250.193 586.24 249.105 586.24C247.569 586.24 246.497 585.344 246.497 584.032C246.497 582.736 247.377 581.872 249.041 581.584L251.441 581.184C251.425 580.032 250.753 579.424 249.489 579.424C248.177 579.424 247.345 579.92 246.705 580.944C246.705 579.008 247.905 577.968 249.889 577.968C251.905 577.968 253.041 579.04 253.041 581.072V584.032C253.041 584.544 253.297 584.864 253.809 584.864C254.129 584.864 254.401 584.736 254.593 584.512C254.593 585.712 253.857 586.24 253.009 586.24ZM248.177 583.856C248.177 584.48 248.721 584.928 249.569 584.928C250.401 584.928 251.073 584.56 251.441 583.92V582.224L249.553 582.576C248.561 582.768 248.177 583.232 248.177 583.856ZM255.96 586V584.832V579.984V578.208H257.576V579.088C258.072 578.4 258.872 577.968 259.864 577.968C261 577.968 261.848 578.448 262.312 579.232C262.792 578.528 263.624 577.968 264.856 577.968C266.776 577.968 267.896 579.168 267.896 580.944V584.848V586H266.296V584.832V581.408C266.296 580.24 265.624 579.52 264.536 579.52C263.64 579.52 263.064 580 262.728 580.816V580.944V584.848V586H261.128V584.832V581.408C261.128 580.24 260.472 579.52 259.384 579.52C258.536 579.52 257.992 579.952 257.576 580.72V584.768V586H255.96ZM273.87 586.24C271.438 586.24 269.79 584.736 269.79 582.144C269.79 579.696 271.182 577.968 273.582 577.968C276.046 577.968 277.374 579.488 277.342 582.288H271.454C271.534 583.936 272.83 584.688 274.494 584.688C275.662 584.688 276.75 584.24 277.214 583.488C277.214 585.184 275.982 586.24 273.87 586.24ZM271.47 581.168H275.646C275.646 580.096 274.958 579.12 273.582 579.12C272.334 579.12 271.566 579.952 271.47 581.168ZM278.696 588.464C279.752 587.824 280.44 587.088 280.488 586C280.328 586.08 280.216 586.096 280.04 586.096C279.48 586.096 278.952 585.584 278.952 584.96C278.952 584.256 279.496 583.808 280.136 583.808C281 583.808 281.592 584.464 281.592 585.52C281.592 587.104 280.424 588.336 278.696 588.464ZM290.651 586.24C289.083 586.24 288.219 585.28 288.219 583.728V579.664H286.587L289.819 576.144V578.208H293.051V579.664H289.819V583.184C289.819 584.176 290.411 584.688 291.355 584.688C292.139 584.688 292.779 584.352 293.163 583.728C293.163 585.344 292.187 586.24 290.651 586.24ZM300.166 586V584.832V581.44C300.166 580.24 299.478 579.52 298.326 579.52C297.35 579.52 296.726 579.968 296.358 580.832V584.768V586H294.742V584.832V576.096V574.32H296.358V579.216C296.822 578.448 297.654 577.968 298.806 577.968C300.678 577.968 301.766 579.168 301.766 580.944V584.816V586H300.166ZM304.257 586V584.832V579.984V578.208H305.873V584.768V586H304.257ZM305.073 576.752C304.433 576.752 303.969 576.304 303.969 575.68C303.969 575.072 304.433 574.592 305.073 574.592C305.697 574.592 306.161 575.072 306.161 575.68C306.161 576.304 305.697 576.752 305.073 576.752ZM310.621 586.24C309.469 586.24 308.541 585.872 307.853 585.168V583.44C308.493 584.32 309.613 584.896 310.605 584.896C311.373 584.896 311.773 584.544 311.773 583.984C311.773 583.488 311.533 583.216 311.005 582.992L309.565 582.368C308.541 581.92 308.013 581.248 308.013 580.24C308.013 578.928 309.149 577.968 310.749 577.968C311.677 577.968 312.445 578.208 313.085 578.72V580.352C312.605 579.76 311.613 579.28 310.797 579.28C310.109 579.28 309.677 579.616 309.677 580.112C309.677 580.592 309.965 580.848 310.509 581.072L311.965 581.712C312.925 582.128 313.437 582.816 313.437 583.84C313.437 585.264 312.269 586.24 310.621 586.24ZM324.806 586V584.832V581.44C324.806 580.24 324.118 579.52 322.966 579.52C321.99 579.52 321.366 579.968 320.998 580.832V584.768V586H319.382V584.832V576.096V574.32H320.998V579.216C321.462 578.448 322.294 577.968 323.446 577.968C325.318 577.968 326.406 579.168 326.406 580.944V584.816V586H324.806ZM332.37 586.24C329.938 586.24 328.29 584.736 328.29 582.144C328.29 579.696 329.682 577.968 332.082 577.968C334.546 577.968 335.874 579.488 335.842 582.288H329.954C330.034 583.936 331.33 584.688 332.994 584.688C334.162 584.688 335.25 584.24 335.714 583.488C335.714 585.184 334.482 586.24 332.37 586.24ZM329.97 581.168H334.146C334.146 580.096 333.458 579.12 332.082 579.12C330.834 579.12 330.066 579.952 329.97 581.168ZM337.664 586V584.832V576.096V574.32H339.28V584.768V586H337.664ZM341.898 579.984V578.208H343.514V579.2C344.042 578.384 345.018 577.968 346.074 577.968C348.234 577.968 349.834 579.568 349.834 582.096C349.834 584.64 348.234 586.24 346.074 586.24C345.002 586.24 344.026 585.824 343.514 585.024V587.648V588.88H341.898V587.712V579.984ZM343.514 583.232C343.914 584.24 344.73 584.736 345.722 584.736C347.162 584.736 348.154 583.648 348.154 582.096C348.154 580.544 347.162 579.488 345.722 579.488C344.746 579.488 343.914 579.968 343.514 580.976V583.232ZM354.059 586.24C352.907 586.24 351.979 585.872 351.291 585.168V583.44C351.931 584.32 353.051 584.896 354.043 584.896C354.811 584.896 355.211 584.544 355.211 583.984C355.211 583.488 354.971 583.216 354.443 582.992L353.003 582.368C351.979 581.92 351.451 581.248 351.451 580.24C351.451 578.928 352.587 577.968 354.187 577.968C355.115 577.968 355.883 578.208 356.523 578.72V580.352C356.043 579.76 355.051 579.28 354.235 579.28C353.547 579.28 353.115 579.616 353.115 580.112C353.115 580.592 353.403 580.848 353.947 581.072L355.403 581.712C356.363 582.128 356.875 582.816 356.875 583.84C356.875 585.264 355.707 586.24 354.059 586.24ZM67.3699 597.984V596.208H68.9859V602.704V604H67.3699V603.104C66.9059 603.808 66.0739 604.24 64.9699 604.24C63.1619 604.24 62.1059 603.04 62.1059 601.264V597.984V596.208H63.7059V600.768C63.7059 601.984 64.3779 602.704 65.4819 602.704C66.4259 602.704 67.0179 602.272 67.3699 601.44V597.984ZM73.7384 604.24C72.5864 604.24 71.6584 603.872 70.9704 603.168V601.44C71.6104 602.32 72.7304 602.896 73.7224 602.896C74.4904 602.896 74.8904 602.544 74.8904 601.984C74.8904 601.488 74.6504 601.216 74.1224 600.992L72.6824 600.368C71.6584 599.92 71.1304 599.248 71.1304 598.24C71.1304 596.928 72.2664 595.968 73.8664 595.968C74.7944 595.968 75.5624 596.208 76.2024 596.72V598.352C75.7224 597.76 74.7304 597.28 73.9144 597.28C73.2264 597.28 72.7944 597.616 72.7944 598.112C72.7944 598.592 73.0824 598.848 73.6264 599.072L75.0824 599.712C76.0424 600.128 76.5544 600.816 76.5544 601.84C76.5544 603.264 75.3864 604.24 73.7384 604.24ZM85.2995 604.24C83.7315 604.24 82.8675 603.28 82.8675 601.728V597.664H81.2355L84.4675 594.144V596.208H87.6995V597.664H84.4675V601.184C84.4675 602.176 85.0595 602.688 86.0035 602.688C86.7875 602.688 87.4275 602.352 87.8115 601.728C87.8115 603.344 86.8355 604.24 85.2995 604.24ZM95.4541 604.24C94.6701 604.24 94.1901 603.856 93.9981 603.2C93.5341 603.808 92.6381 604.24 91.5501 604.24C90.0141 604.24 88.9421 603.344 88.9421 602.032C88.9421 600.736 89.8221 599.872 91.4861 599.584L93.8861 599.184C93.8701 598.032 93.1981 597.424 91.9341 597.424C90.6221 597.424 89.7901 597.92 89.1501 598.944C89.1501 597.008 90.3501 595.968 92.3341 595.968C94.3501 595.968 95.4861 597.04 95.4861 599.072V602.032C95.4861 602.544 95.7421 602.864 96.2541 602.864C96.5741 602.864 96.8461 602.736 97.0381 602.512C97.0381 603.712 96.3021 604.24 95.4541 604.24ZM90.6221 601.856C90.6221 602.48 91.1661 602.928 92.0141 602.928C92.8461 602.928 93.5181 602.56 93.8861 601.92V600.224L91.9981 600.576C91.0061 600.768 90.6221 601.232 90.6221 601.856ZM98.4058 604V602.832V597.984V596.208H100.022V602.768V604H98.4058ZM99.2218 594.752C98.5818 594.752 98.1178 594.304 98.1178 593.68C98.1178 593.072 98.5818 592.592 99.2218 592.592C99.8458 592.592 100.31 593.072 100.31 593.68C100.31 594.304 99.8458 594.752 99.2218 594.752ZM102.64 604V602.832V594.096V592.32H104.256V602.768V604H102.64ZM110.411 604.24C108.059 604.24 106.283 602.56 106.283 600.08C106.283 597.616 108.059 595.968 110.411 595.968C112.763 595.968 114.539 597.616 114.539 600.08C114.539 602.56 112.763 604.24 110.411 604.24ZM110.411 602.736C111.851 602.736 112.875 601.648 112.875 600.08C112.875 598.544 111.867 597.488 110.411 597.488C108.939 597.488 107.947 598.544 107.947 600.08C107.947 601.648 108.955 602.736 110.411 602.736ZM116.578 604V602.832V597.68V596.208H118.05V597.664C118.386 596.64 119.17 596.048 120.242 596.048C120.53 596.048 120.818 596.096 120.946 596.16V597.68C120.754 597.632 120.434 597.6 120.114 597.6C119.218 597.6 118.466 598.08 118.194 599.104V602.816V604H116.578ZM126.546 604V602.832V597.68V596.208H128.018V597.664C128.354 596.64 129.138 596.048 130.21 596.048C130.498 596.048 130.786 596.096 130.914 596.16V597.68C130.722 597.632 130.402 597.6 130.082 597.6C129.186 597.6 128.434 598.08 128.162 599.104V602.816V604H126.546ZM135.816 604.24C133.384 604.24 131.736 602.736 131.736 600.144C131.736 597.696 133.128 595.968 135.528 595.968C137.992 595.968 139.32 597.488 139.288 600.288H133.4C133.48 601.936 134.776 602.688 136.44 602.688C137.608 602.688 138.696 602.24 139.16 601.488C139.16 603.184 137.928 604.24 135.816 604.24ZM133.416 599.168H137.592C137.592 598.096 136.904 597.12 135.528 597.12C134.28 597.12 133.512 597.952 133.416 599.168ZM144.483 604.24C142.179 604.24 140.611 602.656 140.611 600.16C140.611 597.696 142.291 595.968 144.707 595.968C145.859 595.968 146.755 596.272 147.363 596.816V598.656C146.883 597.952 146.051 597.456 144.883 597.456C143.331 597.456 142.291 598.48 142.291 600.048C142.291 601.6 143.331 602.64 145.027 602.64C146.179 602.64 147.059 602.16 147.555 601.248C147.555 603.248 146.435 604.24 144.483 604.24ZM152.973 604.24C150.621 604.24 148.845 602.56 148.845 600.08C148.845 597.616 150.621 595.968 152.973 595.968C155.325 595.968 157.101 597.616 157.101 600.08C157.101 602.56 155.325 604.24 152.973 604.24ZM152.973 602.736C154.413 602.736 155.437 601.648 155.437 600.08C155.437 598.544 154.429 597.488 152.973 597.488C151.501 597.488 150.509 598.544 150.509 600.08C150.509 601.648 151.517 602.736 152.973 602.736ZM159.14 604V602.832V597.984V596.208H160.756V597.088C161.252 596.4 162.052 595.968 163.044 595.968C164.18 595.968 165.028 596.448 165.492 597.232C165.972 596.528 166.804 595.968 168.036 595.968C169.956 595.968 171.076 597.168 171.076 598.944V602.848V604H169.476V602.832V599.408C169.476 598.24 168.804 597.52 167.716 597.52C166.82 597.52 166.244 598 165.908 598.816V598.944V602.848V604H164.308V602.832V599.408C164.308 598.24 163.652 597.52 162.564 597.52C161.716 597.52 161.172 597.952 160.756 598.72V602.768V604H159.14ZM173.578 604V602.832V597.984V596.208H175.194V597.088C175.69 596.4 176.49 595.968 177.482 595.968C178.618 595.968 179.466 596.448 179.93 597.232C180.41 596.528 181.242 595.968 182.474 595.968C184.394 595.968 185.514 597.168 185.514 598.944V602.848V604H183.914V602.832V599.408C183.914 598.24 183.242 597.52 182.154 597.52C181.258 597.52 180.682 598 180.346 598.816V598.944V602.848V604H178.746V602.832V599.408C178.746 598.24 178.09 597.52 177.002 597.52C176.154 597.52 175.61 597.952 175.194 598.72V602.768V604H173.578ZM191.488 604.24C189.056 604.24 187.408 602.736 187.408 600.144C187.408 597.696 188.799 595.968 191.2 595.968C193.664 595.968 194.992 597.488 194.96 600.288H189.072C189.152 601.936 190.448 602.688 192.112 602.688C193.28 602.688 194.368 602.24 194.832 601.488C194.832 603.184 193.6 604.24 191.488 604.24ZM189.088 599.168H193.264C193.264 598.096 192.576 597.12 191.2 597.12C189.952 597.12 189.184 597.952 189.088 599.168ZM202.205 604V602.832V599.44C202.205 598.24 201.517 597.52 200.365 597.52C199.389 597.52 198.765 597.968 198.397 598.832V602.768V604H196.781V602.832V597.984V596.208H198.397V597.216C198.861 596.448 199.693 595.968 200.845 595.968C202.717 595.968 203.805 597.168 203.805 598.944V602.816V604H202.205ZM212.024 594.096V592.32H213.624V602.704V604H212.024V602.992C211.512 603.808 210.52 604.24 209.448 604.24C207.304 604.24 205.704 602.64 205.704 600.112C205.704 597.584 207.304 595.968 209.448 595.968C210.536 595.968 211.512 596.4 212.024 597.216V594.096ZM207.368 600.112C207.368 601.68 208.36 602.736 209.8 602.736C210.792 602.736 211.64 602.208 212.024 601.2V599.024C211.64 598.016 210.808 597.488 209.8 597.488C208.36 597.488 207.368 598.56 207.368 600.112ZM222.173 604.24C221.389 604.24 220.909 603.856 220.717 603.2C220.253 603.808 219.357 604.24 218.269 604.24C216.733 604.24 215.661 603.344 215.661 602.032C215.661 600.736 216.541 599.872 218.205 599.584L220.605 599.184C220.589 598.032 219.917 597.424 218.653 597.424C217.341 597.424 216.509 597.92 215.869 598.944C215.869 597.008 217.069 595.968 219.053 595.968C221.069 595.968 222.205 597.04 222.205 599.072V602.032C222.205 602.544 222.461 602.864 222.973 602.864C223.293 602.864 223.565 602.736 223.757 602.512C223.757 603.712 223.021 604.24 222.173 604.24ZM217.341 601.856C217.341 602.48 217.885 602.928 218.733 602.928C219.565 602.928 220.237 602.56 220.605 601.92V600.224L218.717 600.576C217.725 600.768 217.341 601.232 217.341 601.856ZM227.674 604.24C226.107 604.24 225.243 603.28 225.243 601.728V597.664H223.611L226.843 594.144V596.208H230.075V597.664H226.843V601.184C226.843 602.176 227.435 602.688 228.379 602.688C229.163 602.688 229.803 602.352 230.187 601.728C230.187 603.344 229.211 604.24 227.674 604.24ZM231.765 604V602.832V597.984V596.208H233.381V602.768V604H231.765ZM232.581 594.752C231.941 594.752 231.477 594.304 231.477 593.68C231.477 593.072 231.941 592.592 232.581 592.592C233.205 592.592 233.669 593.072 233.669 593.68C233.669 594.304 233.205 594.752 232.581 594.752ZM239.536 604.24C237.184 604.24 235.408 602.56 235.408 600.08C235.408 597.616 237.184 595.968 239.536 595.968C241.888 595.968 243.664 597.616 243.664 600.08C243.664 602.56 241.888 604.24 239.536 604.24ZM239.536 602.736C240.976 602.736 242 601.648 242 600.08C242 598.544 240.992 597.488 239.536 597.488C238.064 597.488 237.072 598.544 237.072 600.08C237.072 601.648 238.08 602.736 239.536 602.736ZM251.127 604V602.832V599.44C251.127 598.24 250.439 597.52 249.287 597.52C248.311 597.52 247.687 597.968 247.319 598.832V602.768V604H245.703V602.832V597.984V596.208H247.319V597.216C247.783 596.448 248.615 595.968 249.767 595.968C251.639 595.968 252.727 597.168 252.727 598.944V602.816V604H251.127ZM257.285 604.24C256.133 604.24 255.205 603.872 254.517 603.168V601.44C255.157 602.32 256.277 602.896 257.269 602.896C258.037 602.896 258.437 602.544 258.437 601.984C258.437 601.488 258.197 601.216 257.669 600.992L256.229 600.368C255.205 599.92 254.677 599.248 254.677 598.24C254.677 596.928 255.813 595.968 257.413 595.968C258.341 595.968 259.109 596.208 259.749 596.72V598.352C259.269 597.76 258.277 597.28 257.461 597.28C256.773 597.28 256.341 597.616 256.341 598.112C256.341 598.592 256.629 598.848 257.173 599.072L258.629 599.712C259.589 600.128 260.101 600.816 260.101 601.84C260.101 603.264 258.933 604.24 257.285 604.24ZM265.102 597.664V596.208H266.51V595.088C266.51 593.232 267.502 592.16 269.214 592.16C269.774 592.16 270.334 592.272 270.782 592.576V594.032C270.446 593.728 269.982 593.568 269.47 593.568C268.51 593.568 268.11 594.144 268.11 595.056V596.208H270.318V597.664H268.11V602.768V604H266.51V602.832V597.664H265.102ZM275.27 604.24C272.918 604.24 271.142 602.56 271.142 600.08C271.142 597.616 272.918 595.968 275.27 595.968C277.622 595.968 279.398 597.616 279.398 600.08C279.398 602.56 277.622 604.24 275.27 604.24ZM275.27 602.736C276.71 602.736 277.734 601.648 277.734 600.08C277.734 598.544 276.726 597.488 275.27 597.488C273.798 597.488 272.806 598.544 272.806 600.08C272.806 601.648 273.814 602.736 275.27 602.736ZM281.437 604V602.832V597.68V596.208H282.909V597.664C283.245 596.64 284.029 596.048 285.101 596.048C285.389 596.048 285.677 596.096 285.805 596.16V597.68C285.613 597.632 285.293 597.6 284.973 597.6C284.077 597.6 283.325 598.08 283.053 599.104V602.816V604H281.437ZM291.534 606.88L292.222 605.408L293.31 603.12L290.814 597.616L290.19 596.208H291.998L292.59 597.632L294.238 601.28L295.79 597.696L296.398 596.208H298.174L297.518 597.696L293.374 606.88H291.534ZM302.942 604.24C300.59 604.24 298.814 602.56 298.814 600.08C298.814 597.616 300.59 595.968 302.942 595.968C305.294 595.968 307.07 597.616 307.07 600.08C307.07 602.56 305.294 604.24 302.942 604.24ZM302.942 602.736C304.382 602.736 305.406 601.648 305.406 600.08C305.406 598.544 304.398 597.488 302.942 597.488C301.47 597.488 300.478 598.544 300.478 600.08C300.478 601.648 301.486 602.736 302.942 602.736ZM314.151 597.984V596.208H315.767V602.704V604H314.151V603.104C313.687 603.808 312.855 604.24 311.751 604.24C309.943 604.24 308.887 603.04 308.887 601.264V597.984V596.208H310.487V600.768C310.487 601.984 311.159 602.704 312.263 602.704C313.207 602.704 313.799 602.272 314.151 601.44V597.984Z" fill="black"/>
<rect x="16.5" y="703.5" width="345" height="47" rx="7.5" stroke="black"/>
<path d="M171.328 733V731.672V721.8H173.584L178.64 729.128V723.112V721.8H180.88V723.128V733H178.64L173.584 725.704V731.688V733H171.328ZM187.021 733.24C184.429 733.24 182.781 731.656 182.781 729.112C182.781 726.6 184.285 724.872 186.733 724.872C189.389 724.872 190.701 726.536 190.653 729.4H185.101C185.245 730.536 186.429 731.128 187.949 731.128C189.053 731.128 190.077 730.792 190.509 730.264C190.509 732.104 189.261 733.24 187.021 733.24ZM185.085 727.992H188.317C188.317 727.064 187.789 726.344 186.717 726.344C185.741 726.344 185.149 726.984 185.085 727.992ZM194.069 725.112L194.949 726.376L195.733 727.464L196.517 726.36L197.413 725.112H199.925L198.709 726.76L197.013 729L198.837 731.416L200.021 733H197.285L196.357 731.608L195.525 730.44L194.533 731.88L193.781 733H191.253L192.501 731.288L194.245 728.936L192.421 726.552L191.349 725.112H194.069ZM204.317 733.24C202.605 733.24 201.645 732.232 201.645 730.52V727.064H200.061L203.869 722.84V725.112H206.957V727.064H203.869V729.656C203.869 730.632 204.429 731.16 205.341 731.16C206.109 731.16 206.717 730.856 207.069 730.376C207.069 732.232 206.061 733.24 204.317 733.24Z" fill="black"/>
<mask id="mask2_5690_2367" style="mask-type:alpha" maskUnits="userSpaceOnUse" x="330" y="715" width="24" height="24">
<rect x="330" y="715" width="24" height="24" fill="#D9D9D9"/>
</mask>
<g mask="url(#mask2_5690_2367)">
<path d="M344 733L342.6 731.55L346.15 728H334V726H346.15L342.6 722.45L344 721L350 727L344 733Z" fill="black"/>
</g>
<rect x="149" y="775" width="8" height="8" rx="4" fill="black"/>
<rect x="165" y="775" width="8" height="8" rx="4" fill="black"/>
<rect x="181" y="775" width="32" height="8" rx="4" fill="black"/>
<rect x="221" y="775" width="8" height="8" rx="4" fill="black"/>
<rect width="378" height="29" transform="translate(0 791)" fill="#F1F1F1"/>
<rect x="121.5" y="807" width="135" height="5" rx="2.5" fill="black"/>
</g>
<defs>
<clipPath id="clip0_5690_2367">
<rect width="378" height="820" fill="white"/>
</clipPath>
<clipPath id="clip1_5690_2367">
<rect x="16" y="192" width="346" height="271" rx="8" fill="white"/>
</clipPath>
<clipPath id="clip2_5690_2367">
<rect x="32" y="254" width="314" height="8" rx="4" fill="white"/>
</clipPath>
</defs>
</svg>
