<svg width="119" height="31" viewBox="0 0 119 31" fill="none" xmlns="http://www.w3.org/2000/svg">
<path d="M21.2136 22.2132C19.8151 23.6117 18.0333 24.5641 16.0935 24.95C14.1537 25.3358 12.143 25.1378 10.3157 24.3809C8.48848 23.6241 6.9267 22.3423 5.82788 20.6978C4.72907 19.0534 4.14258 17.12 4.14258 15.1421C4.14258 13.1643 4.72907 11.2309 5.82789 9.58644C6.9267 7.94194 8.48849 6.66022 10.3157 5.90334C12.143 5.14647 14.1537 4.94843 16.0935 5.33429C18.0333 5.72014 19.8151 6.67255 21.2136 8.07107M30.2847 15.1421L22.1426 15.1421M30.2847 15.1421L26.0421 10.8995M30.2847 15.1421L26.0421 19.3848" stroke="white" stroke-width="2" stroke-linecap="square"/>
<path d="M46.9988 13.2922C46.8964 12.8954 46.7556 12.5306 46.5764 12.1978C46.3972 11.865 46.1668 11.577 45.8852 11.3338C45.6036 11.0906 45.2708 10.905 44.8868 10.777C44.5156 10.6362 44.0804 10.5658 43.5812 10.5658C42.8516 10.5658 42.218 10.713 41.6804 11.0074C41.1556 11.3018 40.7268 11.6986 40.394 12.1978C40.0612 12.6842 39.8116 13.241 39.6452 13.8682C39.4916 14.4954 39.4148 15.1354 39.4148 15.7882C39.4148 16.441 39.4916 17.081 39.6452 17.7082C39.8116 18.3354 40.0612 18.8986 40.394 19.3978C40.7268 19.8842 41.1556 20.2746 41.6804 20.569C42.218 20.8634 42.8516 21.0106 43.5812 21.0106C44.1188 21.0106 44.5924 20.921 45.002 20.7418C45.4116 20.5498 45.7636 20.2938 46.058 19.9738C46.3524 19.641 46.5828 19.257 46.7492 18.8218C46.9156 18.3866 47.0244 17.9194 47.0756 17.4202H49.418C49.3668 18.2394 49.1876 18.9882 48.8804 19.6666C48.586 20.345 48.1828 20.9338 47.6708 21.433C47.1588 21.9194 46.5572 22.297 45.866 22.5658C45.1748 22.8346 44.4132 22.969 43.5812 22.969C42.5572 22.969 41.6356 22.7834 40.8164 22.4122C40.01 22.0282 39.3252 21.5098 38.762 20.857C38.1988 20.2042 37.7636 19.4426 37.4564 18.5722C37.162 17.7018 37.0148 16.7738 37.0148 15.7882C37.0148 14.8154 37.162 13.8938 37.4564 13.0234C37.7636 12.153 38.1988 11.3914 38.762 10.7386C39.3252 10.0858 40.01 9.56738 40.8164 9.18338C41.6356 8.79938 42.5572 8.60738 43.5812 8.60738C44.3492 8.60738 45.0724 8.71618 45.7508 8.93378C46.4292 9.13858 47.0244 9.44578 47.5364 9.85538C48.0612 10.2522 48.4836 10.7386 48.8036 11.3146C49.1236 11.8906 49.322 12.5498 49.3988 13.2922H46.9988ZM55.8438 22.9114C55.0502 22.9114 54.3398 22.7834 53.7126 22.5274C53.0982 22.2586 52.5734 21.8938 52.1382 21.433C51.7158 20.9722 51.3894 20.4218 51.159 19.7818C50.9414 19.1418 50.8326 18.4378 50.8326 17.6698C50.8326 16.9146 50.9414 16.217 51.159 15.577C51.3894 14.937 51.7158 14.3866 52.1382 13.9258C52.5734 13.465 53.0982 13.1066 53.7126 12.8506C54.3398 12.5818 55.0502 12.4474 55.8438 12.4474C56.6374 12.4474 57.3414 12.5818 57.9558 12.8506C58.583 13.1066 59.1078 13.465 59.5302 13.9258C59.9654 14.3866 60.2918 14.937 60.5094 15.577C60.7398 16.217 60.855 16.9146 60.855 17.6698C60.855 18.4378 60.7398 19.1418 60.5094 19.7818C60.2918 20.4218 59.9654 20.9722 59.5302 21.433C59.1078 21.8938 58.583 22.2586 57.9558 22.5274C57.3414 22.7834 56.6374 22.9114 55.8438 22.9114ZM55.8438 21.1834C56.3302 21.1834 56.7526 21.081 57.111 20.8762C57.4694 20.6714 57.7638 20.4026 57.9942 20.0698C58.2246 19.737 58.391 19.3658 58.4934 18.9562C58.6086 18.5338 58.6662 18.105 58.6662 17.6698C58.6662 17.2474 58.6086 16.825 58.4934 16.4026C58.391 15.9802 58.2246 15.609 57.9942 15.289C57.7638 14.9562 57.4694 14.6874 57.111 14.4826C56.7526 14.2778 56.3302 14.1754 55.8438 14.1754C55.3574 14.1754 54.935 14.2778 54.5766 14.4826C54.2182 14.6874 53.9238 14.9562 53.6934 15.289C53.463 15.609 53.2902 15.9802 53.175 16.4026C53.0726 16.825 53.0214 17.2474 53.0214 17.6698C53.0214 18.105 53.0726 18.5338 53.175 18.9562C53.2902 19.3658 53.463 19.737 53.6934 20.0698C53.9238 20.4026 54.2182 20.6714 54.5766 20.8762C54.935 21.081 55.3574 21.1834 55.8438 21.1834ZM62.6747 12.7162H64.7483V14.0986H64.8059C64.9723 13.8554 65.1515 13.6314 65.3435 13.4266C65.5355 13.2218 65.7467 13.049 65.9771 12.9082C66.2203 12.7674 66.4955 12.6586 66.8027 12.5818C67.1099 12.4922 67.4619 12.4474 67.8587 12.4474C68.4603 12.4474 69.0171 12.5818 69.5291 12.8506C70.0539 13.1194 70.4251 13.5354 70.6427 14.0986C71.0139 13.5866 71.4427 13.1834 71.9291 12.889C72.4155 12.5946 73.0235 12.4474 73.7531 12.4474C74.8027 12.4474 75.6155 12.7034 76.1915 13.2154C76.7803 13.7274 77.0747 14.585 77.0747 15.7882V22.6426H74.8859V16.8442C74.8859 16.4474 74.8731 16.089 74.8475 15.769C74.8219 15.4362 74.7451 15.1546 74.6171 14.9242C74.5019 14.681 74.3227 14.4954 74.0795 14.3674C73.8363 14.2394 73.5035 14.1754 73.0811 14.1754C72.3387 14.1754 71.8011 14.4058 71.4683 14.8666C71.1355 15.3274 70.9691 15.9802 70.9691 16.825V22.6426H68.7803V16.2682C68.7803 15.577 68.6523 15.0586 68.3963 14.713C68.1531 14.3546 67.6987 14.1754 67.0331 14.1754C66.7515 14.1754 66.4763 14.233 66.2075 14.3482C65.9515 14.4634 65.7211 14.6298 65.5163 14.8474C65.3243 15.065 65.1643 15.3338 65.0363 15.6538C64.9211 15.9738 64.8635 16.3386 64.8635 16.7482V22.6426H62.6747V12.7162ZM79.4385 12.7162H81.5121V14.0602H81.5505C81.8577 13.4842 82.2865 13.0746 82.8369 12.8314C83.3873 12.5754 83.9825 12.4474 84.6225 12.4474C85.4033 12.4474 86.0817 12.5882 86.6577 12.8698C87.2465 13.1386 87.7329 13.5162 88.1169 14.0026C88.5009 14.4762 88.7889 15.033 88.9809 15.673C89.1729 16.313 89.2689 16.9978 89.2689 17.7274C89.2689 18.393 89.1793 19.0394 89.0001 19.6666C88.8337 20.2938 88.5713 20.8506 88.2129 21.337C87.8673 21.8106 87.4257 22.1946 86.8881 22.489C86.3505 22.7706 85.7169 22.9114 84.9873 22.9114C84.6673 22.9114 84.3473 22.8794 84.0273 22.8154C83.7073 22.7642 83.4001 22.6746 83.1057 22.5466C82.8113 22.4186 82.5361 22.2586 82.2801 22.0666C82.0369 21.8618 81.8321 21.625 81.6657 21.3562H81.6273V26.3098H79.4385V12.7162ZM87.0801 17.689C87.0801 17.241 87.0225 16.8058 86.9073 16.3834C86.7921 15.961 86.6193 15.5898 86.3889 15.2698C86.1585 14.937 85.8705 14.6746 85.5249 14.4826C85.1793 14.2778 84.7825 14.1754 84.3345 14.1754C83.4129 14.1754 82.7153 14.4954 82.2417 15.1354C81.7809 15.7754 81.5505 16.6266 81.5505 17.689C81.5505 18.1882 81.6081 18.6554 81.7233 19.0906C81.8513 19.513 82.0369 19.8778 82.2801 20.185C82.5233 20.4922 82.8113 20.7354 83.1441 20.9146C83.4897 21.0938 83.8865 21.1834 84.3345 21.1834C84.8337 21.1834 85.2561 21.081 85.6017 20.8762C85.9473 20.6714 86.2289 20.409 86.4465 20.089C86.6769 19.7562 86.8369 19.385 86.9265 18.9754C87.0289 18.553 87.0801 18.1242 87.0801 17.689ZM97.9344 16.8058C97.9088 16.4602 97.832 16.1274 97.704 15.8074C97.5888 15.4874 97.4224 15.2122 97.2048 14.9818C97 14.7386 96.744 14.5466 96.4368 14.4058C96.1424 14.2522 95.8096 14.1754 95.4384 14.1754C95.0544 14.1754 94.7024 14.2458 94.3824 14.3866C94.0752 14.5146 93.8064 14.7002 93.576 14.9434C93.3584 15.1738 93.1792 15.449 93.0384 15.769C92.9104 16.089 92.84 16.4346 92.8272 16.8058H97.9344ZM92.8272 18.2458C92.8272 18.6298 92.8784 19.001 92.9808 19.3594C93.096 19.7178 93.2624 20.0314 93.48 20.3002C93.6976 20.569 93.9728 20.7866 94.3056 20.953C94.6384 21.1066 95.0352 21.1834 95.496 21.1834C96.136 21.1834 96.648 21.049 97.032 20.7802C97.4288 20.4986 97.7232 20.0826 97.9152 19.5322H99.9888C99.8736 20.0698 99.6752 20.5498 99.3936 20.9722C99.112 21.3946 98.7728 21.753 98.376 22.0474C97.9792 22.329 97.5312 22.5402 97.032 22.681C96.5456 22.8346 96.0336 22.9114 95.496 22.9114C94.7152 22.9114 94.024 22.7834 93.4224 22.5274C92.8208 22.2714 92.3088 21.913 91.8864 21.4522C91.4768 20.9914 91.1632 20.441 90.9456 19.801C90.7408 19.161 90.6384 18.457 90.6384 17.689C90.6384 16.985 90.7472 16.3194 90.9648 15.6922C91.1952 15.0522 91.5152 14.4954 91.9248 14.0218C92.3472 13.5354 92.8528 13.1514 93.4416 12.8698C94.0304 12.5882 94.696 12.4474 95.4384 12.4474C96.2192 12.4474 96.9168 12.6138 97.5312 12.9466C98.1584 13.2666 98.6768 13.6954 99.0864 14.233C99.496 14.7706 99.7904 15.3914 99.9696 16.0954C100.162 16.7866 100.213 17.5034 100.123 18.2458H92.8272ZM100.789 12.7162H102.44V9.74018H104.629V12.7162H106.606V14.3482H104.629V19.6474C104.629 19.8778 104.635 20.0762 104.648 20.2426C104.674 20.409 104.718 20.5498 104.782 20.665C104.859 20.7802 104.968 20.8698 105.109 20.9338C105.25 20.985 105.442 21.0106 105.685 21.0106C105.838 21.0106 105.992 21.0106 106.146 21.0106C106.299 20.9978 106.453 20.9722 106.606 20.9338V22.6234C106.363 22.649 106.126 22.6746 105.896 22.7002C105.666 22.7258 105.429 22.7386 105.186 22.7386C104.61 22.7386 104.142 22.6874 103.784 22.585C103.438 22.4698 103.163 22.3098 102.958 22.105C102.766 21.8874 102.632 21.6186 102.555 21.2986C102.491 20.9786 102.453 20.6138 102.44 20.2042V14.3482H100.789V12.7162ZM114.997 16.8058C114.971 16.4602 114.895 16.1274 114.767 15.8074C114.651 15.4874 114.485 15.2122 114.267 14.9818C114.063 14.7386 113.807 14.5466 113.499 14.4058C113.205 14.2522 112.872 14.1754 112.501 14.1754C112.117 14.1754 111.765 14.2458 111.445 14.3866C111.138 14.5146 110.869 14.7002 110.639 14.9434C110.421 15.1738 110.242 15.449 110.101 15.769C109.973 16.089 109.903 16.4346 109.89 16.8058H114.997ZM109.89 18.2458C109.89 18.6298 109.941 19.001 110.043 19.3594C110.159 19.7178 110.325 20.0314 110.543 20.3002C110.76 20.569 111.035 20.7866 111.368 20.953C111.701 21.1066 112.098 21.1834 112.559 21.1834C113.199 21.1834 113.711 21.049 114.095 20.7802C114.491 20.4986 114.786 20.0826 114.978 19.5322H117.051C116.936 20.0698 116.738 20.5498 116.456 20.9722C116.175 21.3946 115.835 21.753 115.439 22.0474C115.042 22.329 114.594 22.5402 114.095 22.681C113.608 22.8346 113.096 22.9114 112.559 22.9114C111.778 22.9114 111.087 22.7834 110.485 22.5274C109.883 22.2714 109.371 21.913 108.949 21.4522C108.539 20.9914 108.226 20.441 108.008 19.801C107.803 19.161 107.701 18.457 107.701 17.689C107.701 16.985 107.81 16.3194 108.027 15.6922C108.258 15.0522 108.578 14.4954 108.987 14.0218C109.41 13.5354 109.915 13.1514 110.504 12.8698C111.093 12.5882 111.759 12.4474 112.501 12.4474C113.282 12.4474 113.979 12.6138 114.594 12.9466C115.221 13.2666 115.739 13.6954 116.149 14.233C116.559 14.7706 116.853 15.3914 117.032 16.0954C117.224 16.7866 117.275 17.5034 117.186 18.2458H109.89Z" fill="white"/>
</svg>
